<svg width="25" height="25" viewBox="0 0 25 25" fill="none" xmlns="http://www.w3.org/2000/svg">
<path d="M22.268 12.3013H2.79823C2.52748 12.3013 2.31021 12.5156 2.33311 12.7854C2.42116 13.8226 2.86171 16.3507 5.03094 18.6294C7.72631 21.4607 11.8424 21.4914 12.1806 21.489C12.1972 21.4889 12.2085 21.4892 12.2251 21.4903C12.5614 21.5113 16.6485 21.7051 19.7028 18.9575C22.2035 16.7079 22.6558 13.8913 22.7346 12.7819C22.7537 12.5136 22.5369 12.3013 22.268 12.3013Z" fill="#FF7E35" stroke="#FF7E35"/>
<rect x="8.125" y="21.3481" width="9.1875" height="1.5" rx="0.75" fill="#FF7E35"/>
<path d="M3.25 12.6762C3.25 12.6762 4.28127 3.48875 12.5313 3.5825C20.7813 3.67625 21.5312 12.6763 21.5312 12.6763" stroke="#FF7E35"/>
</svg>
