<svg width="25" height="25" viewBox="0 0 25 25" fill="none" xmlns="http://www.w3.org/2000/svg">
<mask id="path-1-inside-1_437_9164" fill="white">
<path fill-rule="evenodd" clip-rule="evenodd" d="M12.4337 23.4646C18.6451 23.4624 23.6797 18.4265 23.6797 12.2146C23.6797 6.0014 18.6429 0.9646 12.4297 0.9646C6.21648 0.9646 1.17969 6.0014 1.17969 12.2146C1.17969 18.4278 6.21648 23.4646 12.4297 23.4646H12.4337ZM12.4298 21.8575C12.552 21.8575 12.8029 21.8065 13.1776 21.4366C13.5593 21.06 13.9767 20.4353 14.3619 19.5365C14.7536 18.6226 15.0792 17.5017 15.3044 16.2324H9.5553C9.78042 17.5017 10.1061 18.6226 10.4978 19.5365C10.883 20.4353 11.3004 21.06 11.682 21.4366C12.0568 21.8065 12.3076 21.8575 12.4298 21.8575ZM9.33398 14.6253C9.25701 13.8571 9.21554 13.0501 9.21554 12.2146C9.21554 11.379 9.25701 10.5721 9.33398 9.80386H15.5257C15.6026 10.5721 15.6441 11.379 15.6441 12.2146C15.6441 13.0501 15.6026 13.8571 15.5257 14.6253H9.33398ZM16.9347 16.2324C16.5857 18.3613 15.9676 20.1795 15.1774 21.4603C17.8564 20.6654 20.0484 18.7377 21.1982 16.2324H16.9347ZM21.7688 14.6253H17.1403C17.213 13.8487 17.2513 13.0421 17.2513 12.2146C17.2513 11.3871 17.213 10.5805 17.1403 9.80386H21.7687C21.9671 10.5744 22.0725 11.3822 22.0725 12.2146C22.0725 13.047 21.9671 13.8548 21.7688 14.6253ZM7.71935 14.6253H3.09062C2.89231 13.8548 2.78683 13.047 2.78683 12.2146C2.78683 11.3822 2.89231 10.5744 3.09063 9.80386H7.71936C7.64669 10.5805 7.6084 11.3871 7.6084 12.2146C7.6084 13.0421 7.64669 13.8487 7.71935 14.6253ZM3.66118 16.2324H7.92498C8.27394 18.3613 8.8921 20.1796 9.68229 21.4604C7.00313 20.6655 4.81106 18.7378 3.66118 16.2324ZM9.55531 8.19672H15.3043C15.0792 6.92743 14.7536 5.80661 14.3619 4.89273C13.9767 3.99391 13.5593 3.36921 13.1776 2.99256C12.8029 2.62273 12.552 2.57174 12.4298 2.57174C12.3076 2.57174 12.0568 2.62273 11.682 2.99256C11.3004 3.36921 10.883 3.99391 10.4978 4.89273C10.1061 5.80661 9.78043 6.92743 9.55531 8.19672ZM16.9347 8.19672H21.1982C20.0483 5.69146 17.8564 3.76384 15.1774 2.96888C15.9676 4.24973 16.5857 6.06791 16.9347 8.19672ZM9.68229 2.96877C8.8921 4.24963 8.27394 6.06786 7.92499 8.19672H3.6612C4.81108 5.69135 7.00314 3.76368 9.68229 2.96877Z"/>
</mask>
<path fill-rule="evenodd" clip-rule="evenodd" d="M12.4337 23.4646C18.6451 23.4624 23.6797 18.4265 23.6797 12.2146C23.6797 6.0014 18.6429 0.9646 12.4297 0.9646C6.21648 0.9646 1.17969 6.0014 1.17969 12.2146C1.17969 18.4278 6.21648 23.4646 12.4297 23.4646H12.4337ZM12.4298 21.8575C12.552 21.8575 12.8029 21.8065 13.1776 21.4366C13.5593 21.06 13.9767 20.4353 14.3619 19.5365C14.7536 18.6226 15.0792 17.5017 15.3044 16.2324H9.5553C9.78042 17.5017 10.1061 18.6226 10.4978 19.5365C10.883 20.4353 11.3004 21.06 11.682 21.4366C12.0568 21.8065 12.3076 21.8575 12.4298 21.8575ZM9.33398 14.6253C9.25701 13.8571 9.21554 13.0501 9.21554 12.2146C9.21554 11.379 9.25701 10.5721 9.33398 9.80386H15.5257C15.6026 10.5721 15.6441 11.379 15.6441 12.2146C15.6441 13.0501 15.6026 13.8571 15.5257 14.6253H9.33398ZM16.9347 16.2324C16.5857 18.3613 15.9676 20.1795 15.1774 21.4603C17.8564 20.6654 20.0484 18.7377 21.1982 16.2324H16.9347ZM21.7688 14.6253H17.1403C17.213 13.8487 17.2513 13.0421 17.2513 12.2146C17.2513 11.3871 17.213 10.5805 17.1403 9.80386H21.7687C21.9671 10.5744 22.0725 11.3822 22.0725 12.2146C22.0725 13.047 21.9671 13.8548 21.7688 14.6253ZM7.71935 14.6253H3.09062C2.89231 13.8548 2.78683 13.047 2.78683 12.2146C2.78683 11.3822 2.89231 10.5744 3.09063 9.80386H7.71936C7.64669 10.5805 7.6084 11.3871 7.6084 12.2146C7.6084 13.0421 7.64669 13.8487 7.71935 14.6253ZM3.66118 16.2324H7.92498C8.27394 18.3613 8.8921 20.1796 9.68229 21.4604C7.00313 20.6655 4.81106 18.7378 3.66118 16.2324ZM9.55531 8.19672H15.3043C15.0792 6.92743 14.7536 5.80661 14.3619 4.89273C13.9767 3.99391 13.5593 3.36921 13.1776 2.99256C12.8029 2.62273 12.552 2.57174 12.4298 2.57174C12.3076 2.57174 12.0568 2.62273 11.682 2.99256C11.3004 3.36921 10.883 3.99391 10.4978 4.89273C10.1061 5.80661 9.78043 6.92743 9.55531 8.19672ZM16.9347 8.19672H21.1982C20.0483 5.69146 17.8564 3.76384 15.1774 2.96888C15.9676 4.24973 16.5857 6.06791 16.9347 8.19672ZM9.68229 2.96877C8.8921 4.24963 8.27394 6.06786 7.92499 8.19672H3.6612C4.81108 5.69135 7.00314 3.76368 9.68229 2.96877Z" fill="white" stroke="white" stroke-width="1.875" stroke-linecap="round" mask="url(#path-1-inside-1_437_9164)"/>
</svg>
