<svg width="24" height="24" viewBox="0 0 24 24" fill="none" xmlns="http://www.w3.org/2000/svg">
<path fill-rule="evenodd" clip-rule="evenodd" d="M20.7501 11.9998C20.7501 12.414 20.4143 12.7498 20.0001 12.7498L12.75 12.7498L12.75 19.9999C12.75 20.4141 12.4142 20.7499 12 20.7499C11.5858 20.7499 11.25 20.4141 11.25 19.9999L11.25 12.7498L4.00002 12.7497C3.5858 12.7497 3.25002 12.4139 3.25002 11.9997C3.25002 11.5855 3.58581 11.2497 4.00003 11.2497L11.2499 11.2498L11.2499 3.99984C11.2499 3.58563 11.5857 3.24984 11.9999 3.24984C12.4141 3.24984 12.7499 3.58562 12.7499 3.99983L12.7499 11.2498L20.0001 11.2498C20.4143 11.2498 20.7501 11.5856 20.7501 11.9998Z" fill="#5A5C63"/>
</svg>
