<svg width="22" height="22" viewBox="0 0 22 22" fill="none" xmlns="http://www.w3.org/2000/svg">
<path fill-rule="evenodd" clip-rule="evenodd" d="M11.0835 12.2358C11.0042 12.3164 10.9551 12.4212 10.9409 12.5334C10.7379 14.132 9.99194 16.3648 7.92532 17.7167C4.64252 19.864 1.03357 17.8261 0.768469 17.3059C0.24596 16.2805 3.37614 13.5574 5.19837 12.3654C6.43833 11.5543 8.76351 10.4179 10.048 10.3571C10.194 10.3502 10.337 10.2988 10.4395 10.1945L11.3103 9.30961L22.5655 0.191862C22.9638 -0.134959 23.5205 -0.0340988 23.809 0.41714C24.0975 0.868379 24.0084 1.49912 23.6101 1.82594L12.3549 10.9437L11.0835 12.2358Z" fill="url(#paint0_linear_373_14677)"/>
<path d="M10.1092 10.9193C10.3262 11.3452 8.67493 13.299 6.22607 14.9009C3.77721 16.5027 1.45811 17.146 1.24107 16.7201C1.02402 16.2942 2.77547 14.537 5.22433 12.9351C7.67319 11.3333 9.89212 10.4934 10.1092 10.9193Z" fill="url(#paint1_linear_373_14677)"/>
<path d="M3.13177 3.70586C3.14833 3.65464 3.17838 3.61042 3.21785 3.57918C3.25731 3.54794 3.3043 3.53119 3.35245 3.53119C3.40059 3.53119 3.44758 3.54794 3.48705 3.57918C3.52652 3.61042 3.55656 3.65464 3.57313 3.70586L3.79767 4.40093C3.97389 4.94593 4.25284 5.44086 4.61509 5.85128C4.97734 6.2617 5.4142 6.57774 5.89524 6.77739L6.50873 7.03179C6.55394 7.05055 6.59297 7.0846 6.62054 7.12931C6.64811 7.17403 6.6629 7.22726 6.6629 7.28181C6.6629 7.33636 6.64811 7.38959 6.62054 7.43431C6.59297 7.47903 6.55394 7.51307 6.50873 7.53183L5.89524 7.78623C5.4142 7.98589 4.97734 8.30192 4.61509 8.71234C4.25284 9.12276 3.97389 9.6177 3.79767 10.1627L3.57313 10.8578C3.55656 10.909 3.52652 10.9532 3.48705 10.9844C3.44758 11.0157 3.40059 11.0324 3.35245 11.0324C3.3043 11.0324 3.25731 11.0157 3.21785 10.9844C3.17838 10.9532 3.14833 10.909 3.13177 10.8578L2.90722 10.1627C2.731 9.6177 2.45205 9.12276 2.0898 8.71234C1.72755 8.30192 1.2907 7.98589 0.809658 7.78623L0.196167 7.53183C0.150958 7.51307 0.111928 7.47903 0.0843537 7.43431C0.0567795 7.38959 0.0419922 7.33636 0.0419922 7.28181C0.0419922 7.22726 0.0567795 7.17403 0.0843537 7.12931C0.111928 7.0846 0.150958 7.05055 0.196167 7.03179L0.809658 6.77739C1.2907 6.57774 1.72755 6.2617 2.0898 5.85128C2.45205 5.44086 2.731 4.94593 2.90722 4.40093L3.13177 3.70586Z" fill="url(#paint2_linear_373_14677)"/>
<path fill-rule="evenodd" clip-rule="evenodd" d="M11.0835 12.2358C11.0042 12.3164 10.9551 12.4212 10.9409 12.5334C10.7379 14.132 9.99194 16.3648 7.92532 17.7167C4.64252 19.864 1.03357 17.8261 0.768469 17.3059C0.24596 16.2805 3.37614 13.5574 5.19837 12.3654C6.43833 11.5543 8.76351 10.4179 10.048 10.3571C10.194 10.3502 10.337 10.2988 10.4395 10.1945L11.3103 9.30961L22.5655 0.191862C22.9638 -0.134959 23.5205 -0.0340988 23.809 0.41714C24.0975 0.868379 24.0084 1.49912 23.6101 1.82594L12.3549 10.9437L11.0835 12.2358Z" fill="url(#paint3_linear_373_14677)"/>
<path d="M10.1092 10.9193C10.3262 11.3452 8.67493 13.299 6.22607 14.9009C3.77721 16.5027 1.45811 17.146 1.24107 16.7201C1.02402 16.2942 2.77547 14.537 5.22433 12.9351C7.67319 11.3333 9.89212 10.4934 10.1092 10.9193Z" fill="url(#paint4_linear_373_14677)"/>
<path d="M3.13177 3.70586C3.14833 3.65464 3.17838 3.61042 3.21785 3.57918C3.25731 3.54794 3.3043 3.53119 3.35245 3.53119C3.40059 3.53119 3.44758 3.54794 3.48705 3.57918C3.52652 3.61042 3.55656 3.65464 3.57313 3.70586L3.79767 4.40093C3.97389 4.94593 4.25284 5.44086 4.61509 5.85128C4.97734 6.2617 5.4142 6.57774 5.89524 6.77739L6.50873 7.03179C6.55394 7.05055 6.59297 7.0846 6.62054 7.12931C6.64811 7.17403 6.6629 7.22726 6.6629 7.28181C6.6629 7.33636 6.64811 7.38959 6.62054 7.43431C6.59297 7.47903 6.55394 7.51307 6.50873 7.53183L5.89524 7.78623C5.4142 7.98589 4.97734 8.30192 4.61509 8.71234C4.25284 9.12276 3.97389 9.6177 3.79767 10.1627L3.57313 10.8578C3.55656 10.909 3.52652 10.9532 3.48705 10.9844C3.44758 11.0157 3.40059 11.0324 3.35245 11.0324C3.3043 11.0324 3.25731 11.0157 3.21785 10.9844C3.17838 10.9532 3.14833 10.909 3.13177 10.8578L2.90722 10.1627C2.731 9.6177 2.45205 9.12276 2.0898 8.71234C1.72755 8.30192 1.2907 7.98589 0.809658 7.78623L0.196167 7.53183C0.150958 7.51307 0.111928 7.47903 0.0843537 7.43431C0.0567795 7.38959 0.0419922 7.33636 0.0419922 7.28181C0.0419922 7.22726 0.0567795 7.17403 0.0843537 7.12931C0.111928 7.0846 0.150958 7.05055 0.196167 7.03179L0.809658 6.77739C1.2907 6.57774 1.72755 6.2617 2.0898 5.85128C2.45205 5.44086 2.731 4.94593 2.90722 4.40093L3.13177 3.70586Z" fill="url(#paint5_linear_373_14677)"/>
<defs>
<linearGradient id="paint0_linear_373_14677" x1="18.4076" y1="5.67468" x2="-2.24448" y2="16.4032" gradientUnits="userSpaceOnUse">
<stop stop-color="white" stop-opacity="0.1"/>
<stop offset="1" stop-color="white"/>
</linearGradient>
<linearGradient id="paint1_linear_373_14677" x1="1.29115" y1="16.8184" x2="10.6777" y2="12.0351" gradientUnits="userSpaceOnUse">
<stop stop-color="#171719" stop-opacity="0.15"/>
<stop offset="1" stop-color="#171719" stop-opacity="0.45"/>
</linearGradient>
<linearGradient id="paint2_linear_373_14677" x1="0.0419922" y1="3.53119" x2="7.54964" y2="10.1577" gradientUnits="userSpaceOnUse">
<stop stop-color="white"/>
<stop offset="1" stop-color="white" stop-opacity="0.4"/>
</linearGradient>
<linearGradient id="paint3_linear_373_14677" x1="18.4076" y1="5.67468" x2="-2.24448" y2="16.4032" gradientUnits="userSpaceOnUse">
<stop stop-color="white" stop-opacity="0.1"/>
<stop offset="1" stop-color="white"/>
</linearGradient>
<linearGradient id="paint4_linear_373_14677" x1="1.29115" y1="16.8184" x2="10.6777" y2="12.0351" gradientUnits="userSpaceOnUse">
<stop stop-color="#171719" stop-opacity="0.15"/>
<stop offset="1" stop-color="#171719" stop-opacity="0.45"/>
</linearGradient>
<linearGradient id="paint5_linear_373_14677" x1="0.0419922" y1="3.53119" x2="7.54964" y2="10.1577" gradientUnits="userSpaceOnUse">
<stop stop-color="white"/>
<stop offset="1" stop-color="white" stop-opacity="0.4"/>
</linearGradient>
</defs>
</svg>
