<svg width="24" height="24" viewBox="0 0 24 24" fill="none" xmlns="http://www.w3.org/2000/svg">
<path d="M5.02201 18.283C5.10535 18.11 5.28043 18 5.47248 18H17.0275C17.2196 18 17.3946 18.11 17.478 18.283L19.4047 22.283C19.5646 22.615 19.3227 23 18.9542 23H3.54581C3.17734 23 2.93545 22.615 3.09534 22.283L5.02201 18.283Z" fill="#EAEBEC"/>
<path fill-rule="evenodd" clip-rule="evenodd" d="M11.6088 3C15.3968 3 18.4676 6.17666 18.4676 10.0953C18.4676 13.2252 16.0484 15.5952 13.8968 17.7031C13.0331 18.5492 12.2125 19.3531 11.6088 20.147C11.0051 19.3531 10.1845 18.5492 9.32081 17.7031C7.16919 15.5952 4.75 13.2252 4.75 10.0953C4.75 6.17666 7.82077 3 11.6088 3ZM11.6088 12.4308C13.0293 12.4308 14.1808 11.2793 14.1808 9.85879C14.1808 8.43829 13.0293 7.28674 11.6088 7.28674C10.1883 7.28674 9.03674 8.43829 9.03674 9.85879C9.03674 11.2793 10.1883 12.4308 11.6088 12.4308Z" fill="#989BA2"/>
</svg>
