<svg width="24" height="24" viewBox="0 0 24 24" fill="none" xmlns="http://www.w3.org/2000/svg">
<path d="M5.77201 17.283C5.85535 17.11 6.03043 17 6.22248 17H17.7775C17.9696 17 18.1446 17.11 18.228 17.283L20.1547 21.283C20.3146 21.615 20.0727 22 19.7042 22H4.29581C3.92734 22 3.68545 21.615 3.84534 21.283L5.77201 17.283Z" fill="#EAEBEC"/>
<path fill-rule="evenodd" clip-rule="evenodd" d="M12.3588 2C16.1468 2 19.2176 5.17666 19.2176 9.0953C19.2176 12.2252 16.7984 14.5952 14.6468 16.7031C13.7831 17.5492 12.9625 18.3531 12.3588 19.147C11.7551 18.3531 10.9345 17.5492 10.0708 16.7031C7.91919 14.5952 5.5 12.2252 5.5 9.0953C5.5 5.17666 8.57077 2 12.3588 2ZM12.3588 11.4308C13.7793 11.4308 14.9308 10.2793 14.9308 8.85879C14.9308 7.43829 13.7793 6.28674 12.3588 6.28674C10.9383 6.28674 9.78674 7.43829 9.78674 8.85879C9.78674 10.2793 10.9383 11.4308 12.3588 11.4308Z" fill="#989BA2"/>
</svg>
