<svg width="25" height="25" viewBox="0 0 25 25" fill="none" xmlns="http://www.w3.org/2000/svg">
<path fill-rule="evenodd" clip-rule="evenodd" d="M4.94819 21.0878C5.82836 21.968 7.27846 21.8867 8.0547 20.9136L14.2085 13.1994C15.9289 14.2731 18.263 14.027 19.8054 12.4847C21.5913 10.6987 22.8151 6.675 21.0882 4.94806C19.3613 3.22113 15.3375 4.44491 13.5516 6.23089C12.0095 7.77299 11.7632 10.1067 12.8364 11.827L5.12232 17.9814C4.14933 18.7577 4.06805 20.2077 4.94819 21.0878Z" fill="white"/>
<path d="M5.42643 10.4469C5.40919 10.4939 5.37791 10.5346 5.33683 10.5633C5.29575 10.592 5.24684 10.6074 5.19672 10.6074C5.14661 10.6074 5.0977 10.592 5.05662 10.5633C5.01554 10.5346 4.98426 10.4939 4.96702 10.4469L4.73329 9.8083C4.54986 9.30758 4.2595 8.85286 3.88244 8.47579C3.50537 8.09873 3.05065 7.80837 2.54993 7.62494L1.91135 7.39121C1.86429 7.37397 1.82367 7.3427 1.79496 7.30161C1.76626 7.26053 1.75087 7.21162 1.75087 7.16151C1.75087 7.11139 1.76626 7.06248 1.79496 7.0214C1.82367 6.98032 1.86429 6.94904 1.91135 6.9318L2.54993 6.69807C3.05065 6.51464 3.50537 6.22429 3.88244 5.84722C4.2595 5.47015 4.54986 5.01543 4.73329 4.51472L4.96702 3.87613C4.98426 3.82907 5.01554 3.78845 5.05662 3.75975C5.0977 3.73104 5.14661 3.71565 5.19672 3.71565C5.24684 3.71565 5.29575 3.73104 5.33683 3.75975C5.37791 3.78845 5.40919 3.82907 5.42643 3.87613L5.66016 4.51472C5.84359 5.01543 6.13394 5.47015 6.51101 5.84722C6.88808 6.22429 7.3428 6.51464 7.84351 6.69807L8.4821 6.9318C8.52916 6.94904 8.56978 6.98032 8.59848 7.0214C8.62719 7.06248 8.64258 7.11139 8.64258 7.16151C8.64258 7.21162 8.62719 7.26053 8.59848 7.30161C8.56978 7.3427 8.52916 7.37397 8.4821 7.39121L7.84351 7.62494C7.3428 7.80837 6.88808 8.09873 6.51101 8.47579C6.13394 8.85286 5.84359 9.30758 5.66016 9.8083L5.42643 10.4469Z" fill="white"/>
</svg>
