<svg width="25" height="25" viewBox="0 0 25 25" fill="none" xmlns="http://www.w3.org/2000/svg">
<path fill-rule="evenodd" clip-rule="evenodd" d="M15.4806 9.74425C19.5367 11.7123 22.6246 8.43072 22.6246 5.60616C22.6246 3.0342 20.5395 0.949219 17.9674 0.949219C15.5652 0.949219 13.5878 2.76791 13.3371 5.10343H3.98092H3.96573H3.71278H3.10628C2.70456 5.10343 2.48029 5.56718 2.72971 5.88208L3.10628 6.35752L3.26333 6.5558L3.27276 6.56771L9.9704 15.0237V21.7419H6.49869C6.23338 21.7419 6.01831 21.957 6.01831 22.2223V22.7258C6.01831 22.9911 6.23338 23.2062 6.49869 23.2062L14.8181 23.2062C15.0834 23.2062 15.2985 22.9911 15.2985 22.7258V22.2223C15.2985 21.957 15.0834 21.7419 14.8181 21.7419H11.4347V14.8591L15.4806 9.74425ZM7.14325 9.09418L7.23808 9.21574L5.1407 6.56771H16.1263L14.1279 9.09415L7.14325 9.09418Z" fill="#AD75F9"/>
</svg>
