<svg width="24" height="24" viewBox="0 0 24 24" fill="none" xmlns="http://www.w3.org/2000/svg">
<path fill-rule="evenodd" clip-rule="evenodd" d="M18.5303 5.46967C18.8232 5.76257 18.8232 6.23744 18.5303 6.53033L13.0606 12L18.5303 17.4697C18.8232 17.7626 18.8232 18.2374 18.5303 18.5303C18.2374 18.8232 17.7626 18.8232 17.4697 18.5303L11.9999 13.0607L6.53033 18.5302C6.23743 18.8231 5.76256 18.8231 5.46967 18.5302C5.17678 18.2373 5.17678 17.7624 5.46967 17.4695L10.9393 12L5.46967 6.53047C5.17678 6.23758 5.17678 5.76271 5.46967 5.46981C5.76256 5.17692 6.23743 5.17691 6.53033 5.46981L11.9999 10.9393L17.4697 5.46967C17.7626 5.17678 18.2374 5.17678 18.5303 5.46967Z" fill="white"/>
</svg>
