<svg width="25" height="25" viewBox="0 0 25 25" fill="none" xmlns="http://www.w3.org/2000/svg">
<path fill-rule="evenodd" clip-rule="evenodd" d="M2.42969 3.37469V21.0546H16.6808V16.4241C16.9752 16.48 17.279 16.5093 17.5897 16.5093C20.2625 16.5093 22.4293 14.3425 22.4293 11.6696C22.4293 8.99674 20.2625 6.82996 17.5897 6.82996C17.279 6.82996 16.9752 6.85923 16.6808 6.91516V3.37469H2.42969ZM16.6808 14.0884V9.25086C16.9635 9.14458 17.2698 9.08644 17.5897 9.08644C19.0163 9.08644 20.1728 10.243 20.1728 11.6696C20.1728 13.0963 19.0163 14.2528 17.5897 14.2528C17.2698 14.2528 16.9635 14.1946 16.6808 14.0884Z" fill="white"/>
</svg>
