<svg width="24" height="24" viewBox="0 0 24 24" fill="none" xmlns="http://www.w3.org/2000/svg">
<path d="M22.7473 20.7679C23.0244 21.2479 22.678 21.8479 22.1237 21.8479H1.87595C1.3217 21.8479 0.975294 21.2479 1.25241 20.7679L11.3763 3.23204C11.6534 2.75202 12.3463 2.75202 12.6234 3.23204L22.7473 20.7679ZM4.993 18.6079C4.71589 19.0879 5.06231 19.6879 5.61655 19.6879H18.3831C18.9374 19.6879 19.2838 19.0879 19.0067 18.6079L12.6234 7.5507C12.3463 7.07066 11.6534 7.07066 11.3763 7.5507L4.993 18.6079Z" fill="white"/>
<path d="M12 10.772L12 15.4691" stroke="white" stroke-width="1.2" stroke-linecap="round"/>
<path d="M12 17.5903L12 17.7343" stroke="white" stroke-width="1.2" stroke-linecap="round"/>
</svg>
