<svg width="24" height="24" viewBox="0 0 24 24" fill="none" xmlns="http://www.w3.org/2000/svg">
<path d="M21.643 12.2812H2.17323C1.90248 12.2812 1.68521 12.4956 1.70811 12.7653C1.79616 13.8026 2.23671 16.3307 4.40594 18.6094C7.10131 21.4407 11.2174 21.4714 11.5556 21.469C11.5722 21.4689 11.5835 21.4692 11.6001 21.4703C11.9364 21.4913 16.0235 21.6851 19.0778 18.9375C21.5785 16.6879 22.0308 13.8713 22.1096 12.7619C22.1287 12.4936 21.9119 12.2812 21.643 12.2812Z" fill="#FF5235" stroke="#FF5235"/>
<rect x="7.5" y="21.3281" width="9.1875" height="1.5" rx="0.75" fill="#FF5235"/>
<path d="M2.625 12.6562C2.625 12.6562 3.65627 3.46873 11.9063 3.56248C20.1563 3.65623 20.9062 12.6562 20.9062 12.6562" stroke="#FF5235"/>
</svg>
