<svg width="25" height="25" viewBox="0 0 25 25" fill="none" xmlns="http://www.w3.org/2000/svg">
<path fill-rule="evenodd" clip-rule="evenodd" d="M8.07276 5.71383C8.07276 5.71383 0.228884 8.39726 0.641719 15.3639C1.05455 22.3305 10.1889 23.0529 12.5627 23.0529C14.9365 23.0529 24.4834 23.0529 24.8442 15.7767C25.205 8.50047 17.7228 5.71383 17.7228 5.71383C17.7228 5.71383 17.5942 3.41743 16.3295 3.08201C15.0648 2.74658 14.2399 4.07539 14.2399 4.07539C14.2399 4.07539 14.8079 1.43066 12.8466 1.43066C10.8852 1.43066 11.4016 4.01089 11.4016 4.01089C11.4016 4.01089 10.7695 2.78528 9.36287 3.08201C7.95626 3.37873 8.07276 5.71383 8.07276 5.71383ZM9.63892 8.095C9.27958 7.81426 8.76069 7.87797 8.47995 8.23731L6.23226 11.1142C5.95151 11.4736 6.01523 11.9924 6.37456 12.2732C6.7339 12.5539 7.25279 12.4902 7.53354 12.1309L9.78122 9.25397C10.062 8.89464 9.99826 8.37575 9.63892 8.095ZM11.916 9.1328C11.916 8.6768 12.2857 8.30713 12.7417 8.30713C13.1977 8.30713 13.5674 8.67679 13.5674 9.1328V12.7836C13.5674 13.2397 13.1977 13.6093 12.7417 13.6093C12.2857 13.6093 11.916 13.2397 11.916 12.7836V9.1328ZM15.9993 8.09494C15.6399 8.37568 15.5762 8.89457 15.857 9.25391L18.1047 12.1308C18.3854 12.4902 18.9043 12.5539 19.2636 12.2731C19.623 11.9924 19.6867 11.4735 19.4059 11.1142L17.1582 8.23724C16.8775 7.8779 16.3586 7.81419 15.9993 8.09494Z" fill="#AD75F9"/>
</svg>
