<svg width="24" height="24" viewBox="0 0 24 24" fill="none" xmlns="http://www.w3.org/2000/svg">
<path d="M22 12C22 17.5228 17.5228 22 12 22C6.47715 22 2 17.5228 2 12C2 6.47715 6.47715 2 12 2C17.5228 2 22 6.47715 22 12Z" fill="#EAEBEC"/>
<path fill-rule="evenodd" clip-rule="evenodd" d="M16.5303 7.46967C16.8232 7.76257 16.8232 8.23744 16.5303 8.53033L13.0606 12L16.5303 15.4697C16.8232 15.7626 16.8232 16.2374 16.5303 16.5303C16.2374 16.8232 15.7626 16.8232 15.4697 16.5303L12 13.0607L8.53033 16.5302C8.23743 16.8231 7.76256 16.8231 7.46967 16.5302C7.17678 16.2373 7.17678 15.7625 7.46967 15.4696L10.9393 12L7.46967 8.53043C7.17678 8.23753 7.17678 7.76266 7.46967 7.46977C7.76256 7.17687 8.23743 7.17687 8.53033 7.46976L12 10.9393L15.4697 7.46967C15.7626 7.17678 16.2374 7.17678 16.5303 7.46967Z" fill="#C2C4C8"/>
</svg>
