<svg width="22" height="22" viewBox="0 0 22 22" fill="none" xmlns="http://www.w3.org/2000/svg">
<path d="M18.887 11.5313L20.243 12.7388C20.4934 12.9478 20.6607 13.2395 20.7146 13.5611C20.7685 13.8828 20.7055 14.2131 20.537 14.4923L18.902 17.2853C18.7751 17.4991 18.594 17.6756 18.377 17.7968C18.1574 17.9183 17.9109 17.9828 17.66 17.9843C17.5043 17.9853 17.3494 17.962 17.201 17.9153L15.4655 17.3423C15.1615 17.5373 14.8455 17.7118 14.5175 17.8658L14.153 19.6253C14.0855 19.949 13.9053 20.2382 13.6445 20.4413C13.3803 20.6481 13.0528 20.7573 12.7175 20.7503H9.33196C8.99658 20.7573 8.6691 20.6481 8.40496 20.4413C8.14468 20.2379 7.96502 19.9488 7.89796 19.6253L7.53196 17.8658C7.20826 17.7097 6.89419 17.5344 6.59146 17.3408L4.84996 17.9153C4.70146 17.962 4.54661 17.9853 4.39096 17.9843C4.14055 17.9825 3.89457 17.9181 3.67546 17.7968C3.45862 17.676 3.27751 17.5001 3.15046 17.2868L1.45696 14.4923C1.2809 14.2106 1.21363 13.8743 1.26775 13.5465C1.32187 13.2188 1.49368 12.922 1.75096 12.7118L3.10546 11.0003V10.4693L1.74946 9.26181C1.49905 9.05285 1.33174 8.76114 1.27781 8.43949C1.22388 8.11784 1.2869 7.78752 1.45546 7.50831L3.14896 4.71531C3.27581 4.50151 3.45693 4.32505 3.67396 4.20381C3.89307 4.08257 4.13905 4.01811 4.38946 4.01631C4.54371 4.00658 4.69853 4.02075 4.84846 4.05831L6.55546 4.65831C6.86046 4.46331 7.17646 4.28881 7.50346 4.13481L7.86946 2.37531C7.93652 2.05186 8.11618 1.76271 8.37646 1.55931C8.6406 1.35253 8.96808 1.24337 9.30346 1.25031H12.6605C12.9958 1.24337 13.3233 1.35253 13.5875 1.55931C13.85 1.76481 14.03 2.05431 14.0945 2.37531L14.4605 4.13481C14.7855 4.28981 15.099 4.46481 15.401 4.65981L17.144 4.08681C17.3374 4.02388 17.5418 4.00179 17.7442 4.02193C17.9467 4.04207 18.1427 4.104 18.32 4.20381C18.5375 4.32681 18.7175 4.50381 18.845 4.71381L20.537 7.50831C20.7154 7.78764 20.7861 8.12236 20.7358 8.44999C20.6856 8.77761 20.5179 9.07577 20.264 9.28881L18.887 10.4618V11.5313Z" stroke="#878A93" stroke-width="2"/>
<path d="M14.75 11C14.75 11.9946 14.3549 12.9484 13.6517 13.6517C12.9484 14.3549 11.9946 14.75 11 14.75C10.0054 14.75 9.05161 14.3549 8.34835 13.6517C7.64509 12.9484 7.25 11.9946 7.25 11C7.25 10.0054 7.64509 9.05161 8.34835 8.34835C9.05161 7.64509 10.0054 7.25 11 7.25C11.9946 7.25 12.9484 7.64509 13.6517 8.34835C14.3549 9.05161 14.75 10.0054 14.75 11Z" stroke="#878A93" stroke-width="2"/>
</svg>
