<svg width="24" height="25" viewBox="0 0 24 25" fill="none" xmlns="http://www.w3.org/2000/svg">
<mask id="path-1-inside-1_442_19479" fill="white">
<path fill-rule="evenodd" clip-rule="evenodd" d="M12.004 23.3281C18.2154 23.3259 23.25 18.29 23.25 12.0781C23.25 5.86492 18.2132 0.828125 12 0.828125C5.7868 0.828125 0.75 5.86492 0.75 12.0781C0.75 18.2913 5.7868 23.3281 12 23.3281H12.004ZM12.0001 21.721C12.1224 21.721 12.3732 21.67 12.7479 21.3002C13.1296 20.9235 13.547 20.2988 13.9322 19.4C14.3239 18.4861 14.6496 17.3652 14.8747 16.0959H9.1256C9.35072 17.3652 9.6764 18.4861 10.0681 19.4C10.4533 20.2988 10.8707 20.9235 11.2523 21.3002C11.6271 21.67 11.8779 21.721 12.0001 21.721ZM8.90429 14.4888C8.82732 13.7206 8.78585 12.9136 8.78585 12.0781C8.78585 11.2426 8.82732 10.4357 8.90429 9.66745H15.096C15.173 10.4357 15.2144 11.2426 15.2144 12.0781C15.2144 12.9136 15.173 13.7206 15.096 14.4888H8.90429ZM16.505 16.0959C16.1561 18.2248 15.5379 20.043 14.7477 21.3238C17.4268 20.5289 19.6187 18.6012 20.7685 16.0959H16.505ZM21.3391 14.4888H16.7106C16.7833 13.7122 16.8216 12.9056 16.8216 12.0781C16.8216 11.2507 16.7833 10.4441 16.7106 9.66745H21.3391C21.5374 10.4379 21.6429 11.2457 21.6429 12.0781C21.6429 12.9105 21.5374 13.7183 21.3391 14.4888ZM7.28966 14.4888H2.66092C2.46261 13.7183 2.35714 12.9105 2.35714 12.0781C2.35714 11.2457 2.46262 10.4379 2.66093 9.66745H7.28966C7.217 10.4441 7.17871 11.2507 7.17871 12.0781C7.17871 12.9056 7.217 13.7122 7.28966 14.4888ZM3.23146 16.0959H7.49528C7.84424 18.2248 8.4624 20.0431 9.25261 21.3239C6.57342 20.529 4.38134 18.6013 3.23146 16.0959ZM9.12561 8.0603H14.8747C14.6496 6.79099 14.3239 5.67015 13.9322 4.75626C13.547 3.85744 13.1296 3.23273 12.7479 2.85609C12.3732 2.48625 12.1224 2.43527 12.0001 2.43527C11.8779 2.43527 11.6271 2.48625 11.2523 2.85609C10.8707 3.23273 10.4533 3.85744 10.0681 4.75626C9.6764 5.67015 9.35073 6.79099 9.12561 8.0603ZM16.505 8.0603H20.7685C19.6187 5.55501 17.4268 3.62738 14.7477 2.8324C15.5379 4.11327 16.156 5.93147 16.505 8.0603ZM9.25261 2.8323C8.46241 4.11317 7.84424 5.93142 7.49529 8.0603H3.23148C4.38136 5.55491 6.57343 3.62721 9.25261 2.8323Z"/>
</mask>
<path fill-rule="evenodd" clip-rule="evenodd" d="M12.004 23.3281C18.2154 23.3259 23.25 18.29 23.25 12.0781C23.25 5.86492 18.2132 0.828125 12 0.828125C5.7868 0.828125 0.75 5.86492 0.75 12.0781C0.75 18.2913 5.7868 23.3281 12 23.3281H12.004ZM12.0001 21.721C12.1224 21.721 12.3732 21.67 12.7479 21.3002C13.1296 20.9235 13.547 20.2988 13.9322 19.4C14.3239 18.4861 14.6496 17.3652 14.8747 16.0959H9.1256C9.35072 17.3652 9.6764 18.4861 10.0681 19.4C10.4533 20.2988 10.8707 20.9235 11.2523 21.3002C11.6271 21.67 11.8779 21.721 12.0001 21.721ZM8.90429 14.4888C8.82732 13.7206 8.78585 12.9136 8.78585 12.0781C8.78585 11.2426 8.82732 10.4357 8.90429 9.66745H15.096C15.173 10.4357 15.2144 11.2426 15.2144 12.0781C15.2144 12.9136 15.173 13.7206 15.096 14.4888H8.90429ZM16.505 16.0959C16.1561 18.2248 15.5379 20.043 14.7477 21.3238C17.4268 20.5289 19.6187 18.6012 20.7685 16.0959H16.505ZM21.3391 14.4888H16.7106C16.7833 13.7122 16.8216 12.9056 16.8216 12.0781C16.8216 11.2507 16.7833 10.4441 16.7106 9.66745H21.3391C21.5374 10.4379 21.6429 11.2457 21.6429 12.0781C21.6429 12.9105 21.5374 13.7183 21.3391 14.4888ZM7.28966 14.4888H2.66092C2.46261 13.7183 2.35714 12.9105 2.35714 12.0781C2.35714 11.2457 2.46262 10.4379 2.66093 9.66745H7.28966C7.217 10.4441 7.17871 11.2507 7.17871 12.0781C7.17871 12.9056 7.217 13.7122 7.28966 14.4888ZM3.23146 16.0959H7.49528C7.84424 18.2248 8.4624 20.0431 9.25261 21.3239C6.57342 20.529 4.38134 18.6013 3.23146 16.0959ZM9.12561 8.0603H14.8747C14.6496 6.79099 14.3239 5.67015 13.9322 4.75626C13.547 3.85744 13.1296 3.23273 12.7479 2.85609C12.3732 2.48625 12.1224 2.43527 12.0001 2.43527C11.8779 2.43527 11.6271 2.48625 11.2523 2.85609C10.8707 3.23273 10.4533 3.85744 10.0681 4.75626C9.6764 5.67015 9.35073 6.79099 9.12561 8.0603ZM16.505 8.0603H20.7685C19.6187 5.55501 17.4268 3.62738 14.7477 2.8324C15.5379 4.11327 16.156 5.93147 16.505 8.0603ZM9.25261 2.8323C8.46241 4.11317 7.84424 5.93142 7.49529 8.0603H3.23148C4.38136 5.55491 6.57343 3.62721 9.25261 2.8323Z" fill="#6A92FF" stroke="#6A92FF" stroke-width="1.875" stroke-linecap="round" mask="url(#path-1-inside-1_442_19479)"/>
</svg>
