<svg width="24" height="25" viewBox="0 0 24 25" fill="none" xmlns="http://www.w3.org/2000/svg">
<path d="M21.643 12.3594H2.17323C1.90248 12.3594 1.68521 12.5737 1.70811 12.8435C1.79616 13.8807 2.23671 16.4089 4.40594 18.6875C7.10131 21.5188 11.2174 21.5495 11.5556 21.5471C11.5722 21.547 11.5835 21.5473 11.6001 21.5484C11.9364 21.5694 16.0235 21.7633 19.0778 19.0156C21.5785 16.766 22.0308 13.9494 22.1096 12.84C22.1287 12.5717 21.9119 12.3594 21.643 12.3594Z" fill="#6A92FF" stroke="#6A92FF"/>
<rect x="7.5" y="21.4062" width="9.1875" height="1.5" rx="0.75" fill="#6A92FF"/>
<path d="M2.625 12.7343C2.625 12.7343 3.65627 3.54686 11.9063 3.64061C20.1563 3.73436 20.9062 12.7344 20.9062 12.7344" stroke="#6A92FF"/>
</svg>
