<svg width="24" height="24" viewBox="0 0 24 24" fill="none" xmlns="http://www.w3.org/2000/svg">
<g clip-path="url(#clip0_446_18188)">
<path d="M7.60948 11.4269C7.61811 11.4033 7.63376 11.383 7.65432 11.3686C7.67488 11.3543 7.69936 11.3466 7.72444 11.3466C7.74952 11.3466 7.77399 11.3543 7.79455 11.3686C7.81511 11.383 7.83076 11.4033 7.83939 11.4269L7.95635 11.7464C8.04815 11.997 8.19346 12.2246 8.38216 12.4133C8.57085 12.602 8.79841 12.7473 9.04899 12.8391L9.36856 12.956C9.39211 12.9647 9.41244 12.9803 9.42681 13.0009C9.44117 13.0214 9.44887 13.0459 9.44887 13.071C9.44887 13.0961 9.44117 13.1205 9.42681 13.1411C9.41244 13.1617 9.39211 13.1773 9.36856 13.1859L9.04899 13.3029C8.79841 13.3947 8.57085 13.54 8.38216 13.7287C8.19346 13.9174 8.04815 14.145 7.95635 14.3955L7.83939 14.7151C7.83076 14.7387 7.81511 14.759 7.79455 14.7734C7.77399 14.7877 7.74952 14.7954 7.72444 14.7954C7.69936 14.7954 7.67488 14.7877 7.65432 14.7734C7.63376 14.759 7.61811 14.7387 7.60948 14.7151L7.49252 14.3955C7.40072 14.145 7.25542 13.9174 7.06672 13.7287C6.87802 13.54 6.65046 13.3947 6.39988 13.3029L6.08031 13.1859C6.05676 13.1773 6.03643 13.1617 6.02207 13.1411C6.0077 13.1205 6 13.0961 6 13.071C6 13.0459 6.0077 13.0214 6.02207 13.0009C6.03643 12.9803 6.05676 12.9647 6.08031 12.956L6.39988 12.8391C6.65046 12.7473 6.87802 12.602 7.06672 12.4133C7.25542 12.2246 7.40072 11.997 7.49252 11.7464L7.60948 11.4269Z" fill="white"/>
<path fill-rule="evenodd" clip-rule="evenodd" d="M19.5158 3.48365C18.5869 2.5548 17.0566 2.64062 16.2375 3.66751L10.137 11.3148C8.22147 10.1274 5.62828 10.4041 3.91356 12.1188C1.92367 14.1087 0.560154 18.5918 2.48426 20.5159C4.40837 22.44 8.89147 21.0765 10.8814 19.0866C12.5962 17.3717 12.8728 14.7783 11.6851 12.8627L19.332 6.76187C20.3588 5.94268 20.4446 4.41246 19.5158 3.48365Z" fill="#FF9785"/>
<path fill-rule="evenodd" clip-rule="evenodd" d="M12.74 9.83567C12.3186 9.78843 11.6372 9.79234 11.4381 10.1668L11.2002 10.614C10.8085 11.3507 9.96401 11.7241 9.15551 11.5182C8.06567 11.1834 7.56992 9.92232 8.13997 8.93496L9.42308 6.71255C9.63685 6.3423 9.96879 6.08281 10.3438 5.95424C11.0072 5.72674 11.9992 5.26016 12.6998 5.29378L21.0482 5.69431C21.5812 5.71989 22.0002 6.15951 22.0002 6.69316V9.75516C22.0002 10.3516 21.4815 10.8154 20.8889 10.7489L20.3332 10.6867C19.4123 10.5835 18.5649 11.1861 17.7663 11.6561C17.5947 11.7571 17.41 11.8382 17.2154 11.8962C16.9448 11.9768 16.7008 12.1369 16.5012 12.3366L14.0355 14.8023C13.3166 15.5211 12.1512 15.5211 11.4324 14.8023C10.7135 14.0835 10.7135 12.918 11.4324 12.1992L13.0139 10.6176C13.2864 10.3452 13.1229 9.87858 12.74 9.83567Z" fill="white"/>
<path d="M6.86668 12.0931C6.87668 12.0658 6.89484 12.0423 6.91868 12.0256C6.94253 12.0089 6.97091 12 7 12C7.02909 12 7.05747 12.0089 7.08132 12.0256C7.10516 12.0423 7.12332 12.0658 7.13332 12.0931L7.26898 12.4638C7.37544 12.7544 7.54397 13.0183 7.76282 13.2372C7.98168 13.456 8.2456 13.6246 8.53622 13.731L8.90686 13.8667C8.93417 13.8767 8.95775 13.8948 8.97441 13.9187C8.99107 13.9425 9 13.9709 9 14C9 14.0291 8.99107 14.0575 8.97441 14.0813C8.95775 14.1052 8.93417 14.1233 8.90686 14.1333L8.53622 14.269C8.2456 14.3754 7.98168 14.544 7.76282 14.7628C7.54397 14.9817 7.37544 15.2456 7.26898 15.5362L7.13332 15.9069C7.12332 15.9342 7.10516 15.9577 7.08132 15.9744C7.05747 15.9911 7.02909 16 7 16C6.97091 16 6.94253 15.9911 6.91868 15.9744C6.89484 15.9577 6.87668 15.9342 6.86668 15.9069L6.73102 15.5362C6.62456 15.2456 6.45603 14.9817 6.23718 14.7628C6.01832 14.544 5.7544 14.3754 5.46378 14.269L5.09314 14.1333C5.06583 14.1233 5.04225 14.1052 5.02559 14.0813C5.00893 14.0575 5 14.0291 5 14C5 13.9709 5.00893 13.9425 5.02559 13.9187C5.04225 13.8948 5.06583 13.8767 5.09314 13.8667L5.46378 13.731C5.7544 13.6246 6.01832 13.456 6.23718 13.2372C6.45603 13.0183 6.62456 12.7544 6.73102 12.4638L6.86668 12.0931Z" fill="white"/>
</g>
<defs>
<clipPath id="clip0_446_18188">
<rect width="24" height="24" fill="white"/>
</clipPath>
</defs>
</svg>
