<svg width="25" height="25" viewBox="0 0 25 25" fill="none" xmlns="http://www.w3.org/2000/svg">
<mask id="path-1-inside-1_442_19481" fill="white">
<path fill-rule="evenodd" clip-rule="evenodd" d="M12.504 23.27C18.7154 23.2678 23.75 18.2319 23.75 12.02C23.75 5.80682 18.7132 0.77002 12.5 0.77002C6.2868 0.77002 1.25 5.80682 1.25 12.02C1.25 18.2332 6.2868 23.27 12.5 23.27H12.504ZM12.5001 21.6629C12.6224 21.6629 12.8732 21.6119 13.2479 21.2421C13.6296 20.8654 14.047 20.2407 14.4322 19.3419C14.8239 18.428 15.1496 17.3071 15.3747 16.0378H9.6256C9.85072 17.3071 10.1764 18.428 10.5681 19.3419C10.9533 20.2407 11.3707 20.8654 11.7523 21.2421C12.1271 21.6119 12.3779 21.6629 12.5001 21.6629ZM9.40429 14.4307C9.32732 13.6625 9.28585 12.8555 9.28585 12.02C9.28585 11.1845 9.32732 10.3776 9.40429 9.60934H15.596C15.673 10.3776 15.7144 11.1845 15.7144 12.02C15.7144 12.8555 15.673 13.6625 15.596 14.4307H9.40429ZM17.005 16.0378C16.6561 18.1667 16.0379 19.9849 15.2477 21.2657C17.9268 20.4708 20.1187 18.5431 21.2685 16.0378H17.005ZM21.8391 14.4307H17.2106C17.2833 13.6541 17.3216 12.8475 17.3216 12.02C17.3216 11.1926 17.2833 10.386 17.2106 9.60934H21.8391C22.0374 10.3798 22.1429 11.1876 22.1429 12.02C22.1429 12.8524 22.0374 13.6602 21.8391 14.4307ZM7.78966 14.4307H3.16092C2.96261 13.6602 2.85714 12.8524 2.85714 12.02C2.85714 11.1876 2.96262 10.3798 3.16093 9.60934H7.78966C7.717 10.386 7.67871 11.1926 7.67871 12.02C7.67871 12.8475 7.717 13.6541 7.78966 14.4307ZM3.73146 16.0378H7.99528C8.34424 18.1667 8.9624 19.985 9.75261 21.2658C7.07342 20.4709 4.88134 18.5432 3.73146 16.0378ZM9.62561 8.0022H15.3747C15.1496 6.73289 14.8239 5.61204 14.4322 4.69815C14.047 3.79933 13.6296 3.17463 13.2479 2.79798C12.8732 2.42815 12.6224 2.37716 12.5001 2.37716C12.3779 2.37716 12.1271 2.42815 11.7523 2.79798C11.3707 3.17463 10.9533 3.79933 10.5681 4.69815C10.1764 5.61204 9.85073 6.73289 9.62561 8.0022ZM17.005 8.0022H21.2685C20.1187 5.49691 17.9268 3.56927 15.2477 2.7743C16.0379 4.05516 16.656 5.87337 17.005 8.0022ZM9.75261 2.77419C8.96241 4.05507 8.34424 5.87331 7.99529 8.0022H3.73148C4.88136 5.4968 7.07343 3.56911 9.75261 2.77419Z"/>
</mask>
<path fill-rule="evenodd" clip-rule="evenodd" d="M12.504 23.27C18.7154 23.2678 23.75 18.2319 23.75 12.02C23.75 5.80682 18.7132 0.77002 12.5 0.77002C6.2868 0.77002 1.25 5.80682 1.25 12.02C1.25 18.2332 6.2868 23.27 12.5 23.27H12.504ZM12.5001 21.6629C12.6224 21.6629 12.8732 21.6119 13.2479 21.2421C13.6296 20.8654 14.047 20.2407 14.4322 19.3419C14.8239 18.428 15.1496 17.3071 15.3747 16.0378H9.6256C9.85072 17.3071 10.1764 18.428 10.5681 19.3419C10.9533 20.2407 11.3707 20.8654 11.7523 21.2421C12.1271 21.6119 12.3779 21.6629 12.5001 21.6629ZM9.40429 14.4307C9.32732 13.6625 9.28585 12.8555 9.28585 12.02C9.28585 11.1845 9.32732 10.3776 9.40429 9.60934H15.596C15.673 10.3776 15.7144 11.1845 15.7144 12.02C15.7144 12.8555 15.673 13.6625 15.596 14.4307H9.40429ZM17.005 16.0378C16.6561 18.1667 16.0379 19.9849 15.2477 21.2657C17.9268 20.4708 20.1187 18.5431 21.2685 16.0378H17.005ZM21.8391 14.4307H17.2106C17.2833 13.6541 17.3216 12.8475 17.3216 12.02C17.3216 11.1926 17.2833 10.386 17.2106 9.60934H21.8391C22.0374 10.3798 22.1429 11.1876 22.1429 12.02C22.1429 12.8524 22.0374 13.6602 21.8391 14.4307ZM7.78966 14.4307H3.16092C2.96261 13.6602 2.85714 12.8524 2.85714 12.02C2.85714 11.1876 2.96262 10.3798 3.16093 9.60934H7.78966C7.717 10.386 7.67871 11.1926 7.67871 12.02C7.67871 12.8475 7.717 13.6541 7.78966 14.4307ZM3.73146 16.0378H7.99528C8.34424 18.1667 8.9624 19.985 9.75261 21.2658C7.07342 20.4709 4.88134 18.5432 3.73146 16.0378ZM9.62561 8.0022H15.3747C15.1496 6.73289 14.8239 5.61204 14.4322 4.69815C14.047 3.79933 13.6296 3.17463 13.2479 2.79798C12.8732 2.42815 12.6224 2.37716 12.5001 2.37716C12.3779 2.37716 12.1271 2.42815 11.7523 2.79798C11.3707 3.17463 10.9533 3.79933 10.5681 4.69815C10.1764 5.61204 9.85073 6.73289 9.62561 8.0022ZM17.005 8.0022H21.2685C20.1187 5.49691 17.9268 3.56927 15.2477 2.7743C16.0379 4.05516 16.656 5.87337 17.005 8.0022ZM9.75261 2.77419C8.96241 4.05507 8.34424 5.87331 7.99529 8.0022H3.73148C4.88136 5.4968 7.07343 3.56911 9.75261 2.77419Z" fill="#FF7E84" stroke="#FF7E84" stroke-width="1.875" stroke-linecap="round" mask="url(#path-1-inside-1_442_19481)"/>
</svg>
