<svg width="24" height="24" viewBox="0 0 24 24" fill="none" xmlns="http://www.w3.org/2000/svg">
<path fill-rule="evenodd" clip-rule="evenodd" d="M11.0381 4.75C7.56931 4.75 4.75 7.57926 4.75 11.0783C4.75 14.5774 7.56931 17.4067 11.0381 17.4067C14.5069 17.4067 17.3262 14.5774 17.3262 11.0783C17.3262 7.57926 14.5069 4.75 11.0381 4.75ZM3.25 11.0783C3.25 6.7589 6.73284 3.25 11.0381 3.25C15.3434 3.25 18.8262 6.7589 18.8262 11.0783C18.8262 12.9457 18.1753 14.6616 17.0883 16.008L20.5318 19.4712C20.8239 19.7649 20.8225 20.2398 20.5288 20.5318C20.2351 20.8239 19.7602 20.8225 19.4682 20.5288L16.0389 17.08C14.6865 18.2199 12.9428 18.9067 11.0381 18.9067C6.73284 18.9067 3.25 15.3978 3.25 11.0783Z" fill="#5A5C63"/>
</svg>
