<svg width="34" height="33" viewBox="0 0 34 33" fill="none" xmlns="http://www.w3.org/2000/svg">
<path fill-rule="evenodd" clip-rule="evenodd" d="M15.6405 17.3954C15.5487 17.4915 15.4923 17.6154 15.4762 17.7473C15.229 19.7636 14.2267 22.6693 11.3181 24.4108C6.81325 27.108 1.86088 24.5483 1.4971 23.8948C0.780087 22.607 5.07545 19.1865 7.576 17.6893C9.24372 16.6908 12.342 15.2996 14.1241 15.1729C14.2869 15.1613 14.4422 15.0967 14.555 14.9787L14.7567 14.7675C14.7806 14.7425 14.8066 14.7196 14.8345 14.6991L24.6355 7.48517C24.983 7.22422 25.5855 7.47214 25.9814 8.03892C26.3772 8.6057 26.4165 9.27672 26.069 9.53767L16.268 16.7516C16.2401 16.7721 16.2141 16.795 16.1902 16.82L15.6405 17.3954Z" fill="url(#paint0_linear_6995_10527)"/>
<path d="M14.3142 15.8728C14.612 16.4078 12.346 18.8619 8.9856 20.8739C5.62517 22.8859 2.44279 23.6939 2.14495 23.159C1.84711 22.624 4.25054 20.4168 7.61097 18.4048C10.9714 16.3928 14.0163 15.3379 14.3142 15.8728Z" fill="url(#paint1_linear_6995_10527)"/>
<path d="M4.73993 6.81217C4.76266 6.74784 4.80389 6.6923 4.85805 6.65306C4.91221 6.61382 4.97668 6.59277 5.04275 6.59277C5.10882 6.59277 5.1733 6.61382 5.22746 6.65306C5.28162 6.6923 5.32285 6.74784 5.34558 6.81217L5.65371 7.68521C5.89553 8.36977 6.27831 8.99144 6.77541 9.50695C7.27251 10.0225 7.87198 10.4194 8.53208 10.6702L9.37394 10.9897C9.43598 11.0133 9.48954 11.0561 9.52738 11.1122C9.56522 11.1684 9.58551 11.2353 9.58551 11.3038C9.58551 11.3723 9.56522 11.4392 9.52738 11.4953C9.48954 11.5515 9.43598 11.5943 9.37394 11.6178L8.53208 11.9374C7.87198 12.1881 7.27251 12.5851 6.77541 13.1006C6.27831 13.6161 5.89553 14.2378 5.65371 14.9223L5.34558 15.7954C5.32285 15.8597 5.28162 15.9153 5.22746 15.9545C5.1733 15.9937 5.10882 16.0148 5.04275 16.0148C4.97668 16.0148 4.91221 15.9937 4.85805 15.9545C4.80389 15.9153 4.76266 15.8597 4.73993 15.7954L4.4318 14.9223C4.18998 14.2378 3.80719 13.6161 3.3101 13.1006C2.813 12.5851 2.21353 12.1881 1.55343 11.9374L0.711565 11.6178C0.649528 11.5943 0.595969 11.5515 0.55813 11.4953C0.520292 11.4392 0.5 11.3723 0.5 11.3038C0.5 11.2353 0.520292 11.1684 0.55813 11.1122C0.595969 11.0561 0.649528 11.0133 0.711565 10.9897L1.55343 10.6702C2.21353 10.4194 2.813 10.0225 3.3101 9.50695C3.80719 8.99144 4.18998 8.36977 4.4318 7.68521L4.73993 6.81217Z" fill="url(#paint2_linear_6995_10527)"/>
<path fill-rule="evenodd" clip-rule="evenodd" d="M15.6406 17.3959C15.5487 17.492 15.4923 17.6159 15.4761 17.7478C15.2288 19.7641 14.2265 22.6694 11.3181 24.4108C6.81325 27.108 1.86088 24.5483 1.4971 23.8949C0.780087 22.607 5.07545 19.1865 7.576 17.6893C9.24389 16.6907 12.3426 15.2994 14.1246 15.1728C14.2875 15.1613 14.4428 15.0968 14.5556 14.9787L14.7592 14.7657C14.783 14.7407 14.809 14.7178 14.8368 14.6974L24.6496 7.47466C24.9974 7.2134 25.6003 7.46107 25.9961 8.02785C26.392 8.59463 26.4309 9.2659 26.083 9.52716L16.2703 16.7499C16.2425 16.7703 16.2165 16.7932 16.1927 16.8182L15.6406 17.3959Z" fill="url(#paint3_linear_6995_10527)"/>
<path d="M14.3142 15.8728C14.612 16.4078 12.346 18.8619 8.9856 20.8739C5.62517 22.8859 2.44279 23.6939 2.14495 23.159C1.84711 22.624 4.25054 20.4168 7.61097 18.4048C10.9714 16.3928 14.0163 15.3379 14.3142 15.8728Z" fill="url(#paint4_linear_6995_10527)"/>
<path d="M4.73993 6.81217C4.76266 6.74784 4.80389 6.6923 4.85805 6.65306C4.91221 6.61382 4.97668 6.59277 5.04275 6.59277C5.10882 6.59277 5.1733 6.61382 5.22746 6.65306C5.28162 6.6923 5.32285 6.74784 5.34558 6.81217L5.65371 7.68521C5.89553 8.36977 6.27831 8.99144 6.77541 9.50695C7.27251 10.0225 7.87198 10.4194 8.53208 10.6702L9.37394 10.9897C9.43598 11.0133 9.48954 11.0561 9.52738 11.1122C9.56522 11.1684 9.58551 11.2353 9.58551 11.3038C9.58551 11.3723 9.56522 11.4392 9.52738 11.4953C9.48954 11.5515 9.43598 11.5943 9.37394 11.6178L8.53208 11.9374C7.87198 12.1881 7.27251 12.5851 6.77541 13.1006C6.27831 13.6161 5.89553 14.2378 5.65371 14.9223L5.34558 15.7954C5.32285 15.8597 5.28162 15.9153 5.22746 15.9545C5.1733 15.9937 5.10882 16.0148 5.04275 16.0148C4.97668 16.0148 4.91221 15.9937 4.85805 15.9545C4.80389 15.9153 4.76266 15.8597 4.73993 15.7954L4.4318 14.9223C4.18998 14.2378 3.80719 13.6161 3.3101 13.1006C2.813 12.5851 2.21353 12.1881 1.55343 11.9374L0.711565 11.6178C0.649528 11.5943 0.595969 11.5515 0.55813 11.4953C0.520292 11.4392 0.5 11.3723 0.5 11.3038C0.5 11.2353 0.520292 11.1684 0.55813 11.1122C0.595969 11.0561 0.649528 11.0133 0.711565 10.9897L1.55343 10.6702C2.21353 10.4194 2.813 10.0225 3.3101 9.50695C3.80719 8.99144 4.18998 8.36977 4.4318 7.68521L4.73993 6.81217Z" fill="url(#paint5_linear_6995_10527)"/>
<path d="M25.1595 21.9785H20.8255V20.8984H25.1595V21.9785ZM30.1705 26.3809H28.9264V17.7676H28.8717L26.4655 19.3672V18.123L28.9264 16.4824H30.1705V26.3809Z" fill="white"/>
<defs>
<linearGradient id="paint0_linear_6995_10527" x1="25.7016" y1="9.28536" x2="-1.51802" y2="24.7332" gradientUnits="userSpaceOnUse">
<stop stop-color="white" stop-opacity="0.1"/>
<stop offset="1" stop-color="white"/>
</linearGradient>
<linearGradient id="paint1_linear_6995_10527" x1="2.21368" y1="23.2824" x2="14.6001" y2="16.3865" gradientUnits="userSpaceOnUse">
<stop stop-color="#FF5235" stop-opacity="0.15"/>
<stop offset="1" stop-color="#FF5235" stop-opacity="0.45"/>
</linearGradient>
<linearGradient id="paint2_linear_6995_10527" x1="0.5" y1="6.59277" x2="9.99734" y2="15.7509" gradientUnits="userSpaceOnUse">
<stop stop-color="white"/>
<stop offset="1" stop-color="white" stop-opacity="0.4"/>
</linearGradient>
<linearGradient id="paint3_linear_6995_10527" x1="25.7016" y1="9.2854" x2="-1.51801" y2="24.7333" gradientUnits="userSpaceOnUse">
<stop stop-color="white" stop-opacity="0.1"/>
<stop offset="1" stop-color="white"/>
</linearGradient>
<linearGradient id="paint4_linear_6995_10527" x1="2.21368" y1="23.2824" x2="14.6001" y2="16.3865" gradientUnits="userSpaceOnUse">
<stop stop-color="#FF5235" stop-opacity="0.15"/>
<stop offset="1" stop-color="#FF5235" stop-opacity="0.45"/>
</linearGradient>
<linearGradient id="paint5_linear_6995_10527" x1="0.5" y1="6.59277" x2="9.99734" y2="15.7509" gradientUnits="userSpaceOnUse">
<stop stop-color="white"/>
<stop offset="1" stop-color="white" stop-opacity="0.4"/>
</linearGradient>
</defs>
</svg>
