<svg width="26" height="26" viewBox="0 0 26 26" fill="none" xmlns="http://www.w3.org/2000/svg">
<path fill-rule="evenodd" clip-rule="evenodd" d="M5.41667 3.25C4.84203 3.25 4.29093 3.47827 3.8846 3.8846C3.47827 4.29093 3.25 4.84203 3.25 5.41667V20.5833C3.25 21.158 3.47827 21.7091 3.8846 22.1154C4.29093 22.5217 4.84203 22.75 5.41667 22.75H20.5833C21.158 22.75 21.7091 22.5217 22.1154 22.1154C22.5217 21.7091 22.75 21.158 22.75 20.5833V5.41667C22.75 4.84203 22.5217 4.29093 22.1154 3.8846C21.7091 3.47827 21.158 3.25 20.5833 3.25H5.41667ZM18.3625 10.6123C18.5658 10.4092 18.68 10.1336 18.6801 9.84626C18.6802 9.55888 18.5662 9.28324 18.363 9.07996C18.1599 8.87668 17.8843 8.76242 17.597 8.76232C17.3096 8.76222 17.0339 8.87628 16.8307 9.07942L11.4682 14.4419L9.17042 12.1442C9.06984 12.0435 8.95041 11.9637 8.81897 11.9092C8.68753 11.8547 8.54664 11.8266 8.40434 11.8265C8.11697 11.8264 7.84132 11.9405 7.63804 12.1436C7.43476 12.3468 7.32051 12.6223 7.32041 12.9097C7.3203 13.1971 7.43437 13.4727 7.6375 13.676L10.6253 16.6638C10.736 16.7745 10.8674 16.8624 11.012 16.9223C11.1566 16.9822 11.3116 17.0131 11.4682 17.0131C11.6247 17.0131 11.7797 16.9822 11.9243 16.9223C12.0689 16.8624 12.2003 16.7745 12.311 16.6638L18.3625 10.6123Z" fill="#FF5235"/>
</svg>
