<svg width="24" height="24" viewBox="0 0 24 24" fill="none" xmlns="http://www.w3.org/2000/svg">
<path d="M5.27201 18.283C5.35535 18.11 5.53043 18 5.72248 18H17.2775C17.4696 18 17.6446 18.11 17.728 18.283L19.6547 22.283C19.8146 22.615 19.5727 23 19.2042 23H3.79581C3.42734 23 3.18545 22.615 3.34534 22.283L5.27201 18.283Z" fill="#FFCEC6"/>
<path fill-rule="evenodd" clip-rule="evenodd" d="M11.8588 3C15.6468 3 18.7176 6.17666 18.7176 10.0953C18.7176 13.2252 16.2984 15.5952 14.1468 17.7031C13.2831 18.5492 12.4625 19.3531 11.8588 20.147C11.2551 19.3531 10.4345 18.5492 9.57081 17.7031C7.41919 15.5952 5 13.2252 5 10.0953C5 6.17666 8.07077 3 11.8588 3ZM11.8588 12.4308C13.2793 12.4308 14.4308 11.2793 14.4308 9.85879C14.4308 8.43829 13.2793 7.28674 11.8588 7.28674C10.4383 7.28674 9.28674 8.43829 9.28674 9.85879C9.28674 11.2793 10.4383 12.4308 11.8588 12.4308Z" fill="#FF5235"/>
</svg>
