<svg width="25" height="25" viewBox="0 0 25 25" fill="none" xmlns="http://www.w3.org/2000/svg">
<path fill-rule="evenodd" clip-rule="evenodd" d="M9.86222 2.42188C5.13171 2.42188 1.29688 6.25671 1.29688 10.9872C1.29688 11.4603 1.68036 11.8438 2.15341 11.8438H22.5653C23.0384 11.8438 23.4219 11.4603 23.4219 10.9872C23.4219 6.25671 19.587 2.42188 14.8565 2.42188H9.86222ZM12.125 6.125C12.3968 6.125 12.6172 5.90464 12.6172 5.63281C12.6172 5.36098 12.3968 5.14062 12.125 5.14062C11.8532 5.14062 11.6328 5.36098 11.6328 5.63281C11.6328 5.90464 11.8532 6.125 12.125 6.125ZM8.72656 7.625C8.99839 7.625 9.21875 7.40464 9.21875 7.13281C9.21875 6.86098 8.99839 6.64062 8.72656 6.64062C8.45473 6.64062 8.23438 6.86098 8.23438 7.13281C8.23438 7.40464 8.45473 7.625 8.72656 7.625ZM16.0146 7.13281C16.0146 7.40464 15.7943 7.625 15.5225 7.625C15.2506 7.625 15.0303 7.40464 15.0303 7.13281C15.0303 6.86098 15.2506 6.64062 15.5225 6.64062C15.7943 6.64062 16.0146 6.86098 16.0146 7.13281Z" fill="#00CB92"/>
<path d="M23.1875 18.1254C23.1875 20.1961 21.5089 21.8748 19.4382 21.8748L4.81183 21.8748C2.74113 21.8748 1.0625 20.1961 1.0625 18.1254C1.0625 17.9183 1.23036 17.7505 1.43743 17.7505L22.8126 17.7505C23.0196 17.7505 23.1875 17.9184 23.1875 18.1254Z" fill="#00CB92"/>
<mask id="path-3-inside-1_442_19348" fill="white">
<path d="M13.1898 12.7344H2.50781C1.95553 12.7344 1.50781 13.1821 1.50781 13.7344V15.8594C1.50781 16.4117 1.95553 16.8594 2.50781 16.8594H21.7422C22.2945 16.8594 22.7422 16.4117 22.7422 15.8594V13.1147C22.7422 12.9536 22.5615 12.8586 22.4288 12.9499L19.0309 15.2871C18.9729 15.327 18.8982 15.3335 18.8342 15.3041L13.2732 12.7526C13.2471 12.7406 13.2186 12.7344 13.1898 12.7344Z"/>
</mask>
<path d="M13.1898 12.7344H2.50781C1.95553 12.7344 1.50781 13.1821 1.50781 13.7344V15.8594C1.50781 16.4117 1.95553 16.8594 2.50781 16.8594H21.7422C22.2945 16.8594 22.7422 16.4117 22.7422 15.8594V13.1147C22.7422 12.9536 22.5615 12.8586 22.4288 12.9499L19.0309 15.2871C18.9729 15.327 18.8982 15.3335 18.8342 15.3041L13.2732 12.7526C13.2471 12.7406 13.2186 12.7344 13.1898 12.7344Z" fill="#00CB92" stroke="#00CB92" stroke-width="2" mask="url(#path-3-inside-1_442_19348)"/>
</svg>
