<svg width="24" height="24" viewBox="0 0 24 24" fill="none" xmlns="http://www.w3.org/2000/svg">
<path fill-rule="evenodd" clip-rule="evenodd" d="M9.73722 2.34375C5.00671 2.34375 1.17188 6.17858 1.17188 10.9091C1.17188 11.3821 1.55536 11.7656 2.02841 11.7656H22.4403C22.9134 11.7656 23.2969 11.3821 23.2969 10.9091C23.2969 6.17858 19.462 2.34375 14.7315 2.34375H9.73722ZM12 6.04688C12.2718 6.04688 12.4922 5.82652 12.4922 5.55469C12.4922 5.28286 12.2718 5.0625 12 5.0625C11.7282 5.0625 11.5078 5.28286 11.5078 5.55469C11.5078 5.82652 11.7282 6.04688 12 6.04688ZM8.60156 7.54688C8.87339 7.54688 9.09375 7.32652 9.09375 7.05469C9.09375 6.78286 8.87339 6.5625 8.60156 6.5625C8.32973 6.5625 8.10938 6.78286 8.10938 7.05469C8.10938 7.32652 8.32973 7.54688 8.60156 7.54688ZM15.8896 7.05469C15.8896 7.32652 15.6693 7.54688 15.3975 7.54688C15.1256 7.54688 14.9053 7.32652 14.9053 7.05469C14.9053 6.78286 15.1256 6.5625 15.3975 6.5625C15.6693 6.5625 15.8896 6.78286 15.8896 7.05469Z" fill="#FF5235"/>
<path d="M23.0625 18.0473C23.0625 20.118 21.3839 21.7966 19.3132 21.7966L4.68683 21.7966C2.61613 21.7966 0.9375 20.118 0.9375 18.0473C0.9375 17.8402 1.10536 17.6724 1.31243 17.6724L22.6876 17.6724C22.8946 17.6724 23.0625 17.8402 23.0625 18.0473Z" fill="#FF5235"/>
<mask id="path-3-inside-1_442_19350" fill="white">
<path d="M13.0648 12.6562H2.38281C1.83053 12.6562 1.38281 13.104 1.38281 13.6562V15.7812C1.38281 16.3335 1.83053 16.7812 2.38281 16.7812H21.6172C22.1695 16.7812 22.6172 16.3335 22.6172 15.7812V13.0366C22.6172 12.8755 22.4365 12.7805 22.3038 12.8718L18.9059 15.209C18.8479 15.2489 18.7732 15.2553 18.7092 15.226L13.1482 12.6745C13.1221 12.6625 13.0936 12.6562 13.0648 12.6562Z"/>
</mask>
<path d="M13.0648 12.6562H2.38281C1.83053 12.6562 1.38281 13.104 1.38281 13.6562V15.7812C1.38281 16.3335 1.83053 16.7812 2.38281 16.7812H21.6172C22.1695 16.7812 22.6172 16.3335 22.6172 15.7812V13.0366C22.6172 12.8755 22.4365 12.7805 22.3038 12.8718L18.9059 15.209C18.8479 15.2489 18.7732 15.2553 18.7092 15.226L13.1482 12.6745C13.1221 12.6625 13.0936 12.6562 13.0648 12.6562Z" fill="#FF5235" stroke="#FF5235" stroke-width="2" mask="url(#path-3-inside-1_442_19350)"/>
</svg>
