<svg width="24" height="24" viewBox="0 0 24 24" fill="none" xmlns="http://www.w3.org/2000/svg">
<path fill-rule="evenodd" clip-rule="evenodd" d="M2 2.68042V20.3603H16.2511V15.7299C16.5455 15.7858 16.8493 15.8151 17.16 15.8151C19.8328 15.8151 21.9996 13.6483 21.9996 10.9754C21.9996 8.30253 19.8328 6.13574 17.16 6.13574C16.8493 6.13574 16.5455 6.16501 16.2511 6.22094V2.68042H2ZM16.2511 13.3942V8.55664C16.5338 8.45036 16.8401 8.39223 17.16 8.39223C18.5866 8.39223 19.7431 9.54875 19.7431 10.9754C19.7431 12.402 18.5866 13.5586 17.16 13.5586C16.8401 13.5586 16.5338 13.5004 16.2511 13.3942Z" fill="#FF5235"/>
</svg>
