<svg width="25" height="25" viewBox="0 0 25 25" fill="none" xmlns="http://www.w3.org/2000/svg">
<path fill-rule="evenodd" clip-rule="evenodd" d="M7.44678 5.71432C7.44678 5.71432 -0.397093 8.39775 0.0157426 15.3643C0.428578 22.3309 9.56295 23.0534 11.9368 23.0534C14.3106 23.0534 23.8574 23.0534 24.2182 15.7772C24.5791 8.50096 17.0968 5.71432 17.0968 5.71432C17.0968 5.71432 16.9682 3.41792 15.7035 3.08249C14.4388 2.74706 13.6139 4.07588 13.6139 4.07588C13.6139 4.07588 14.1819 1.43115 12.2206 1.43115C10.2592 1.43115 10.7757 4.01137 10.7757 4.01137C10.7757 4.01137 10.1435 2.78577 8.73689 3.08249C7.33028 3.37922 7.44678 5.71432 7.44678 5.71432ZM9.01294 8.09549C8.6536 7.81475 8.13472 7.87846 7.85397 8.2378L5.60628 11.1147C5.32554 11.474 5.38925 11.9929 5.74859 12.2737C6.10792 12.5544 6.62681 12.4907 6.90756 12.1314L9.15525 9.25446C9.43599 8.89513 9.37228 8.37624 9.01294 8.09549ZM11.29 9.13329C11.29 8.67728 11.6597 8.30762 12.1157 8.30762C12.5717 8.30762 12.9414 8.67728 12.9414 9.13329V12.7841C12.9414 13.2401 12.5717 13.6098 12.1157 13.6098C11.6597 13.6098 11.29 13.2401 11.29 12.7841V9.13329ZM15.3733 8.09543C15.014 8.37617 14.9502 8.89506 15.231 9.2544L17.4787 12.1313C17.7594 12.4906 18.2783 12.5544 18.6376 12.2736C18.997 11.9929 19.0607 11.474 18.78 11.1146L16.5323 8.23773C16.2515 7.87839 15.7326 7.81468 15.3733 8.09543Z" fill="#6A92FF"/>
</svg>
