<svg width="25" height="24" viewBox="0 0 25 24" fill="none" xmlns="http://www.w3.org/2000/svg">
<path fill-rule="evenodd" clip-rule="evenodd" d="M12.4297 2C16.848 2 20.4297 5.70521 20.4297 10.2759C20.4297 13.9265 17.608 16.6909 15.0984 19.1495C14.0909 20.1364 13.1338 21.0741 12.4297 22C11.7256 21.0741 10.7684 20.1364 9.76102 19.1495C7.2514 16.6909 4.42969 13.9265 4.42969 10.2759C4.42969 5.70521 8.01139 2 12.4297 2ZM12.4297 13C14.0865 13 15.4297 11.6569 15.4297 10C15.4297 8.34315 14.0865 7 12.4297 7C10.7728 7 9.42969 8.34315 9.42969 10C9.42969 11.6569 10.7728 13 12.4297 13Z" fill="white"/>
</svg>
