<svg width="25" height="25" viewBox="0 0 25 25" fill="none" xmlns="http://www.w3.org/2000/svg">
<path fill-rule="evenodd" clip-rule="evenodd" d="M8.07178 5.65621C8.07178 5.65621 0.227907 8.33964 0.640743 15.3062C1.05358 22.2728 10.1879 22.9953 12.5618 22.9953C14.9356 22.9953 24.4824 22.9953 24.8432 15.7191C25.2041 8.44285 17.7218 5.65621 17.7218 5.65621C17.7218 5.65621 17.5932 3.35982 16.3285 3.02439C15.0638 2.68896 14.2389 4.01777 14.2389 4.01777C14.2389 4.01777 14.8069 1.37305 12.8456 1.37305C10.8842 1.37305 11.4007 3.95327 11.4007 3.95327C11.4007 3.95327 10.7685 2.72766 9.36189 3.02439C7.95528 3.32111 8.07178 5.65621 8.07178 5.65621ZM9.63794 8.03739C9.2786 7.75664 8.75972 7.82035 8.47897 8.17969L6.23128 11.0566C5.95054 11.4159 6.01425 11.9348 6.37359 12.2156C6.73292 12.4963 7.25181 12.4326 7.53256 12.0733L9.78025 9.19636C10.061 8.83702 9.99728 8.31813 9.63794 8.03739ZM11.915 9.07518C11.915 8.61918 12.2847 8.24951 12.7407 8.24951C13.1967 8.24951 13.5664 8.61918 13.5664 9.07518V12.726C13.5664 13.182 13.1967 13.5517 12.7407 13.5517C12.2847 13.5517 11.915 13.182 11.915 12.726V9.07518ZM15.9983 8.03732C15.639 8.31807 15.5752 8.83696 15.856 9.19629L18.1037 12.0732C18.3844 12.4325 18.9033 12.4962 19.2626 12.2155C19.622 11.9348 19.6857 11.4159 19.405 11.0565L17.1573 8.17962C16.8765 7.82029 16.3576 7.75658 15.9983 8.03732Z" fill="#FF7E35"/>
</svg>
