<svg width="24" height="24" viewBox="0 0 24 24" fill="none" xmlns="http://www.w3.org/2000/svg">
<path d="M6.57151 21.5141C6.04508 21.5141 5.59459 21.3268 5.22003 20.9522C4.84546 20.5777 4.65786 20.1268 4.65723 19.5998V10.0283C4.65723 9.50192 4.84483 9.05143 5.22003 8.67686C5.59523 8.3023 6.04572 8.1147 6.57151 8.11406H7.52866V6.19978C7.52866 4.87573 7.99542 3.74726 8.92896 2.81436C9.86249 1.88147 10.991 1.4147 12.3144 1.41406C13.6378 1.41343 14.7666 1.88019 15.7007 2.81436C16.6349 3.74853 17.1014 4.87701 17.1001 6.19978V8.11406H18.0572C18.5837 8.11406 19.0345 8.30166 19.4097 8.67686C19.7849 9.05206 19.9722 9.50256 19.9715 10.0283V19.5998C19.9715 20.1262 19.7842 20.577 19.4097 20.9522C19.0351 21.3274 18.5843 21.5147 18.0572 21.5141H6.57151ZM6.57151 19.5998H18.0572V10.0283H6.57151V19.5998ZM12.3144 16.7283C12.8408 16.7283 13.2916 16.5411 13.6668 16.1665C14.042 15.7919 14.2293 15.3411 14.2287 14.8141C14.228 14.287 14.0407 13.8365 13.6668 13.4626C13.2929 13.0887 12.8421 12.9011 12.3144 12.8998C11.7867 12.8985 11.3362 13.0861 10.9629 13.4626C10.5896 13.8391 10.402 14.2896 10.4001 14.8141C10.3982 15.3386 10.5858 15.7894 10.9629 16.1665C11.34 16.5436 11.7905 16.7309 12.3144 16.7283ZM9.44294 8.11406H15.1858V6.19978C15.1858 5.40216 14.9066 4.72418 14.3483 4.16585C13.79 3.60752 13.112 3.32835 12.3144 3.32835C11.5168 3.32835 10.8388 3.60752 10.2804 4.16585C9.72211 4.72418 9.44294 5.40216 9.44294 6.19978V8.11406Z" fill="white"/>
</svg>
