<svg width="34" height="32" viewBox="0 0 34 32" fill="none" xmlns="http://www.w3.org/2000/svg">
<path fill-rule="evenodd" clip-rule="evenodd" d="M15.6406 17.2379C15.5488 17.334 15.4924 17.4579 15.4762 17.5898C15.2291 19.6061 14.2268 22.5117 11.3181 24.2533C6.81331 26.9504 1.86094 24.3907 1.49716 23.7373C0.780148 22.4494 5.07552 19.0289 7.57606 17.5318C9.24379 16.5333 12.3421 15.1421 14.1241 15.0153C14.287 15.0038 14.4423 14.9392 14.5551 14.8211L14.7568 14.61C14.7807 14.585 14.8067 14.5621 14.8345 14.5416L24.6356 7.32764C24.983 7.06668 25.5856 7.31461 25.9814 7.88139C26.3773 8.44817 26.4165 9.11919 26.0691 9.38014L16.268 16.5941C16.2402 16.6146 16.2142 16.6375 16.1903 16.6625L15.6406 17.2379Z" fill="url(#paint0_linear_457_17945)"/>
<path d="M14.3142 15.7154C14.612 16.2504 12.346 18.7045 8.9856 20.7165C5.62517 22.7285 2.44279 23.5365 2.14495 23.0015C1.84711 22.4666 4.25054 20.2594 7.61097 18.2474C10.9714 16.2354 14.0163 15.1805 14.3142 15.7154Z" fill="url(#paint1_linear_457_17945)"/>
<path d="M4.73993 6.65476C4.76266 6.59043 4.80389 6.53489 4.85805 6.49565C4.91221 6.45641 4.97668 6.43536 5.04275 6.43536C5.10882 6.43536 5.1733 6.45641 5.22746 6.49565C5.28162 6.53489 5.32285 6.59043 5.34558 6.65476L5.65371 7.5278C5.89553 8.21236 6.27831 8.83403 6.77541 9.34954C7.27251 9.86505 7.87198 10.262 8.53208 10.5128L9.37394 10.8323C9.43598 10.8559 9.48954 10.8987 9.52738 10.9548C9.56522 11.011 9.58551 11.0779 9.58551 11.1464C9.58551 11.2149 9.56522 11.2817 9.52738 11.3379C9.48954 11.3941 9.43598 11.4368 9.37394 11.4604L8.53208 11.78C7.87198 12.0307 7.27251 12.4277 6.77541 12.9432C6.27831 13.4587 5.89553 14.0804 5.65371 14.7649L5.34558 15.638C5.32285 15.7023 5.28162 15.7578 5.22746 15.7971C5.1733 15.8363 5.10882 15.8574 5.04275 15.8574C4.97668 15.8574 4.91221 15.8363 4.85805 15.7971C4.80389 15.7578 4.76266 15.7023 4.73993 15.638L4.4318 14.7649C4.18998 14.0804 3.80719 13.4587 3.3101 12.9432C2.813 12.4277 2.21353 12.0307 1.55343 11.78L0.711565 11.4604C0.649528 11.4368 0.595969 11.3941 0.55813 11.3379C0.520292 11.2817 0.5 11.2149 0.5 11.1464C0.5 11.0779 0.520292 11.011 0.55813 10.9548C0.595969 10.8987 0.649528 10.8559 0.711565 10.8323L1.55343 10.5128C2.21353 10.262 2.813 9.86505 3.3101 9.34954C3.80719 8.83403 4.18998 8.21236 4.4318 7.5278L4.73993 6.65476Z" fill="url(#paint2_linear_457_17945)"/>
<path fill-rule="evenodd" clip-rule="evenodd" d="M15.6406 17.2384C15.5488 17.3345 15.4923 17.4584 15.4761 17.5903C15.2289 19.6066 14.2265 22.5119 11.3181 24.2533C6.81331 26.9505 1.86094 24.3908 1.49716 23.7373C0.780148 22.4494 5.07552 19.029 7.57606 17.5318C9.24395 16.5332 12.3427 15.1418 14.1247 15.0153C14.2875 15.0038 14.4428 14.9392 14.5556 14.8212L14.7592 14.6081C14.7831 14.5832 14.8091 14.5603 14.8369 14.5398L24.6496 7.31713C24.9975 7.05587 25.6003 7.30354 25.9962 7.87032C26.392 8.4371 26.431 9.10837 26.0831 9.36963L16.2704 16.5923C16.2426 16.6128 16.2166 16.6357 16.1927 16.6606L15.6406 17.2384Z" fill="url(#paint3_linear_457_17945)"/>
<path d="M14.3142 15.7154C14.612 16.2504 12.346 18.7045 8.9856 20.7165C5.62517 22.7285 2.44279 23.5365 2.14495 23.0015C1.84711 22.4666 4.25054 20.2594 7.61097 18.2474C10.9714 16.2354 14.0163 15.1805 14.3142 15.7154Z" fill="url(#paint4_linear_457_17945)"/>
<path d="M4.73993 6.65476C4.76266 6.59043 4.80389 6.53489 4.85805 6.49565C4.91221 6.45641 4.97668 6.43536 5.04275 6.43536C5.10882 6.43536 5.1733 6.45641 5.22746 6.49565C5.28162 6.53489 5.32285 6.59043 5.34558 6.65476L5.65371 7.5278C5.89553 8.21236 6.27831 8.83403 6.77541 9.34954C7.27251 9.86505 7.87198 10.262 8.53208 10.5128L9.37394 10.8323C9.43598 10.8559 9.48954 10.8987 9.52738 10.9548C9.56522 11.011 9.58551 11.0779 9.58551 11.1464C9.58551 11.2149 9.56522 11.2817 9.52738 11.3379C9.48954 11.3941 9.43598 11.4368 9.37394 11.4604L8.53208 11.78C7.87198 12.0307 7.27251 12.4277 6.77541 12.9432C6.27831 13.4587 5.89553 14.0804 5.65371 14.7649L5.34558 15.638C5.32285 15.7023 5.28162 15.7578 5.22746 15.7971C5.1733 15.8363 5.10882 15.8574 5.04275 15.8574C4.97668 15.8574 4.91221 15.8363 4.85805 15.7971C4.80389 15.7578 4.76266 15.7023 4.73993 15.638L4.4318 14.7649C4.18998 14.0804 3.80719 13.4587 3.3101 12.9432C2.813 12.4277 2.21353 12.0307 1.55343 11.78L0.711565 11.4604C0.649528 11.4368 0.595969 11.3941 0.55813 11.3379C0.520292 11.2817 0.5 11.2149 0.5 11.1464C0.5 11.0779 0.520292 11.011 0.55813 10.9548C0.595969 10.8987 0.649528 10.8559 0.711565 10.8323L1.55343 10.5128C2.21353 10.262 2.813 9.86505 3.3101 9.34954C3.80719 8.83403 4.18998 8.21236 4.4318 7.5278L4.73993 6.65476Z" fill="url(#paint5_linear_457_17945)"/>
<path d="M25.1595 20.7412V21.8213H20.8255V20.7412H25.1595ZM30.1705 16.3252V26.2236H28.9264V17.6104H28.8717L26.4655 19.21V17.9658L28.9264 16.3252H30.1705Z" fill="white"/>
<defs>
<linearGradient id="paint0_linear_457_17945" x1="25.7017" y1="9.12783" x2="-1.51796" y2="24.5757" gradientUnits="userSpaceOnUse">
<stop stop-color="white" stop-opacity="0.1"/>
<stop offset="1" stop-color="white"/>
</linearGradient>
<linearGradient id="paint1_linear_457_17945" x1="2.21368" y1="23.125" x2="14.6001" y2="16.2291" gradientUnits="userSpaceOnUse">
<stop stop-color="#171719" stop-opacity="0.15"/>
<stop offset="1" stop-color="#171719" stop-opacity="0.45"/>
</linearGradient>
<linearGradient id="paint2_linear_457_17945" x1="0.5" y1="6.43536" x2="9.99734" y2="15.5935" gradientUnits="userSpaceOnUse">
<stop stop-color="white"/>
<stop offset="1" stop-color="white" stop-opacity="0.4"/>
</linearGradient>
<linearGradient id="paint3_linear_457_17945" x1="25.7017" y1="9.12787" x2="-1.51795" y2="24.5757" gradientUnits="userSpaceOnUse">
<stop stop-color="white" stop-opacity="0.1"/>
<stop offset="1" stop-color="white"/>
</linearGradient>
<linearGradient id="paint4_linear_457_17945" x1="2.21368" y1="23.125" x2="14.6001" y2="16.2291" gradientUnits="userSpaceOnUse">
<stop stop-color="#171719" stop-opacity="0.15"/>
<stop offset="1" stop-color="#171719" stop-opacity="0.45"/>
</linearGradient>
<linearGradient id="paint5_linear_457_17945" x1="0.5" y1="6.43536" x2="9.99734" y2="15.5935" gradientUnits="userSpaceOnUse">
<stop stop-color="white"/>
<stop offset="1" stop-color="white" stop-opacity="0.4"/>
</linearGradient>
</defs>
</svg>
