<svg width="25" height="25" viewBox="0 0 25 25" fill="none" xmlns="http://www.w3.org/2000/svg">
<path fill-rule="evenodd" clip-rule="evenodd" d="M15.3547 9.68663C19.4107 11.6547 22.4986 8.3731 22.4986 5.54855C22.4986 2.97659 20.4135 0.891602 17.8414 0.891602C15.4392 0.891602 13.4618 2.71029 13.2111 5.04582H3.85494H3.83975H3.58681H2.9803C2.57858 5.04582 2.35431 5.50956 2.60373 5.82446L2.9803 6.2999L3.13736 6.49818L3.14679 6.51009L9.84442 14.9661V21.6843H6.37271C6.10741 21.6843 5.89233 21.8994 5.89233 22.1647V22.6682C5.89233 22.9335 6.10741 23.1486 6.37271 23.1486L14.6922 23.1486C14.9575 23.1486 15.1725 22.9335 15.1725 22.6682V22.1647C15.1725 21.8994 14.9575 21.6843 14.6922 21.6843H11.3087V14.8015L15.3547 9.68663ZM7.01727 9.03656L7.11211 9.15812L5.01473 6.51009H16.0004L14.0019 9.03653L7.01727 9.03656Z" fill="#FF7E84"/>
</svg>
