<svg width="25" height="25" viewBox="0 0 25 25" fill="none" xmlns="http://www.w3.org/2000/svg">
<mask id="path-1-inside-1_442_19478" fill="white">
<path fill-rule="evenodd" clip-rule="evenodd" d="M12.629 23.27C18.8404 23.2678 23.875 18.2319 23.875 12.02C23.875 5.80682 18.8382 0.77002 12.625 0.77002C6.4118 0.77002 1.375 5.80682 1.375 12.02C1.375 18.2332 6.4118 23.27 12.625 23.27H12.629ZM12.6251 21.6629C12.7474 21.6629 12.9982 21.6119 13.3729 21.2421C13.7546 20.8654 14.172 20.2407 14.5572 19.3419C14.9489 18.428 15.2746 17.3071 15.4997 16.0378H9.7506C9.97572 17.3071 10.3014 18.428 10.6931 19.3419C11.0783 20.2407 11.4957 20.8654 11.8773 21.2421C12.2521 21.6119 12.5029 21.6629 12.6251 21.6629ZM9.52929 14.4307C9.45232 13.6625 9.41085 12.8555 9.41085 12.02C9.41085 11.1845 9.45232 10.3776 9.52929 9.60934H15.721C15.798 10.3776 15.8394 11.1845 15.8394 12.02C15.8394 12.8555 15.798 13.6625 15.721 14.4307H9.52929ZM17.13 16.0378C16.7811 18.1667 16.1629 19.9849 15.3727 21.2657C18.0518 20.4708 20.2437 18.5431 21.3935 16.0378H17.13ZM21.9641 14.4307H17.3356C17.4083 13.6541 17.4466 12.8475 17.4466 12.02C17.4466 11.1926 17.4083 10.386 17.3356 9.60934H21.9641C22.1624 10.3798 22.2679 11.1876 22.2679 12.02C22.2679 12.8524 22.1624 13.6602 21.9641 14.4307ZM7.91466 14.4307H3.28592C3.08761 13.6602 2.98214 12.8524 2.98214 12.02C2.98214 11.1876 3.08762 10.3798 3.28593 9.60934H7.91466C7.842 10.386 7.80371 11.1926 7.80371 12.02C7.80371 12.8475 7.842 13.6541 7.91466 14.4307ZM3.85646 16.0378H8.12028C8.46924 18.1667 9.0874 19.985 9.87761 21.2658C7.19842 20.4709 5.00634 18.5432 3.85646 16.0378ZM9.75061 8.0022H15.4997C15.2746 6.73289 14.9489 5.61204 14.5572 4.69815C14.172 3.79933 13.7546 3.17463 13.3729 2.79798C12.9982 2.42815 12.7474 2.37716 12.6251 2.37716C12.5029 2.37716 12.2521 2.42815 11.8773 2.79798C11.4957 3.17463 11.0783 3.79933 10.6931 4.69815C10.3014 5.61204 9.97573 6.73289 9.75061 8.0022ZM17.13 8.0022H21.3935C20.2437 5.49691 18.0518 3.56927 15.3727 2.7743C16.1629 4.05516 16.781 5.87337 17.13 8.0022ZM9.87761 2.77419C9.08741 4.05507 8.46924 5.87331 8.12029 8.0022H3.85648C5.00636 5.4968 7.19843 3.56911 9.87761 2.77419Z"/>
</mask>
<path fill-rule="evenodd" clip-rule="evenodd" d="M12.629 23.27C18.8404 23.2678 23.875 18.2319 23.875 12.02C23.875 5.80682 18.8382 0.77002 12.625 0.77002C6.4118 0.77002 1.375 5.80682 1.375 12.02C1.375 18.2332 6.4118 23.27 12.625 23.27H12.629ZM12.6251 21.6629C12.7474 21.6629 12.9982 21.6119 13.3729 21.2421C13.7546 20.8654 14.172 20.2407 14.5572 19.3419C14.9489 18.428 15.2746 17.3071 15.4997 16.0378H9.7506C9.97572 17.3071 10.3014 18.428 10.6931 19.3419C11.0783 20.2407 11.4957 20.8654 11.8773 21.2421C12.2521 21.6119 12.5029 21.6629 12.6251 21.6629ZM9.52929 14.4307C9.45232 13.6625 9.41085 12.8555 9.41085 12.02C9.41085 11.1845 9.45232 10.3776 9.52929 9.60934H15.721C15.798 10.3776 15.8394 11.1845 15.8394 12.02C15.8394 12.8555 15.798 13.6625 15.721 14.4307H9.52929ZM17.13 16.0378C16.7811 18.1667 16.1629 19.9849 15.3727 21.2657C18.0518 20.4708 20.2437 18.5431 21.3935 16.0378H17.13ZM21.9641 14.4307H17.3356C17.4083 13.6541 17.4466 12.8475 17.4466 12.02C17.4466 11.1926 17.4083 10.386 17.3356 9.60934H21.9641C22.1624 10.3798 22.2679 11.1876 22.2679 12.02C22.2679 12.8524 22.1624 13.6602 21.9641 14.4307ZM7.91466 14.4307H3.28592C3.08761 13.6602 2.98214 12.8524 2.98214 12.02C2.98214 11.1876 3.08762 10.3798 3.28593 9.60934H7.91466C7.842 10.386 7.80371 11.1926 7.80371 12.02C7.80371 12.8475 7.842 13.6541 7.91466 14.4307ZM3.85646 16.0378H8.12028C8.46924 18.1667 9.0874 19.985 9.87761 21.2658C7.19842 20.4709 5.00634 18.5432 3.85646 16.0378ZM9.75061 8.0022H15.4997C15.2746 6.73289 14.9489 5.61204 14.5572 4.69815C14.172 3.79933 13.7546 3.17463 13.3729 2.79798C12.9982 2.42815 12.7474 2.37716 12.6251 2.37716C12.5029 2.37716 12.2521 2.42815 11.8773 2.79798C11.4957 3.17463 11.0783 3.79933 10.6931 4.69815C10.3014 5.61204 9.97573 6.73289 9.75061 8.0022ZM17.13 8.0022H21.3935C20.2437 5.49691 18.0518 3.56927 15.3727 2.7743C16.1629 4.05516 16.781 5.87337 17.13 8.0022ZM9.87761 2.77419C9.08741 4.05507 8.46924 5.87331 8.12029 8.0022H3.85648C5.00636 5.4968 7.19843 3.56911 9.87761 2.77419Z" fill="#FF7E35" stroke="#FF7E35" stroke-width="1.875" stroke-linecap="round" mask="url(#path-1-inside-1_442_19478)"/>
</svg>
