<svg width="25" height="25" viewBox="0 0 25 25" fill="none" xmlns="http://www.w3.org/2000/svg">
<path fill-rule="evenodd" clip-rule="evenodd" d="M2.625 2.70044V20.3803H16.8761V15.7499C17.1705 15.8058 17.4743 15.8351 17.785 15.8351C20.4578 15.8351 22.6246 13.6683 22.6246 10.9954C22.6246 8.32255 20.4578 6.15576 17.785 6.15576C17.4743 6.15576 17.1705 6.18503 16.8761 6.24096V2.70044H2.625ZM16.8761 13.4142V8.57666C17.1588 8.47038 17.4651 8.41225 17.785 8.41225C19.2116 8.41225 20.3681 9.56877 20.3681 10.9954C20.3681 12.4221 19.2116 13.5786 17.785 13.5786C17.4651 13.5786 17.1588 13.5205 16.8761 13.4142Z" fill="#FF7E35"/>
</svg>
