<svg width="24" height="24" viewBox="0 0 24 24" fill="none" xmlns="http://www.w3.org/2000/svg">
<path fill-rule="evenodd" clip-rule="evenodd" d="M8.94084 9.84912C6.85335 9.84912 5.34945 9.43454 4.30847 8.95545C3.83638 8.526 3.67995 8.11284 3.67995 7.80707C3.67995 7.39293 3.96691 6.7818 4.93643 6.20001C5.87845 5.63472 7.26911 5.24025 8.87915 5.24025C10.4892 5.24025 11.8798 5.63472 12.8219 6.20001C13.7914 6.7818 14.0784 7.39293 14.0784 7.80707C14.0784 8.07894 13.9547 8.4357 13.5954 8.81333C12.5805 9.36395 11.0794 9.84912 8.94084 9.84912ZM2.29688 7.80707C2.29688 7.93359 2.30679 8.05871 2.32617 8.18219V9.39554V13.2239L0.963581 13.8663C0.464065 14.1018 0.241803 14.6914 0.461553 15.198C0.691244 15.7276 1.31348 15.9622 1.8356 15.716L2.32617 15.4847V17.0822L0.957226 17.5646C0.437224 17.7479 0.156191 18.3105 0.321963 18.8363C0.495764 19.3876 1.0917 19.6853 1.63689 19.4932L3.12885 18.9674C3.95178 19.962 5.61525 21.0001 8.97425 21.0001C15.4219 21.0001 15.4219 17.1751 15.4219 17.1751V14.6737L23.3257 11.8127C23.857 11.6204 24.1317 11.0338 23.9394 10.5026C23.7472 9.97134 23.1606 9.69657 22.6294 9.88887L15.4219 12.4978V10.2659L23.2714 6.78343C23.7879 6.55431 24.0208 5.94993 23.7917 5.4335C23.5625 4.91707 22.9582 4.68416 22.4417 4.91327L15.4525 8.01407C15.4584 7.94552 15.4614 7.8765 15.4614 7.80707C15.4614 7.65989 15.448 7.51459 15.4219 7.37158V7.25586C15.4219 7.25586 15.4161 7.26557 15.4042 7.28381C14.9776 5.34968 12.2188 3.85718 8.87915 3.85718C5.24386 3.85718 2.29688 5.6256 2.29688 7.80707ZM4.57327 16.6622L13.329 13.6603C13.4263 13.3781 13.6456 13.1408 13.9481 13.0313L14.0388 12.9985V10.5429C13.9599 10.5114 13.8848 10.4702 13.8156 10.42C13.7105 10.4914 13.6012 10.5605 13.4878 10.6272H13.5612H13.7537V11.1685L11.3872 12.0103L5.47692 14.1126L4.49857 14.4606L3.70924 14.8327V16.5948L3.72957 16.5876C4.02027 16.4851 4.3254 16.522 4.57327 16.6622ZM3.93301 12.4664C3.98577 12.4416 4.03955 12.4216 4.09385 12.4063V12.0103V10.6272H4.27046C4.07049 10.5095 3.88299 10.3842 3.70924 10.2521V12.5719L3.93301 12.4664ZM13.8301 14.9038L13.8301 17.7951C13.9091 17.6456 13.9585 17.5093 13.9896 17.3987C14.0185 17.296 14.0309 17.2171 14.0361 17.1741C14.0375 17.1628 14.0383 17.1542 14.0388 17.1485V14.9834C13.9665 14.9645 13.8964 14.9378 13.8301 14.9038ZM6.1104 19.2498C6.81751 19.4673 7.74839 19.617 8.97425 19.617C10.2055 19.617 11.1265 19.4662 11.8158 19.2498L6.1104 19.2498ZM8.69677 8.9091C9.574 8.9091 10.2851 8.41566 10.2851 7.80697C10.2851 7.19828 9.574 6.70483 8.69677 6.70483C7.81954 6.70483 7.1084 7.19828 7.1084 7.80697C7.1084 8.41566 7.81954 8.9091 8.69677 8.9091ZM5.47692 12.6446L7.26029 12.0103H5.47692V12.6446Z" fill="#FF5235"/>
</svg>
