<svg width="80" height="91" viewBox="0 0 80 91" fill="none" xmlns="http://www.w3.org/2000/svg">
<g filter="url(#filter0_d_337_14392)">
<path d="M63 39.9873C63 26.7324 52.2549 15.9873 39 15.9873C25.7451 15.9873 15 26.7324 15 39.9873C15 54.3068 30.4862 63.9239 38.1959 73.005C38.615 73.4986 39.385 73.4986 39.8041 73.005C47.5138 63.9239 63 54.3068 63 39.9873Z" fill="url(#paint0_radial_337_14392)"/>
<path d="M39 16.9873C51.7026 16.9873 62 27.2847 62 39.9873C62 46.7675 58.3372 52.515 53.5526 57.7886C51.2642 60.3108 48.7537 62.6883 46.3096 65.003C46.204 65.103 46.0986 65.2028 45.9933 65.3026C43.4648 67.6978 41.0105 70.0389 39.0417 72.3578C39.0359 72.3646 39.031 72.3679 39.0259 72.3701C39.0197 72.3729 39.0108 72.3752 39 72.3752C38.9892 72.3752 38.9803 72.3729 38.9741 72.3701C38.969 72.3679 38.9641 72.3646 38.9583 72.3578C36.9895 70.0389 34.5352 67.6978 32.0067 65.3026C31.9014 65.2028 31.796 65.103 31.6904 65.003C29.2463 62.6883 26.7358 60.3108 24.4474 57.7886C19.6628 52.515 16 46.7675 16 39.9873C16 27.2847 26.2974 16.9873 39 16.9873Z" stroke="white" stroke-width="2"/>
</g>
<path fill-rule="evenodd" clip-rule="evenodd" d="M27.6971 33.5968C27.7889 33.5302 27.9172 33.5505 27.9838 33.6422L30.9015 37.6581C31.0681 37.8874 31.389 37.9382 31.6183 37.7716C31.8475 37.605 31.8984 37.2841 31.7318 37.0549L28.8141 33.039C28.7878 33.0028 28.775 32.9608 28.7646 32.9266C28.7488 32.8743 28.7384 32.8403 28.6935 32.873L29.6067 32.2094C29.6985 32.1428 29.8268 32.1631 29.8934 32.2548L32.8111 36.2707C32.9777 36.5 33.2986 36.5508 33.5279 36.3842C33.7571 36.2176 33.808 35.8967 33.6414 35.6675L30.7237 31.6516C30.6571 31.5599 30.6774 31.4315 30.7691 31.3649L31.532 30.8106C31.6237 30.744 31.7521 30.7643 31.8187 30.8561L34.7364 34.8719C34.903 35.1012 35.2239 35.152 35.4531 34.9854C35.6824 34.8189 35.7332 34.498 35.5666 34.2687L32.649 30.2528C32.5823 30.1611 32.6027 30.0328 32.6944 29.9661L34.0292 28.9962C34.1209 28.9296 34.2493 28.9499 34.3159 29.0416L37.3382 33.2013C38.7206 35.1041 38.552 37.6607 37.071 39.3623L44.9239 48.1385C45.8394 49.1616 45.6697 50.7517 44.5591 51.5586C43.4485 52.3655 41.8838 52.0355 41.1937 50.8488L35.2744 40.6707C33.19 41.5634 30.6923 40.9331 29.3032 39.021L26.2897 34.873C26.223 34.7813 26.2434 34.653 26.3351 34.5863L27.6971 33.5968Z" fill="url(#paint1_linear_337_14392)"/>
<path fill-rule="evenodd" clip-rule="evenodd" d="M34.4143 51.4245C35.5249 52.2314 37.0896 51.9013 37.7798 50.7146L43.6087 40.6905C45.7746 41.6064 48.4029 40.9003 49.8897 38.8539C51.6124 36.4828 52.2846 31.6491 49.9919 29.9834C47.6992 28.3176 43.3098 30.4506 41.5871 32.8217C40.1004 34.868 40.2409 37.5858 41.7812 39.3627L34.0494 48.0044C33.134 49.0275 33.3037 50.6176 34.4143 51.4245Z" fill="white"/>
<defs>
<filter id="filter0_d_337_14392" x="0" y="0.987305" width="80" height="89.3877" filterUnits="userSpaceOnUse" color-interpolation-filters="sRGB">
<feFlood flood-opacity="0" result="BackgroundImageFix"/>
<feColorMatrix in="SourceAlpha" type="matrix" values="0 0 0 0 0 0 0 0 0 0 0 0 0 0 0 0 0 0 127 0" result="hardAlpha"/>
<feOffset dx="1" dy="1"/>
<feGaussianBlur stdDeviation="8"/>
<feComposite in2="hardAlpha" operator="out"/>
<feColorMatrix type="matrix" values="0 0 0 0 0.0901961 0 0 0 0 0.0901961 0 0 0 0 0.0980392 0 0 0 0.3 0"/>
<feBlend mode="normal" in2="BackgroundImageFix" result="effect1_dropShadow_337_14392"/>
<feBlend mode="normal" in="SourceGraphic" in2="effect1_dropShadow_337_14392" result="shape"/>
</filter>
<radialGradient id="paint0_radial_337_14392" cx="0" cy="0" r="1" gradientUnits="userSpaceOnUse" gradientTransform="translate(63 15.9873) rotate(129.611) scale(75.2861 73.9579)">
<stop offset="0.545" stop-color="#171719"/>
<stop offset="1" stop-color="#878A93"/>
</radialGradient>
<linearGradient id="paint1_linear_337_14392" x1="40.0629" y1="28.2949" x2="40.0629" y2="52.7324" gradientUnits="userSpaceOnUse">
<stop stop-color="white"/>
<stop offset="1" stop-color="white" stop-opacity="0.1"/>
</linearGradient>
</defs>
</svg>
