<svg width="25" height="25" viewBox="0 0 25 25" fill="none" xmlns="http://www.w3.org/2000/svg">
<path d="M21.768 12.3594H2.29823C2.02748 12.3594 1.81021 12.5737 1.83311 12.8435C1.92116 13.8807 2.36171 16.4089 4.53094 18.6875C7.22631 21.5188 11.3424 21.5495 11.6806 21.5471C11.6972 21.547 11.7085 21.5473 11.7251 21.5484C12.0614 21.5694 16.1485 21.7633 19.2028 19.0156C21.7035 16.766 22.1558 13.9494 22.2346 12.84C22.2537 12.5717 22.0369 12.3594 21.768 12.3594Z" fill="#00CB92" stroke="#00CB92"/>
<rect x="7.625" y="21.4062" width="9.1875" height="1.5" rx="0.75" fill="#00CB92"/>
<path d="M2.75 12.7343C2.75 12.7343 3.78127 3.54686 12.0313 3.64061C20.2813 3.73436 21.0312 12.7344 21.0312 12.7344" stroke="#00CB92"/>
</svg>
