<svg width="24" height="19" viewBox="0 0 24 19" fill="none" xmlns="http://www.w3.org/2000/svg">
<path fill-rule="evenodd" clip-rule="evenodd" d="M11.0834 12.3606C11.0041 12.4412 10.955 12.5461 10.9408 12.6582C10.7378 14.2568 9.99182 16.4897 7.9252 17.8415C4.6424 19.9888 1.03345 17.9509 0.768347 17.4307C0.245837 16.4054 3.37601 13.6822 5.19824 12.4902C6.43821 11.6792 8.76339 10.5427 10.0478 10.4819C10.1939 10.475 10.3369 10.4236 10.4394 10.3194L11.3102 9.43444L22.5654 0.316687C22.9637 -0.0101337 23.5204 0.0907264 23.8089 0.541965C24.0973 0.993204 24.0083 1.62395 23.61 1.95077L12.3548 11.0685L11.0834 12.3606Z" fill="url(#paint0_linear_359_11962)"/>
<path d="M10.1089 11.0442C10.326 11.4701 8.67469 13.4239 6.22583 15.0257C3.77697 16.6275 1.45787 17.2708 1.24082 16.8449C1.02378 16.419 2.77523 14.6618 5.22409 13.0599C7.67295 11.4581 9.89188 10.6182 10.1089 11.0442Z" fill="url(#paint1_linear_359_11962)"/>
<path d="M3.13177 3.83068C3.14833 3.77946 3.17838 3.73524 3.21785 3.704C3.25731 3.67276 3.3043 3.65601 3.35245 3.65601C3.40059 3.65601 3.44758 3.67276 3.48705 3.704C3.52652 3.73524 3.55656 3.77946 3.57313 3.83068L3.79767 4.52574C3.97389 5.07074 4.25284 5.56568 4.61509 5.9761C4.97734 6.38652 5.4142 6.70255 5.89524 6.90221L6.50873 7.15661C6.55394 7.17537 6.59297 7.20941 6.62054 7.25413C6.64811 7.29885 6.6629 7.35208 6.6629 7.40663C6.6629 7.46118 6.64811 7.51441 6.62054 7.55913C6.59297 7.60384 6.55394 7.63789 6.50873 7.65665L5.89524 7.91105C5.4142 8.1107 4.97734 8.42674 4.61509 8.83716C4.25284 9.24758 3.97389 9.74252 3.79767 10.2875L3.57313 10.9826C3.55656 11.0338 3.52652 11.078 3.48705 11.1093C3.44758 11.1405 3.40059 11.1573 3.35245 11.1573C3.3043 11.1573 3.25731 11.1405 3.21785 11.1093C3.17838 11.078 3.14833 11.0338 3.13177 10.9826L2.90722 10.2875C2.731 9.74252 2.45205 9.24758 2.0898 8.83716C1.72755 8.42674 1.2907 8.1107 0.809658 7.91105L0.196167 7.65665C0.150958 7.63789 0.111928 7.60384 0.0843537 7.55913C0.0567795 7.51441 0.0419922 7.46118 0.0419922 7.40663C0.0419922 7.35208 0.0567795 7.29885 0.0843537 7.25413C0.111928 7.20941 0.150958 7.17537 0.196167 7.15661L0.809658 6.90221C1.2907 6.70255 1.72755 6.38652 2.0898 5.9761C2.45205 5.56568 2.731 5.07074 2.90722 4.52574L3.13177 3.83068Z" fill="url(#paint2_linear_359_11962)"/>
<path fill-rule="evenodd" clip-rule="evenodd" d="M11.0834 12.3606C11.0041 12.4412 10.955 12.5461 10.9408 12.6582C10.7378 14.2568 9.99182 16.4897 7.9252 17.8415C4.6424 19.9888 1.03345 17.9509 0.768347 17.4307C0.245837 16.4054 3.37601 13.6822 5.19824 12.4902C6.43821 11.6792 8.76339 10.5427 10.0478 10.4819C10.1939 10.475 10.3369 10.4236 10.4394 10.3194L11.3102 9.43444L22.5654 0.316687C22.9637 -0.0101337 23.5204 0.0907264 23.8089 0.541965C24.0973 0.993204 24.0083 1.62395 23.61 1.95077L12.3548 11.0685L11.0834 12.3606Z" fill="url(#paint3_linear_359_11962)"/>
<path d="M10.1089 11.0442C10.326 11.4701 8.67469 13.4239 6.22583 15.0257C3.77697 16.6275 1.45787 17.2708 1.24082 16.8449C1.02378 16.419 2.77523 14.6618 5.22409 13.0599C7.67295 11.4581 9.89188 10.6182 10.1089 11.0442Z" fill="url(#paint4_linear_359_11962)"/>
<path d="M3.13177 3.83068C3.14833 3.77946 3.17838 3.73524 3.21785 3.704C3.25731 3.67276 3.3043 3.65601 3.35245 3.65601C3.40059 3.65601 3.44758 3.67276 3.48705 3.704C3.52652 3.73524 3.55656 3.77946 3.57313 3.83068L3.79767 4.52574C3.97389 5.07074 4.25284 5.56568 4.61509 5.9761C4.97734 6.38652 5.4142 6.70255 5.89524 6.90221L6.50873 7.15661C6.55394 7.17537 6.59297 7.20941 6.62054 7.25413C6.64811 7.29885 6.6629 7.35208 6.6629 7.40663C6.6629 7.46118 6.64811 7.51441 6.62054 7.55913C6.59297 7.60384 6.55394 7.63789 6.50873 7.65665L5.89524 7.91105C5.4142 8.1107 4.97734 8.42674 4.61509 8.83716C4.25284 9.24758 3.97389 9.74252 3.79767 10.2875L3.57313 10.9826C3.55656 11.0338 3.52652 11.078 3.48705 11.1093C3.44758 11.1405 3.40059 11.1573 3.35245 11.1573C3.3043 11.1573 3.25731 11.1405 3.21785 11.1093C3.17838 11.078 3.14833 11.0338 3.13177 10.9826L2.90722 10.2875C2.731 9.74252 2.45205 9.24758 2.0898 8.83716C1.72755 8.42674 1.2907 8.1107 0.809658 7.91105L0.196167 7.65665C0.150958 7.63789 0.111928 7.60384 0.0843537 7.55913C0.0567795 7.51441 0.0419922 7.46118 0.0419922 7.40663C0.0419922 7.35208 0.0567795 7.29885 0.0843537 7.25413C0.111928 7.20941 0.150958 7.17537 0.196167 7.15661L0.809658 6.90221C1.2907 6.70255 1.72755 6.38652 2.0898 5.9761C2.45205 5.56568 2.731 5.07074 2.90722 4.52574L3.13177 3.83068Z" fill="url(#paint5_linear_359_11962)"/>
<defs>
<linearGradient id="paint0_linear_359_11962" x1="18.4075" y1="5.7995" x2="-2.2446" y2="16.528" gradientUnits="userSpaceOnUse">
<stop stop-color="white" stop-opacity="0.1"/>
<stop offset="1" stop-color="white"/>
</linearGradient>
<linearGradient id="paint1_linear_359_11962" x1="1.29091" y1="16.9432" x2="10.6775" y2="12.1599" gradientUnits="userSpaceOnUse">
<stop stop-color="#171719" stop-opacity="0.15"/>
<stop offset="1" stop-color="#171719" stop-opacity="0.45"/>
</linearGradient>
<linearGradient id="paint2_linear_359_11962" x1="0.0419922" y1="3.65601" x2="7.54964" y2="10.2826" gradientUnits="userSpaceOnUse">
<stop stop-color="white"/>
<stop offset="1" stop-color="white" stop-opacity="0.4"/>
</linearGradient>
<linearGradient id="paint3_linear_359_11962" x1="18.4075" y1="5.7995" x2="-2.2446" y2="16.528" gradientUnits="userSpaceOnUse">
<stop stop-color="white" stop-opacity="0.1"/>
<stop offset="1" stop-color="white"/>
</linearGradient>
<linearGradient id="paint4_linear_359_11962" x1="1.29091" y1="16.9432" x2="10.6775" y2="12.1599" gradientUnits="userSpaceOnUse">
<stop stop-color="#171719" stop-opacity="0.15"/>
<stop offset="1" stop-color="#171719" stop-opacity="0.45"/>
</linearGradient>
<linearGradient id="paint5_linear_359_11962" x1="0.0419922" y1="3.65601" x2="7.54964" y2="10.2826" gradientUnits="userSpaceOnUse">
<stop stop-color="white"/>
<stop offset="1" stop-color="white" stop-opacity="0.4"/>
</linearGradient>
</defs>
</svg>
