<svg width="24" height="25" viewBox="0 0 24 25" fill="none" xmlns="http://www.w3.org/2000/svg">
<path fill-rule="evenodd" clip-rule="evenodd" d="M8.94084 9.95654C6.85353 9.95654 5.34972 9.54203 4.30874 9.063C3.83644 8.63346 3.67995 8.2202 3.67995 7.91437C3.67995 7.50023 3.96691 6.8891 4.93643 6.30731C5.87845 5.74202 7.26911 5.34755 8.87915 5.34755C10.4892 5.34755 11.8798 5.74202 12.8219 6.30731C13.7914 6.8891 14.0784 7.50023 14.0784 7.91437C14.0784 8.1863 13.9546 8.54316 13.5952 8.92088C12.5802 9.47145 11.0792 9.95654 8.94084 9.95654ZM2.29688 7.91437C2.29688 8.04089 2.30679 8.16601 2.32617 8.28949V9.50296V13.3312L0.963582 13.9736C0.464065 14.2091 0.241803 14.7987 0.461553 15.3053C0.691245 15.8349 1.31348 16.0695 1.8356 15.8233L2.32617 15.592V17.1895L0.957226 17.6719C0.437224 17.8552 0.156191 18.4178 0.321963 18.9436C0.495764 19.4949 1.0917 19.7926 1.63689 19.6005L3.12878 19.0747C3.95167 20.0693 5.61514 21.1075 8.97425 21.1075C15.4219 21.1075 15.4219 17.2825 15.4219 17.2825V14.781L23.3257 11.92C23.857 11.7277 24.1317 11.1411 23.9394 10.6099C23.7472 10.0786 23.1606 9.80387 22.6294 9.99617L15.4219 12.6051V10.3731L23.2714 6.8906C23.7879 6.66149 24.0208 6.0571 23.7917 5.54067C23.5625 5.02425 22.9582 4.79133 22.4417 5.02045L15.4526 8.12125C15.4584 8.05273 15.4614 7.98376 15.4614 7.91437C15.4614 7.76719 15.448 7.62189 15.4219 7.47888V7.36328C15.4219 7.36328 15.4161 7.37298 15.4042 7.3912C14.9777 5.45703 12.2189 3.96448 8.87915 3.96448C5.24386 3.96448 2.29688 5.7329 2.29688 7.91437ZM4.5734 16.7696L13.3289 13.7677C13.4262 13.4855 13.6455 13.2481 13.9481 13.1386L14.0388 13.1058V10.65C13.9599 10.6186 13.8848 10.5774 13.8156 10.5272C13.7105 10.5986 13.6012 10.6678 13.4878 10.7345H13.5612H13.7537V11.2758L11.3872 12.1176L5.47692 14.2199L4.49857 14.5679L3.70924 14.94V16.7021L3.72957 16.6949C4.02032 16.5924 4.32551 16.6293 4.5734 16.7696ZM3.93301 12.5737C3.98577 12.5489 4.03955 12.5289 4.09385 12.5136V12.1176V10.7345H4.27046C4.07049 10.6168 3.88299 10.4915 3.70924 10.3594V12.6792L3.93301 12.5737ZM13.8301 15.0111L13.8301 17.9026C13.9091 17.753 13.9585 17.6167 13.9896 17.5061C14.0185 17.4034 14.0309 17.3246 14.0361 17.2815L14.0379 17.2652L14.0388 17.2559V15.0907C13.9665 15.0718 13.8964 15.0451 13.8301 15.0111ZM6.1104 19.3572C6.81751 19.5747 7.74839 19.7245 8.97425 19.7245C10.2055 19.7245 11.1265 19.5736 11.8158 19.3572L6.1104 19.3572ZM8.69677 9.01652C9.574 9.01652 10.2851 8.52308 10.2851 7.91439C10.2851 7.3057 9.574 6.81226 8.69677 6.81226C7.81954 6.81226 7.1084 7.3057 7.1084 7.91439C7.1084 8.52308 7.81954 9.01652 8.69677 9.01652ZM5.47692 12.7519L7.26029 12.1176H5.47692V12.7519Z" fill="#878A93"/>
</svg>
