<svg width="24" height="24" viewBox="0 0 24 24" fill="none" xmlns="http://www.w3.org/2000/svg">
<g clip-path="url(#clip0_442_20908)">
<path fill-rule="evenodd" clip-rule="evenodd" d="M3.35828 20.8202C4.30089 21.7628 5.85386 21.6757 6.68516 20.6336L13.2754 12.3722C15.1178 13.522 17.6175 13.2584 19.2692 11.6067C21.1819 9.69407 22.4925 5.38492 20.6431 3.53548C18.7936 1.68603 14.4845 2.99664 12.5718 4.90931C10.9203 6.56084 10.6566 9.06017 11.806 10.9025L3.54477 17.4934C2.50275 18.3247 2.41571 19.8776 3.35828 20.8202Z" fill="#292A2D"/>
<path d="M5.04037 9.43244C5.02236 9.4816 4.98969 9.52405 4.94676 9.55403C4.90384 9.58402 4.85275 9.6001 4.80039 9.6001C4.74803 9.6001 4.69694 9.58402 4.65402 9.55403C4.6111 9.52405 4.57842 9.4816 4.56041 9.43244L4.31623 8.76529C4.12459 8.24218 3.82125 7.76712 3.42731 7.37318C3.03337 6.97924 2.55831 6.6759 2.0352 6.48426L1.36805 6.24008C1.31889 6.22207 1.27644 6.18939 1.24646 6.14647C1.21647 6.10355 1.20039 6.05245 1.20039 6.0001C1.20039 5.94774 1.21647 5.89664 1.24646 5.85372C1.27644 5.8108 1.31889 5.77813 1.36805 5.76012L2.0352 5.51593C2.55831 5.3243 3.03337 5.02095 3.42731 4.62702C3.82125 4.23308 4.12459 3.75802 4.31623 3.23491L4.56041 2.56776C4.57842 2.51859 4.6111 2.47615 4.65402 2.44616C4.69694 2.41618 4.74803 2.4001 4.80039 2.4001C4.85275 2.4001 4.90384 2.41618 4.94676 2.44616C4.98969 2.47615 5.02236 2.51859 5.04037 2.56776L5.28455 3.23491C5.47619 3.75802 5.77954 4.23308 6.17347 4.62702C6.56741 5.02095 7.04247 5.3243 7.56558 5.51593L8.23273 5.76012C8.28189 5.77813 8.32434 5.8108 8.35432 5.85372C8.38431 5.89664 8.40039 5.94774 8.40039 6.0001C8.40039 6.05245 8.38431 6.10355 8.35432 6.14647C8.32434 6.18939 8.28189 6.22207 8.23273 6.24008L7.56558 6.48426C7.04247 6.6759 6.56741 6.97924 6.17347 7.37318C5.77954 7.76712 5.47619 8.24218 5.28455 8.76529L5.04037 9.43244Z" fill="#292A2D"/>
</g>
<defs>
<clipPath id="clip0_442_20908">
<rect width="24" height="24" fill="white"/>
</clipPath>
</defs>
</svg>
