<svg width="25" height="25" viewBox="0 0 25 25" fill="none" xmlns="http://www.w3.org/2000/svg">
<g clip-path="url(#clip0_445_36297)">
<path fill-rule="evenodd" clip-rule="evenodd" d="M13.0919 8.89856C13.9506 8.38327 14.0127 7.96031 14.0127 7.88446C14.0127 7.80861 13.9506 7.38565 13.0919 6.87036C12.2745 6.37983 11.0113 6.00918 9.50502 6.00918C7.99878 6.00918 6.73558 6.37983 5.91813 6.87036C5.05943 7.38565 4.99735 7.80861 4.99735 7.88446C4.99735 7.96031 5.05943 8.38327 5.91813 8.89856C6.73558 9.3891 7.99878 9.75975 9.50502 9.75975C11.0113 9.75975 12.2745 9.3891 13.0919 8.89856ZM9.50502 3.93457C12.8447 3.93457 15.6035 5.42713 16.0301 7.36129C16.042 7.34308 16.0477 7.33337 16.0477 7.33337V7.44898C16.0739 7.59198 16.0873 7.73728 16.0873 7.88446C16.0873 7.95391 16.0843 8.02295 16.0784 8.09152L23.0677 4.99066C23.5841 4.76155 24.1885 4.99446 24.4176 5.51089C24.6468 6.02732 24.4138 6.6317 23.8974 6.86082L16.0477 10.3434V12.5749L23.2545 9.96613C23.7858 9.77384 24.3723 10.0486 24.5646 10.5798C24.7569 11.1111 24.4821 11.6976 23.9509 11.8899L16.0477 14.7507V17.2526C16.0477 17.2526 16.0477 21.0776 9.60011 21.0776C6.24072 21.0776 4.57724 20.0392 3.75443 19.0445L2.26189 19.5705C1.7167 19.7627 1.12076 19.465 0.946963 18.9137C0.781191 18.3878 1.06222 17.8252 1.58223 17.642L2.95204 17.1592V15.5617L2.46064 15.7934C1.93853 16.0396 1.31629 15.805 1.0866 15.2754C0.866851 14.7688 1.08911 14.1792 1.58863 13.9437L2.95204 13.3009V10.3102V8.25958C2.93266 8.13611 2.92274 8.01098 2.92274 7.88446C2.92274 5.703 5.86973 3.93457 9.50502 3.93457ZM5.19831 16.7396C5.14362 16.7087 5.08614 16.6827 5.02665 16.6622V14.5837L5.12422 14.5377L6.79325 13.944L10.0679 12.7792L13.9731 11.3901V13.6867C13.9663 13.7035 13.96 13.7205 13.9541 13.7376L5.19831 16.7396ZM9.32166 8.98659C10.1989 8.98659 10.91 8.49314 10.91 7.88445C10.91 7.27576 10.1989 6.78232 9.32166 6.78232C8.44443 6.78232 7.73329 7.27576 7.73329 7.88445C7.73329 8.49314 8.44443 8.98659 9.32166 8.98659Z" fill="#AD75F9"/>
</g>
<defs>
<clipPath id="clip0_445_36297">
<rect width="24" height="24" fill="white" transform="translate(0.625977 0.0776367)"/>
</clipPath>
</defs>
</svg>
