<svg width="16" height="16" viewBox="0 0 16 16" fill="none" xmlns="http://www.w3.org/2000/svg">
<path d="M14.1663 7.99997H5.92967M3.02234 7.99997H1.83301M3.02234 7.99997C3.02234 7.61452 3.17546 7.24486 3.44801 6.97231C3.72057 6.69975 4.09023 6.54663 4.47567 6.54663C4.86112 6.54663 5.23078 6.69975 5.50334 6.97231C5.77589 7.24486 5.92901 7.61452 5.92901 7.99997C5.92901 8.38542 5.77589 8.75508 5.50334 9.02763C5.23078 9.30018 4.86112 9.4533 4.47567 9.4533C4.09023 9.4533 3.72057 9.30018 3.44801 9.02763C3.17546 8.75508 3.02234 8.38542 3.02234 7.99997ZM14.1663 12.4046H10.3343M10.3343 12.4046C10.3343 12.7902 10.1809 13.1603 9.90824 13.4329C9.63562 13.7055 9.26588 13.8586 8.88034 13.8586C8.49489 13.8586 8.12523 13.7048 7.85268 13.4323C7.58013 13.1597 7.42701 12.7901 7.42701 12.4046M10.3343 12.4046C10.3343 12.0191 10.1809 11.6497 9.90824 11.3771C9.63562 11.1045 9.26588 10.9513 8.88034 10.9513C8.49489 10.9513 8.12523 11.1044 7.85268 11.377C7.58013 11.6495 7.42701 12.0192 7.42701 12.4046M7.42701 12.4046H1.83301M14.1663 3.5953H12.0963M9.18901 3.5953H1.83301M9.18901 3.5953C9.18901 3.20985 9.34213 2.84019 9.61468 2.56764C9.88723 2.29509 10.2569 2.14197 10.6423 2.14197C10.8332 2.14197 11.0222 2.17956 11.1985 2.2526C11.3748 2.32563 11.535 2.43268 11.67 2.56764C11.805 2.70259 11.912 2.86281 11.985 3.03913C12.0581 3.21546 12.0957 3.40445 12.0957 3.5953C12.0957 3.78616 12.0581 3.97514 11.985 4.15147C11.912 4.32779 11.805 4.48801 11.67 4.62296C11.535 4.75792 11.3748 4.86497 11.1985 4.93801C11.0222 5.01104 10.8332 5.04863 10.6423 5.04863C10.2569 5.04863 9.88723 4.89552 9.61468 4.62296C9.34213 4.35041 9.18901 3.98075 9.18901 3.5953Z" stroke="#878A93" stroke-width="1.5" stroke-miterlimit="10" stroke-linecap="round"/>
</svg>
