<svg width="24" height="25" viewBox="0 0 24 25" fill="none" xmlns="http://www.w3.org/2000/svg">
<path fill-rule="evenodd" clip-rule="evenodd" d="M9.73722 2.42188C5.00671 2.42188 1.17188 6.25671 1.17188 10.9872C1.17188 11.4603 1.55536 11.8438 2.02841 11.8438H22.4403C22.9134 11.8438 23.2969 11.4603 23.2969 10.9872C23.2969 6.25671 19.462 2.42188 14.7315 2.42188H9.73722ZM12 6.125C12.2718 6.125 12.4922 5.90464 12.4922 5.63281C12.4922 5.36098 12.2718 5.14062 12 5.14062C11.7282 5.14062 11.5078 5.36098 11.5078 5.63281C11.5078 5.90464 11.7282 6.125 12 6.125ZM8.60156 7.625C8.87339 7.625 9.09375 7.40464 9.09375 7.13281C9.09375 6.86098 8.87339 6.64062 8.60156 6.64062C8.32973 6.64062 8.10938 6.86098 8.10938 7.13281C8.10938 7.40464 8.32973 7.625 8.60156 7.625ZM15.8896 7.13281C15.8896 7.40464 15.6693 7.625 15.3975 7.625C15.1256 7.625 14.9053 7.40464 14.9053 7.13281C14.9053 6.86098 15.1256 6.64062 15.3975 6.64062C15.6693 6.64062 15.8896 6.86098 15.8896 7.13281Z" fill="#6A92FF"/>
<path d="M23.0625 18.1254C23.0625 20.1961 21.3839 21.8748 19.3132 21.8748L4.68683 21.8748C2.61613 21.8748 0.9375 20.1961 0.9375 18.1254C0.9375 17.9183 1.10536 17.7505 1.31243 17.7505L22.6876 17.7505C22.8946 17.7505 23.0625 17.9184 23.0625 18.1254Z" fill="#6A92FF"/>
<mask id="path-3-inside-1_442_19358" fill="white">
<path d="M13.0648 12.7344H2.38281C1.83053 12.7344 1.38281 13.1821 1.38281 13.7344V15.8594C1.38281 16.4117 1.83053 16.8594 2.38281 16.8594H21.6172C22.1695 16.8594 22.6172 16.4117 22.6172 15.8594V13.1147C22.6172 12.9536 22.4365 12.8586 22.3038 12.9499L18.9059 15.2871C18.8479 15.327 18.7732 15.3335 18.7092 15.3041L13.1482 12.7526C13.1221 12.7406 13.0936 12.7344 13.0648 12.7344Z"/>
</mask>
<path d="M13.0648 12.7344H2.38281C1.83053 12.7344 1.38281 13.1821 1.38281 13.7344V15.8594C1.38281 16.4117 1.83053 16.8594 2.38281 16.8594H21.6172C22.1695 16.8594 22.6172 16.4117 22.6172 15.8594V13.1147C22.6172 12.9536 22.4365 12.8586 22.3038 12.9499L18.9059 15.2871C18.8479 15.327 18.7732 15.3335 18.7092 15.3041L13.1482 12.7526C13.1221 12.7406 13.0936 12.7344 13.0648 12.7344Z" fill="#6A92FF" stroke="#6A92FF" stroke-width="2" mask="url(#path-3-inside-1_442_19358)"/>
</svg>
