<svg width="25" height="25" viewBox="0 0 25 25" fill="none" xmlns="http://www.w3.org/2000/svg">
<path fill-rule="evenodd" clip-rule="evenodd" d="M15.2844 9.88117C19.3404 11.8492 22.4283 8.56761 22.4283 5.74307C22.4283 3.17111 20.3432 1.08612 17.7711 1.08612C15.3689 1.08612 13.3914 2.90484 13.1408 5.2404H3.78463H3.76944H3.5165H2.90999C2.50827 5.2404 2.284 5.70414 2.53342 6.01904L2.90999 6.49448L3.06704 6.69276L3.07647 6.70467L9.77411 15.1607V21.8787H6.3024C6.03709 21.8787 5.82202 22.0938 5.82202 22.3591V22.8626C5.82202 23.1279 6.03709 23.343 6.3024 23.343L14.6219 23.343C14.8872 23.343 15.1022 23.1279 15.1022 22.8626V22.3591C15.1022 22.0938 14.8872 21.8787 14.6219 21.8787H11.2384V14.9961L15.2844 9.88117ZM6.94696 9.2312L7.03863 9.3487L4.94441 6.70467H15.9301L13.9316 9.23117L6.94696 9.2312Z" fill="white"/>
</svg>
