<svg width="25" height="25" viewBox="0 0 25 25" fill="none" xmlns="http://www.w3.org/2000/svg">
<g clip-path="url(#clip0_445_36295)">
<path fill-rule="evenodd" clip-rule="evenodd" d="M12.5909 8.89929C13.4496 8.384 13.5117 7.96104 13.5117 7.88519C13.5117 7.80935 13.4496 7.38639 12.5909 6.8711C11.7735 6.38056 10.5103 6.00991 9.00404 6.00991C7.4978 6.00991 6.2346 6.38056 5.41715 6.8711C4.55845 7.38639 4.49637 7.80935 4.49637 7.88519C4.49637 7.96104 4.55845 8.384 5.41715 8.89929C6.2346 9.38983 7.4978 9.76048 9.00404 9.76048C10.5103 9.76048 11.7735 9.38983 12.5909 8.89929ZM9.00404 3.9353C12.3438 3.9353 15.1026 5.42786 15.5291 7.36203C15.541 7.34381 15.5468 7.33411 15.5468 7.33411V7.44971C15.5729 7.59271 15.5863 7.73801 15.5863 7.88519C15.5863 7.95465 15.5833 8.02368 15.5774 8.09225L22.5667 4.9914C23.0832 4.76228 23.6875 4.99519 23.9167 5.51162C24.1458 6.02805 23.9129 6.63243 23.3964 6.86155L15.5468 10.3441V12.5756L22.7535 9.96687C23.2848 9.77457 23.8713 10.0493 24.0636 10.5806C24.2559 11.1118 23.9812 11.6984 23.4499 11.8907L15.5468 14.7514V17.2533C15.5468 17.2533 15.5468 21.0784 9.09914 21.0784C5.73974 21.0784 4.07627 20.04 3.25345 19.0453L1.76091 19.5713C1.21572 19.7634 0.619788 19.4657 0.445986 18.9144C0.280215 18.3886 0.561247 17.826 1.08125 17.6427L2.45107 17.16V15.5625L1.95967 15.7941C1.43755 16.0403 0.815315 15.8057 0.585623 15.2762C0.365874 14.7695 0.588135 14.1799 1.08765 13.9444L2.45107 13.3017V10.311V8.26031C2.43168 8.13684 2.42177 8.01171 2.42177 7.88519C2.42177 5.70373 5.36875 3.9353 9.00404 3.9353ZM4.69733 16.7403C4.64264 16.7094 4.58517 16.6835 4.52567 16.663V14.5844L4.62324 14.5384L6.29227 13.9448L9.56689 12.78L13.4722 11.3908V13.6875C13.4654 13.7042 13.459 13.7212 13.4531 13.7384L4.69733 16.7403ZM8.82069 8.98732C9.69792 8.98732 10.4091 8.49388 10.4091 7.88518C10.4091 7.27649 9.69792 6.78305 8.82069 6.78305C7.94345 6.78305 7.23232 7.27649 7.23232 7.88518C7.23232 8.49388 7.94345 8.98732 8.82069 8.98732Z" fill="#00CB92"/>
</g>
<defs>
<clipPath id="clip0_445_36295">
<rect width="24" height="24" fill="white" transform="translate(0.125 0.078125)"/>
</clipPath>
</defs>
</svg>
