<svg width="24" height="25" viewBox="0 0 24 25" fill="none" xmlns="http://www.w3.org/2000/svg">
<mask id="path-1-inside-1_437_9166" fill="white">
<path fill-rule="evenodd" clip-rule="evenodd" d="M12.004 23.3573C18.2154 23.3551 23.25 18.3192 23.25 12.1073C23.25 5.8941 18.2132 0.8573 12 0.8573C5.7868 0.8573 0.75 5.8941 0.75 12.1073C0.75 18.3205 5.7868 23.3573 12 23.3573H12.004ZM12.0001 21.7502C12.1224 21.7502 12.3732 21.6992 12.7479 21.3293C13.1296 20.9527 13.547 20.328 13.9322 19.4292C14.3239 18.5153 14.6496 17.3944 14.8747 16.1251H9.1256C9.35072 17.3944 9.6764 18.5153 10.0681 19.4292C10.4533 20.328 10.8707 20.9527 11.2523 21.3293C11.6271 21.6992 11.8779 21.7502 12.0001 21.7502ZM8.90429 14.5179C8.82732 13.7497 8.78585 12.9428 8.78585 12.1073C8.78585 11.2718 8.82732 10.4648 8.90429 9.69662H15.096C15.173 10.4648 15.2144 11.2718 15.2144 12.1073C15.2144 12.9428 15.173 13.7497 15.096 14.5179H8.90429ZM16.505 16.1251C16.1561 18.2539 15.5379 20.0722 14.7477 21.353C17.4268 20.558 19.6187 18.6304 20.7685 16.1251H16.505ZM21.3391 14.5179H16.7106C16.7833 13.7413 16.8216 12.9348 16.8216 12.1073C16.8216 11.2798 16.7833 10.4732 16.7106 9.69662H21.3391C21.5374 10.4671 21.6429 11.2749 21.6429 12.1073C21.6429 12.9397 21.5374 13.7475 21.3391 14.5179ZM7.28966 14.5179H2.66092C2.46261 13.7475 2.35714 12.9397 2.35714 12.1073C2.35714 11.2749 2.46262 10.4671 2.66093 9.69662H7.28966C7.217 10.4732 7.17871 11.2798 7.17871 12.1073C7.17871 12.9348 7.217 13.7413 7.28966 14.5179ZM3.23146 16.1251H7.49528C7.84424 18.254 8.4624 20.0722 9.25261 21.3531C6.57342 20.5582 4.38134 18.6305 3.23146 16.1251ZM9.12561 8.08948H14.8747C14.6496 6.82017 14.3239 5.69933 13.9322 4.78543C13.547 3.88661 13.1296 3.26191 12.7479 2.88526C12.3732 2.51543 12.1224 2.46444 12.0001 2.46444C11.8779 2.46444 11.6271 2.51543 11.2523 2.88526C10.8707 3.26191 10.4533 3.88661 10.0681 4.78543C9.6764 5.69933 9.35073 6.82017 9.12561 8.08948ZM16.505 8.08948H20.7685C19.6187 5.58419 17.4268 3.65655 14.7477 2.86158C15.5379 4.14244 16.156 5.96065 16.505 8.08948ZM9.25261 2.86147C8.46241 4.14235 7.84424 5.96059 7.49529 8.08948H3.23148C4.38136 5.58408 6.57343 3.65639 9.25261 2.86147Z"/>
</mask>
<path fill-rule="evenodd" clip-rule="evenodd" d="M12.004 23.3573C18.2154 23.3551 23.25 18.3192 23.25 12.1073C23.25 5.8941 18.2132 0.8573 12 0.8573C5.7868 0.8573 0.75 5.8941 0.75 12.1073C0.75 18.3205 5.7868 23.3573 12 23.3573H12.004ZM12.0001 21.7502C12.1224 21.7502 12.3732 21.6992 12.7479 21.3293C13.1296 20.9527 13.547 20.328 13.9322 19.4292C14.3239 18.5153 14.6496 17.3944 14.8747 16.1251H9.1256C9.35072 17.3944 9.6764 18.5153 10.0681 19.4292C10.4533 20.328 10.8707 20.9527 11.2523 21.3293C11.6271 21.6992 11.8779 21.7502 12.0001 21.7502ZM8.90429 14.5179C8.82732 13.7497 8.78585 12.9428 8.78585 12.1073C8.78585 11.2718 8.82732 10.4648 8.90429 9.69662H15.096C15.173 10.4648 15.2144 11.2718 15.2144 12.1073C15.2144 12.9428 15.173 13.7497 15.096 14.5179H8.90429ZM16.505 16.1251C16.1561 18.2539 15.5379 20.0722 14.7477 21.353C17.4268 20.558 19.6187 18.6304 20.7685 16.1251H16.505ZM21.3391 14.5179H16.7106C16.7833 13.7413 16.8216 12.9348 16.8216 12.1073C16.8216 11.2798 16.7833 10.4732 16.7106 9.69662H21.3391C21.5374 10.4671 21.6429 11.2749 21.6429 12.1073C21.6429 12.9397 21.5374 13.7475 21.3391 14.5179ZM7.28966 14.5179H2.66092C2.46261 13.7475 2.35714 12.9397 2.35714 12.1073C2.35714 11.2749 2.46262 10.4671 2.66093 9.69662H7.28966C7.217 10.4732 7.17871 11.2798 7.17871 12.1073C7.17871 12.9348 7.217 13.7413 7.28966 14.5179ZM3.23146 16.1251H7.49528C7.84424 18.254 8.4624 20.0722 9.25261 21.3531C6.57342 20.5582 4.38134 18.6305 3.23146 16.1251ZM9.12561 8.08948H14.8747C14.6496 6.82017 14.3239 5.69933 13.9322 4.78543C13.547 3.88661 13.1296 3.26191 12.7479 2.88526C12.3732 2.51543 12.1224 2.46444 12.0001 2.46444C11.8779 2.46444 11.6271 2.51543 11.2523 2.88526C10.8707 3.26191 10.4533 3.88661 10.0681 4.78543C9.6764 5.69933 9.35073 6.82017 9.12561 8.08948ZM16.505 8.08948H20.7685C19.6187 5.58419 17.4268 3.65655 14.7477 2.86158C15.5379 4.14244 16.156 5.96065 16.505 8.08948ZM9.25261 2.86147C8.46241 4.14235 7.84424 5.96059 7.49529 8.08948H3.23148C4.38136 5.58408 6.57343 3.65639 9.25261 2.86147Z" fill="#878A93" stroke="#878A93" stroke-width="1.875" stroke-linecap="round" mask="url(#path-1-inside-1_437_9166)"/>
</svg>
