<svg width="25" height="25" viewBox="0 0 25 25" fill="none" xmlns="http://www.w3.org/2000/svg">
<path fill-rule="evenodd" clip-rule="evenodd" d="M10.3622 2.36377C5.63171 2.36377 1.79688 6.1986 1.79688 10.9291C1.79688 11.4022 2.18036 11.7856 2.65341 11.7856H23.0653C23.5384 11.7856 23.9219 11.4022 23.9219 10.9291C23.9219 6.1986 20.087 2.36377 15.3565 2.36377H10.3622ZM12.625 6.06689C12.8968 6.06689 13.1172 5.84653 13.1172 5.57471C13.1172 5.30288 12.8968 5.08252 12.625 5.08252C12.3532 5.08252 12.1328 5.30288 12.1328 5.57471C12.1328 5.84653 12.3532 6.06689 12.625 6.06689ZM9.22656 7.56689C9.49839 7.56689 9.71875 7.34653 9.71875 7.07471C9.71875 6.80288 9.49839 6.58252 9.22656 6.58252C8.95473 6.58252 8.73438 6.80288 8.73438 7.07471C8.73438 7.34653 8.95473 7.56689 9.22656 7.56689ZM16.5146 7.07471C16.5146 7.34653 16.2943 7.56689 16.0225 7.56689C15.7506 7.56689 15.5303 7.34653 15.5303 7.07471C15.5303 6.80288 15.7506 6.58252 16.0225 6.58252C16.2943 6.58252 16.5146 6.80288 16.5146 7.07471Z" fill="#FF7E35"/>
<path d="M23.6875 18.0673C23.6875 20.138 22.0089 21.8167 19.9382 21.8167L5.31183 21.8166C3.24113 21.8166 1.5625 20.138 1.5625 18.0673C1.5625 17.8602 1.73036 17.6924 1.93743 17.6924L23.3126 17.6924C23.5196 17.6924 23.6875 17.8602 23.6875 18.0673Z" fill="#FF7E35"/>
<mask id="path-3-inside-1_442_19356" fill="white">
<path d="M13.6898 12.6763H3.00781C2.45553 12.6763 2.00781 13.124 2.00781 13.6763V15.8013C2.00781 16.3536 2.45553 16.8013 3.00781 16.8013H22.2422C22.7945 16.8013 23.2422 16.3536 23.2422 15.8013V13.0566C23.2422 12.8955 23.0615 12.8005 22.9288 12.8918L19.5309 15.229C19.4729 15.2689 19.3982 15.2753 19.3342 15.246L13.7732 12.6945C13.7471 12.6825 13.7186 12.6763 13.6898 12.6763Z"/>
</mask>
<path d="M13.6898 12.6763H3.00781C2.45553 12.6763 2.00781 13.124 2.00781 13.6763V15.8013C2.00781 16.3536 2.45553 16.8013 3.00781 16.8013H22.2422C22.7945 16.8013 23.2422 16.3536 23.2422 15.8013V13.0566C23.2422 12.8955 23.0615 12.8005 22.9288 12.8918L19.5309 15.229C19.4729 15.2689 19.3982 15.2753 19.3342 15.246L13.7732 12.6945C13.7471 12.6825 13.7186 12.6763 13.6898 12.6763Z" fill="#FF7E35" stroke="#FF7E35" stroke-width="2" mask="url(#path-3-inside-1_442_19356)"/>
</svg>
