<svg width="24" height="25" viewBox="0 0 24 25" fill="none" xmlns="http://www.w3.org/2000/svg">
<path fill-rule="evenodd" clip-rule="evenodd" d="M14.8547 9.74474C18.9107 11.7128 21.9986 8.43121 21.9986 5.60665C21.9986 3.03469 19.9135 0.949707 17.3414 0.949707C14.9392 0.949707 12.9618 2.7684 12.7111 5.10392H3.35494H3.33975H3.08681H2.4803C2.07858 5.10392 1.85431 5.56766 2.10373 5.88257L2.4803 6.35801L2.63736 6.55629L2.64679 6.5682L9.34442 15.0242V21.7424H5.87271C5.60741 21.7424 5.39233 21.9575 5.39233 22.2228V22.7263C5.39233 22.9916 5.60741 23.2067 5.87271 23.2067L14.1922 23.2067C14.4575 23.2067 14.6725 22.9916 14.6725 22.7263V22.2228C14.6725 21.9575 14.4575 21.7424 14.1922 21.7424H10.8087V14.8596L14.8547 9.74474ZM6.51727 9.09466L6.61211 9.21622L4.51473 6.5682H15.5004L13.5019 9.09463L6.51727 9.09466Z" fill="#6A92FF"/>
</svg>
