<svg width="25" height="25" viewBox="0 0 25 25" fill="none" xmlns="http://www.w3.org/2000/svg">
<path fill-rule="evenodd" clip-rule="evenodd" d="M7.57178 5.71432C7.57178 5.71432 -0.272093 8.39775 0.140743 15.3643C0.553578 22.3309 9.68795 23.0534 12.0618 23.0534C14.4356 23.0534 23.9824 23.0534 24.3432 15.7772C24.7041 8.50096 17.2218 5.71432 17.2218 5.71432C17.2218 5.71432 17.0932 3.41792 15.8285 3.08249C14.5638 2.74706 13.7389 4.07588 13.7389 4.07588C13.7389 4.07588 14.3069 1.43115 12.3456 1.43115C10.3842 1.43115 10.9007 4.01137 10.9007 4.01137C10.9007 4.01137 10.2685 2.78577 8.86189 3.08249C7.45528 3.37922 7.57178 5.71432 7.57178 5.71432ZM9.13794 8.09549C8.7786 7.81475 8.25972 7.87846 7.97897 8.2378L5.73128 11.1147C5.45054 11.474 5.51425 11.9929 5.87359 12.2737C6.23292 12.5544 6.75181 12.4907 7.03256 12.1314L9.28025 9.25446C9.56099 8.89513 9.49728 8.37624 9.13794 8.09549ZM11.415 9.13329C11.415 8.67728 11.7847 8.30762 12.2407 8.30762C12.6967 8.30762 13.0664 8.67728 13.0664 9.13329V12.7841C13.0664 13.2401 12.6967 13.6098 12.2407 13.6098C11.7847 13.6098 11.415 13.2401 11.415 12.7841V9.13329ZM15.4983 8.09543C15.139 8.37617 15.0752 8.89506 15.356 9.2544L17.6037 12.1313C17.8844 12.4906 18.4033 12.5544 18.7626 12.2736C19.122 11.9929 19.1857 11.474 18.905 11.1146L16.6573 8.23773C16.3765 7.87839 15.8576 7.81468 15.4983 8.09543Z" fill="#00CB92"/>
</svg>
