<svg width="25" height="25" viewBox="0 0 25 25" fill="none" xmlns="http://www.w3.org/2000/svg">
<path fill-rule="evenodd" clip-rule="evenodd" d="M2.78418 2.75781V20.4377H17.0353V15.8072C17.3297 15.8632 17.6335 15.8924 17.9441 15.8924C20.617 15.8924 22.7838 13.7257 22.7838 11.0528C22.7838 8.37992 20.617 6.21313 17.9441 6.21313C17.6335 6.21313 17.3297 6.2424 17.0353 6.29834V2.75781H2.78418ZM17.0353 13.4715V8.63404C17.318 8.52776 17.6243 8.46962 17.9441 8.46962C19.3708 8.46962 20.5273 9.62614 20.5273 11.0528C20.5273 12.4794 19.3708 13.636 17.9441 13.636C17.6243 13.636 17.318 13.5778 17.0353 13.4715Z" fill="#AD75F9"/>
</svg>
