<svg width="24" height="24" viewBox="0 0 24 24" fill="none" xmlns="http://www.w3.org/2000/svg">
<path d="M11.4 3.41915C11.4451 3.29624 11.5268 3.19013 11.6341 3.11517C11.7414 3.0402 11.8691 3 12 3C12.1309 3 12.2586 3.0402 12.3659 3.11517C12.4732 3.19013 12.5549 3.29624 12.6 3.41915L13.2104 5.08702C13.6895 6.3948 14.4479 7.58246 15.4327 8.5673C16.4175 9.55214 17.6052 10.3105 18.913 10.7896L20.5808 11.4C20.7038 11.4451 20.8099 11.5268 20.8848 11.6341C20.9598 11.7414 21 11.8691 21 12C21 12.1309 20.9598 12.2586 20.8848 12.3659C20.8099 12.4732 20.7038 12.5549 20.5808 12.6L18.913 13.2104C17.6052 13.6895 16.4175 14.4479 15.4327 15.4327C14.4479 16.4175 13.6895 17.6052 13.2104 18.913L12.6 20.5809C12.5549 20.7038 12.4732 20.8099 12.3659 20.8848C12.2586 20.9598 12.1309 21 12 21C11.8691 21 11.7414 20.9598 11.6341 20.8848C11.5268 20.8099 11.4451 20.7038 11.4 20.5809L10.7896 18.913C10.3105 17.6052 9.55214 16.4175 8.5673 15.4327C7.58246 14.4479 6.3948 13.6895 5.08702 13.2104L3.41915 12.6C3.29624 12.5549 3.19013 12.4732 3.11517 12.3659C3.0402 12.2586 3 12.1309 3 12C3 11.8691 3.0402 11.7414 3.11517 11.6341C3.19013 11.5268 3.29624 11.4451 3.41915 11.4L5.08702 10.7896C6.3948 10.3105 7.58246 9.55214 8.5673 8.5673C9.55214 7.58246 10.3105 6.3948 10.7896 5.08702L11.4 3.41915Z" fill="#989BA2"/>
</svg>
