<svg width="24" height="24" viewBox="0 0 24 24" fill="none" xmlns="http://www.w3.org/2000/svg">
<path d="M11.9 3.91915C11.9451 3.79624 12.0268 3.69013 12.1341 3.61517C12.2414 3.5402 12.3691 3.5 12.5 3.5C12.6309 3.5 12.7586 3.5402 12.8659 3.61517C12.9732 3.69013 13.0549 3.79624 13.1 3.91915L13.7104 5.58702C14.1895 6.8948 14.9479 8.08246 15.9327 9.0673C16.9175 10.0521 18.1052 10.8105 19.413 11.2896L21.0808 11.9C21.2038 11.9451 21.3099 12.0268 21.3848 12.1341C21.4598 12.2414 21.5 12.3691 21.5 12.5C21.5 12.6309 21.4598 12.7586 21.3848 12.8659C21.3099 12.9732 21.2038 13.0549 21.0808 13.1L19.413 13.7104C18.1052 14.1895 16.9175 14.9479 15.9327 15.9327C14.9479 16.9175 14.1895 18.1052 13.7104 19.413L13.1 21.0809C13.0549 21.2038 12.9732 21.3099 12.8659 21.3848C12.7586 21.4598 12.6309 21.5 12.5 21.5C12.3691 21.5 12.2414 21.4598 12.1341 21.3848C12.0268 21.3099 11.9451 21.2038 11.9 21.0809L11.2896 19.413C10.8105 18.1052 10.0521 16.9175 9.0673 15.9327C8.08246 14.9479 6.8948 14.1895 5.58702 13.7104L3.91915 13.1C3.79624 13.0549 3.69013 12.9732 3.61517 12.8659C3.5402 12.7586 3.5 12.6309 3.5 12.5C3.5 12.3691 3.5402 12.2414 3.61517 12.1341C3.69013 12.0268 3.79624 11.9451 3.91915 11.9L5.58702 11.2896C6.8948 10.8105 8.08246 10.0521 9.0673 9.0673C10.0521 8.08246 10.8105 6.8948 11.2896 5.58702L11.9 3.91915Z" fill="#989BA2"/>
</svg>
