<svg width="24" height="24" viewBox="0 0 24 24" fill="none" xmlns="http://www.w3.org/2000/svg">
<path d="M2.09933 12.6869C1.79173 12.2735 1.79173 11.7268 2.09933 11.3134C3.3038 9.69466 6.7611 5.77515 12 5.77515C17.2389 5.77515 20.6962 9.69466 21.9007 11.3134C22.2083 11.7268 22.2083 12.2735 21.9007 12.6869C20.6962 14.3056 17.2389 18.2251 12 18.2251C6.7611 18.2251 3.3038 14.3056 2.09933 12.6869Z" fill="url(#paint0_radial_447_3367)"/>
<path d="M11.7239 8.04337C11.7447 7.9867 11.7824 7.93777 11.8318 7.9032C11.8813 7.86863 11.9402 7.8501 12.0006 7.8501C12.0609 7.8501 12.1198 7.86863 12.1693 7.9032C12.2188 7.93777 12.2565 7.9867 12.2772 8.04337L12.5587 8.81245C12.7796 9.41548 13.1293 9.96312 13.5834 10.4172C14.0376 10.8714 14.5852 11.2211 15.1882 11.442L15.9573 11.7235C16.014 11.7442 16.0629 11.7819 16.0975 11.8314C16.132 11.8808 16.1506 11.9397 16.1506 12.0001C16.1506 12.0605 16.132 12.1194 16.0975 12.1688C16.0629 12.2183 16.014 12.256 15.9573 12.2767L15.1882 12.5582C14.5852 12.7791 14.0376 13.1288 13.5834 13.583C13.1293 14.0371 12.7796 14.5847 12.5587 15.1877L12.2772 15.9568C12.2565 16.0135 12.2188 16.0624 12.1693 16.097C12.1198 16.1316 12.0609 16.1501 12.0006 16.1501C11.9402 16.1501 11.8813 16.1316 11.8318 16.097C11.7824 16.0624 11.7447 16.0135 11.7239 15.9568L11.4425 15.1877C11.2215 14.5847 10.8718 14.0371 10.4177 13.583C9.96361 13.1288 9.41597 12.7791 8.81293 12.5582L8.04386 12.2767C7.98719 12.256 7.93826 12.2183 7.90369 12.1688C7.86912 12.1194 7.85059 12.0605 7.85059 12.0001C7.85059 11.9397 7.86912 11.8808 7.90369 11.8314C7.93826 11.7819 7.98719 11.7442 8.04386 11.7235L8.81293 11.442C9.41597 11.2211 9.96361 10.8714 10.4177 10.4172C10.8718 9.96312 11.2215 9.41548 11.4425 8.81245L11.7239 8.04337Z" fill="white"/>
<defs>
<radialGradient id="paint0_radial_447_3367" cx="0" cy="0" r="1" gradientUnits="userSpaceOnUse" gradientTransform="translate(22.375 5.77515) rotate(149.036) scale(24.1985 21.3516)">
<stop offset="0.545" stop-color="#171719"/>
<stop offset="1" stop-color="#878A93"/>
</radialGradient>
</defs>
</svg>
