<svg width="24" height="24" viewBox="0 0 24 24" fill="none" xmlns="http://www.w3.org/2000/svg">
<circle cx="12.4" cy="11.8004" r="9.4" fill="#C2C4C8"/>
<path d="M10.9411 14.4321C10.9571 12.3911 11.5357 11.7643 12.5482 11.1375C13.2393 10.7036 13.7536 10.1571 13.7536 9.35357C13.7536 8.45357 13.0625 7.875 12.1786 7.875C11.375 7.875 10.6036 8.38929 10.5554 9.46607H8.54643C8.59464 7.3125 10.2179 6.20357 12.1946 6.20357C14.3643 6.20357 15.8589 7.40893 15.8589 9.32143C15.8589 10.6232 15.2 11.475 14.1554 12.1018C13.2232 12.6643 12.8375 13.2268 12.8214 14.4321V14.5768H10.9411V14.4321ZM11.9375 18.1286C11.2464 18.1286 10.6839 17.5661 10.6839 16.875C10.6839 16.2 11.2464 15.6375 11.9375 15.6375C12.5964 15.6375 13.175 16.2 13.175 16.875C13.175 17.5661 12.5964 18.1286 11.9375 18.1286Z" fill="white"/>
</svg>
