<svg width="24" height="25" viewBox="0 0 24 25" fill="none" xmlns="http://www.w3.org/2000/svg">
<path fill-rule="evenodd" clip-rule="evenodd" d="M12.4659 8.89929C13.3246 8.384 13.3867 7.96104 13.3867 7.88519C13.3867 7.80935 13.3246 7.38639 12.4659 6.8711C11.6485 6.38056 10.3853 6.00991 8.87904 6.00991C7.3728 6.00991 6.1096 6.38056 5.29215 6.8711C4.43345 7.38639 4.37137 7.80935 4.37137 7.88519C4.37137 7.96104 4.43345 8.384 5.29215 8.89929C6.1096 9.38983 7.3728 9.76048 8.87904 9.76048C10.3853 9.76048 11.6485 9.38983 12.4659 8.89929ZM8.87904 3.9353C12.2188 3.9353 14.9776 5.42786 15.4041 7.36203C15.416 7.34381 15.4218 7.33411 15.4218 7.33411V7.44971C15.4479 7.59271 15.4613 7.73801 15.4613 7.88519C15.4613 7.95465 15.4583 8.02368 15.4524 8.09225L22.4417 4.9914C22.9582 4.76228 23.5625 4.99519 23.7917 5.51162C24.0208 6.02805 23.7879 6.63243 23.2714 6.86155L15.4218 10.3441V12.5756L22.6285 9.96687C23.1598 9.77457 23.7463 10.0493 23.9386 10.5806C24.1309 11.1118 23.8562 11.6984 23.3249 11.8907L15.4218 14.7514V17.2533C15.4218 17.2533 15.4218 21.0784 8.97414 21.0784C5.61474 21.0784 3.95127 20.04 3.12845 19.0453L1.63591 19.5713C1.09072 19.7634 0.494788 19.4657 0.320986 18.9144C0.155215 18.3886 0.436247 17.826 0.956249 17.6427L2.32607 17.16V15.5625L1.83467 15.7941C1.31255 16.0403 0.690315 15.8057 0.460623 15.2762C0.240874 14.7695 0.463135 14.1799 0.962652 13.9444L2.32607 13.3017V10.311V8.26031C2.30668 8.13684 2.29677 8.01171 2.29677 7.88519C2.29677 5.70373 5.24375 3.9353 8.87904 3.9353ZM4.57233 16.7403C4.51764 16.7094 4.46017 16.6835 4.40067 16.663V14.5844L4.49824 14.5384L6.16727 13.9448L9.44189 12.78L13.3472 11.3908V13.6875C13.3404 13.7042 13.334 13.7212 13.3281 13.7384L4.57233 16.7403ZM8.69569 8.98732C9.57292 8.98732 10.2841 8.49388 10.2841 7.88518C10.2841 7.27649 9.57292 6.78305 8.69569 6.78305C7.81845 6.78305 7.10732 7.27649 7.10732 7.88518C7.10732 8.49388 7.81845 8.98732 8.69569 8.98732Z" fill="#6A92FF"/>
</svg>
