<svg width="25" height="25" viewBox="0 0 25 25" fill="none" xmlns="http://www.w3.org/2000/svg">
<path fill-rule="evenodd" clip-rule="evenodd" d="M7.44678 5.74337C7.44678 5.74337 -0.397093 8.4268 0.0157426 15.3934C0.428578 22.36 9.56295 23.0825 11.9368 23.0825C14.3106 23.0825 23.8574 23.0825 24.2182 15.8062C24.5791 8.53001 17.0968 5.74337 17.0968 5.74337C17.0968 5.74337 16.9682 3.44698 15.7035 3.11155C14.4388 2.77612 13.6139 4.10493 13.6139 4.10493C13.6139 4.10493 14.1819 1.46021 12.2206 1.46021C10.2592 1.46021 10.7757 4.04043 10.7757 4.04043C10.7757 4.04043 10.1435 2.81482 8.73689 3.11155C7.33028 3.40827 7.44678 5.74337 7.44678 5.74337ZM9.01294 8.12454C8.6536 7.8438 8.13472 7.90751 7.85397 8.26685L5.60628 11.1438C5.32554 11.5031 5.38925 12.022 5.74859 12.3027C6.10792 12.5835 6.62681 12.5198 6.90756 12.1604L9.15525 9.28352C9.43599 8.92418 9.37228 8.40529 9.01294 8.12454ZM11.29 9.16222C11.29 8.70621 11.6597 8.33655 12.1157 8.33655C12.5717 8.33655 12.9414 8.70621 12.9414 9.16222V12.8131C12.9414 13.2691 12.5717 13.6387 12.1157 13.6387C11.6597 13.6387 11.29 13.2691 11.29 12.8131V9.16222ZM15.3733 8.1246C15.014 8.40535 14.9502 8.92424 15.231 9.28357L17.4787 12.1605C17.7594 12.5198 18.2783 12.5835 18.6376 12.3028C18.997 12.022 19.0607 11.5031 18.78 11.1438L16.5323 8.2669C16.2515 7.90757 15.7326 7.84386 15.3733 8.1246Z" fill="#878A93"/>
</svg>
