<svg width="25" height="25" viewBox="0 0 25 25" fill="none" xmlns="http://www.w3.org/2000/svg">
<path fill-rule="evenodd" clip-rule="evenodd" d="M7.87647 5.85067C7.87647 5.85067 0.0325946 8.5341 0.44543 15.5007C0.858266 22.4673 9.99263 23.1898 12.3664 23.1898C14.7402 23.1898 24.2871 23.1898 24.6479 15.9135C25.0088 8.63731 17.5265 5.85067 17.5265 5.85067C17.5265 5.85067 17.3979 3.55428 16.1332 3.21885C14.8685 2.88342 14.0436 4.21223 14.0436 4.21223C14.0436 4.21223 14.6116 1.5675 12.6503 1.5675C10.6889 1.5675 11.2053 4.14773 11.2053 4.14773C11.2053 4.14773 10.5732 2.92212 9.16658 3.21885C7.75997 3.51557 7.87647 5.85067 7.87647 5.85067ZM9.44263 8.23178C9.08329 7.95104 8.5644 8.01475 8.28366 8.37409L6.03597 11.251C5.75523 11.6103 5.81894 12.1292 6.17827 12.41C6.53761 12.6907 7.0565 12.627 7.33725 12.2677L9.58493 9.39075C9.86568 9.03142 9.80197 8.51253 9.44263 8.23178ZM11.7197 9.26952C11.7197 8.81351 12.0894 8.44385 12.5454 8.44385C13.0014 8.44385 13.3711 8.81351 13.3711 9.26952V12.9204C13.3711 13.3764 13.0014 13.746 12.5454 13.746C12.0894 13.746 11.7197 13.3764 11.7197 12.9204V9.26952ZM15.803 8.23178C15.4436 8.51252 15.3799 9.03141 15.6607 9.39075L17.9084 12.2677C18.1891 12.627 18.708 12.6907 19.0673 12.41C19.4267 12.1292 19.4904 11.6103 19.2096 11.251L16.962 8.37408C16.6812 8.01475 16.1623 7.95103 15.803 8.23178Z" fill="white"/>
</svg>
