<svg width="25" height="25" viewBox="0 0 25 25" fill="none" xmlns="http://www.w3.org/2000/svg">
<path fill-rule="evenodd" clip-rule="evenodd" d="M2.07812 2.70044V20.3803H16.3292V15.7499C16.6236 15.8058 16.9274 15.8351 17.2381 15.8351C19.911 15.8351 22.0777 13.6683 22.0777 10.9954C22.0777 8.32255 19.911 6.15576 17.2381 6.15576C16.9274 6.15576 16.6236 6.18503 16.3292 6.24096V2.70044H2.07812ZM16.3292 13.4142V8.57666C16.612 8.47038 16.9182 8.41225 17.2381 8.41225C18.6647 8.41225 19.8213 9.56877 19.8213 10.9954C19.8213 12.4221 18.6647 13.5786 17.2381 13.5786C16.9182 13.5786 16.612 13.5205 16.3292 13.4142Z" fill="#FF7E84"/>
</svg>
