<svg width="25" height="25" viewBox="0 0 25 25" fill="none" xmlns="http://www.w3.org/2000/svg">
<path fill-rule="evenodd" clip-rule="evenodd" d="M2.28125 2.75854V20.4384H16.5324V15.808C16.8267 15.8639 17.1306 15.8932 17.4412 15.8932C20.1141 15.8932 22.2809 13.7264 22.2809 11.0535C22.2809 8.38065 20.1141 6.21387 17.4412 6.21387C17.1306 6.21387 16.8267 6.24314 16.5324 6.29907V2.75854H2.28125ZM16.5324 13.4723V8.63477C16.8151 8.52849 17.1214 8.47035 17.4412 8.47035C18.8679 8.47035 20.0244 9.62688 20.0244 11.0535C20.0244 12.4802 18.8679 13.6367 17.4412 13.6367C17.1214 13.6367 16.8151 13.5786 16.5324 13.4723Z" fill="#00CB92"/>
</svg>
