<svg width="25" height="25" viewBox="0 0 25 25" fill="none" xmlns="http://www.w3.org/2000/svg">
<path fill-rule="evenodd" clip-rule="evenodd" d="M10.2372 2.36377C5.50671 2.36377 1.67188 6.1986 1.67188 10.9291C1.67188 11.4022 2.05536 11.7856 2.52841 11.7856H22.9403C23.4134 11.7856 23.7969 11.4022 23.7969 10.9291C23.7969 6.1986 19.962 2.36377 15.2315 2.36377H10.2372ZM12.5 6.06689C12.7718 6.06689 12.9922 5.84653 12.9922 5.57471C12.9922 5.30288 12.7718 5.08252 12.5 5.08252C12.2282 5.08252 12.0078 5.30288 12.0078 5.57471C12.0078 5.84653 12.2282 6.06689 12.5 6.06689ZM9.10156 7.56689C9.37339 7.56689 9.59375 7.34653 9.59375 7.07471C9.59375 6.80288 9.37339 6.58252 9.10156 6.58252C8.82973 6.58252 8.60938 6.80288 8.60938 7.07471C8.60938 7.34653 8.82973 7.56689 9.10156 7.56689ZM16.3896 7.07471C16.3896 7.34653 16.1693 7.56689 15.8975 7.56689C15.6256 7.56689 15.4053 7.34653 15.4053 7.07471C15.4053 6.80288 15.6256 6.58252 15.8975 6.58252C16.1693 6.58252 16.3896 6.80288 16.3896 7.07471Z" fill="#FF7E84"/>
<path d="M23.5625 18.0673C23.5625 20.138 21.8839 21.8167 19.8132 21.8167L5.18683 21.8166C3.11613 21.8166 1.4375 20.138 1.4375 18.0673C1.4375 17.8602 1.60536 17.6924 1.81243 17.6924L23.1876 17.6924C23.3946 17.6924 23.5625 17.8602 23.5625 18.0673Z" fill="#FF7E84"/>
<mask id="path-3-inside-1_442_19349" fill="white">
<path d="M13.5648 12.6763H2.88281C2.33053 12.6763 1.88281 13.124 1.88281 13.6763V15.8013C1.88281 16.3536 2.33053 16.8013 2.88281 16.8013H22.1172C22.6695 16.8013 23.1172 16.3536 23.1172 15.8013V13.0566C23.1172 12.8955 22.9365 12.8005 22.8038 12.8918L19.4059 15.229C19.3479 15.2689 19.2732 15.2753 19.2092 15.246L13.6482 12.6945C13.6221 12.6825 13.5936 12.6763 13.5648 12.6763Z"/>
</mask>
<path d="M13.5648 12.6763H2.88281C2.33053 12.6763 1.88281 13.124 1.88281 13.6763V15.8013C1.88281 16.3536 2.33053 16.8013 2.88281 16.8013H22.1172C22.6695 16.8013 23.1172 16.3536 23.1172 15.8013V13.0566C23.1172 12.8955 22.9365 12.8005 22.8038 12.8918L19.4059 15.229C19.3479 15.2689 19.2732 15.2753 19.2092 15.246L13.6482 12.6945C13.6221 12.6825 13.5936 12.6763 13.5648 12.6763Z" fill="#FF7E84" stroke="#FF7E84" stroke-width="2" mask="url(#path-3-inside-1_442_19349)"/>
</svg>
