<svg width="25" height="25" viewBox="0 0 25 25" fill="none" xmlns="http://www.w3.org/2000/svg">
<path fill-rule="evenodd" clip-rule="evenodd" d="M7.94678 5.65621C7.94678 5.65621 0.102907 8.33964 0.515743 15.3062C0.928578 22.2728 10.0629 22.9953 12.4368 22.9953C14.8106 22.9953 24.3574 22.9953 24.7182 15.7191C25.0791 8.44285 17.5968 5.65621 17.5968 5.65621C17.5968 5.65621 17.4682 3.35982 16.2035 3.02439C14.9388 2.68896 14.1139 4.01777 14.1139 4.01777C14.1139 4.01777 14.6819 1.37305 12.7206 1.37305C10.7592 1.37305 11.2757 3.95327 11.2757 3.95327C11.2757 3.95327 10.6435 2.72766 9.23689 3.02439C7.83028 3.32111 7.94678 5.65621 7.94678 5.65621ZM9.51294 8.03739C9.1536 7.75664 8.63472 7.82035 8.35397 8.17969L6.10628 11.0566C5.82554 11.4159 5.88925 11.9348 6.24859 12.2156C6.60792 12.4963 7.12681 12.4326 7.40756 12.0733L9.65525 9.19636C9.93599 8.83702 9.87228 8.31813 9.51294 8.03739ZM11.79 9.07518C11.79 8.61918 12.1597 8.24951 12.6157 8.24951C13.0717 8.24951 13.4414 8.61918 13.4414 9.07518V12.726C13.4414 13.182 13.0717 13.5517 12.6157 13.5517C12.1597 13.5517 11.79 13.182 11.79 12.726V9.07518ZM15.8733 8.03732C15.514 8.31807 15.4502 8.83696 15.731 9.19629L17.9787 12.0732C18.2594 12.4325 18.7783 12.4962 19.1376 12.2155C19.497 11.9348 19.5607 11.4159 19.28 11.0565L17.0323 8.17962C16.7515 7.82029 16.2326 7.75658 15.8733 8.03732Z" fill="#FF7E84"/>
</svg>
