<svg width="25" height="25" viewBox="0 0 25 25" fill="none" xmlns="http://www.w3.org/2000/svg">
<path d="M22.2689 12.3589H2.79921C2.52845 12.3589 2.31118 12.5732 2.33408 12.843C2.42213 13.8802 2.86269 16.4084 5.03191 18.687C7.72728 21.5183 11.8434 21.549 12.1816 21.5467C12.1982 21.5465 12.2095 21.5469 12.226 21.5479C12.5624 21.5689 16.6495 21.7628 19.7038 19.0151C22.2044 16.7655 22.6568 13.9489 22.7356 12.8395C22.7547 12.5712 22.5379 12.3589 22.2689 12.3589Z" fill="#AD75F9" stroke="#AD75F9"/>
<rect x="8.12598" y="21.4058" width="9.1875" height="1.5" rx="0.75" fill="#AD75F9"/>
<path d="M3.25098 12.7341C3.25098 12.7341 4.28225 3.54661 12.5322 3.64036C20.7822 3.73411 21.5322 12.7341 21.5322 12.7341" stroke="#AD75F9"/>
</svg>
