<svg width="24" height="24" viewBox="0 0 24 24" fill="none" xmlns="http://www.w3.org/2000/svg">
<path fill-rule="evenodd" clip-rule="evenodd" d="M14.8556 9.66661C18.9117 11.6347 21.9996 8.35308 21.9996 5.52853C21.9996 2.95657 19.9145 0.871582 17.3424 0.871582C14.9402 0.871582 12.9628 2.69027 12.7121 5.0258H3.35592H3.34073H3.08778H2.48128C2.07956 5.0258 1.85529 5.48954 2.10471 5.80445L2.48128 6.27988L2.63833 6.47816L2.64776 6.49007L9.3454 14.9461V21.6643H5.87369C5.60838 21.6643 5.39331 21.8794 5.39331 22.1447V22.6482C5.39331 22.9135 5.60838 23.1286 5.87369 23.1286L14.1931 23.1286C14.4584 23.1286 14.6735 22.9135 14.6735 22.6482V22.1447C14.6735 21.8794 14.4584 21.6643 14.1931 21.6643H10.8097V14.7815L14.8556 9.66661ZM6.51825 9.01654L6.61308 9.1381L4.5157 6.49007H15.5013L13.5029 9.01651L6.51825 9.01654Z" fill="#FF5235"/>
</svg>
