<svg width="25" height="25" viewBox="0 0 25 25" fill="none" xmlns="http://www.w3.org/2000/svg">
<g clip-path="url(#clip0_445_36293)">
<path fill-rule="evenodd" clip-rule="evenodd" d="M13.0909 8.84119C13.9496 8.3259 14.0117 7.90294 14.0117 7.82709C14.0117 7.75124 13.9496 7.32828 13.0909 6.81299C12.2735 6.32245 11.0103 5.9518 9.50404 5.9518C7.9978 5.9518 6.7346 6.32245 5.91715 6.81299C5.05845 7.32828 4.99637 7.75124 4.99637 7.82709C4.99637 7.90294 5.05845 8.3259 5.91715 8.84119C6.7346 9.33172 7.9978 9.70237 9.50404 9.70237C11.0103 9.70237 12.2735 9.33172 13.0909 8.84119ZM9.50404 3.8772C12.8438 3.8772 15.6026 5.36975 16.0291 7.30392C16.041 7.2857 16.0468 7.276 16.0468 7.276V7.3916C16.0729 7.53461 16.0863 7.67991 16.0863 7.82709C16.0863 7.89654 16.0833 7.96557 16.0774 8.03414L23.0667 4.93329C23.5832 4.70417 24.1875 4.93709 24.4167 5.45352C24.6458 5.96994 24.4129 6.57433 23.8964 6.80345L16.0468 10.286V12.5175L23.2535 9.90876C23.7848 9.71646 24.3713 9.99123 24.5636 10.5225C24.7559 11.0537 24.4812 11.6402 23.9499 11.8325L16.0468 14.6933V17.1952C16.0468 17.1952 16.0468 21.0203 9.59914 21.0203C6.23974 21.0203 4.57627 19.9819 3.75345 18.9872L2.26091 19.5132C1.71572 19.7053 1.11979 19.4076 0.945986 18.8563C0.780215 18.3304 1.06125 17.7679 1.58125 17.5846L2.95107 17.1019V15.5044L2.45967 15.736C1.93755 15.9822 1.31532 15.7476 1.08562 15.218C0.865874 14.7114 1.08814 14.1218 1.58765 13.8863L2.95107 13.2436V10.2529V8.20221C2.93168 8.07873 2.92177 7.95361 2.92177 7.82709C2.92177 5.64562 5.86875 3.8772 9.50404 3.8772ZM5.19733 16.6822C5.14264 16.6513 5.08517 16.6254 5.02567 16.6049V14.5263L5.12324 14.4803L6.79227 13.8866L10.0669 12.7219L13.9722 11.3327V13.6294C13.9654 13.6461 13.959 13.6631 13.9531 13.6802L5.19733 16.6822ZM9.32069 8.92921C10.1979 8.92921 10.9091 8.43577 10.9091 7.82708C10.9091 7.21839 10.1979 6.72495 9.32069 6.72495C8.44345 6.72495 7.73232 7.21839 7.73232 7.82708C7.73232 8.43577 8.44345 8.92921 9.32069 8.92921Z" fill="#FF7E35"/>
</g>
<defs>
<clipPath id="clip0_445_36293">
<rect width="24" height="24" fill="white" transform="translate(0.625 0.0200195)"/>
</clipPath>
</defs>
</svg>
