<svg width="24" height="24" viewBox="0 0 24 24" fill="none" xmlns="http://www.w3.org/2000/svg">
<path fill-rule="evenodd" clip-rule="evenodd" d="M11.25 2.69653C15.8064 2.69653 19.5 6.58701 19.5 11.3862C19.5 15.2194 16.5901 18.1219 14.0021 20.7035C12.9632 21.7397 11.9761 22.7243 11.25 23.6965C10.5239 22.7243 9.53684 21.7397 8.49794 20.7035C5.90989 18.1219 3 15.2194 3 11.3862C3 6.58701 6.69363 2.69653 11.25 2.69653ZM11.25 14.2465C12.9586 14.2465 14.3438 12.8362 14.3438 11.0965C14.3438 9.35684 12.9586 7.94653 11.25 7.94653C9.54137 7.94653 8.15625 9.35684 8.15625 11.0965C8.15625 12.8362 9.54137 14.2465 11.25 14.2465Z" fill="#FF5235"/>
<circle cx="18.4407" cy="7.05884" r="3.93068" transform="rotate(-45 18.4407 7.05884)" fill="#FFCEC6"/>
<path d="M18.4403 9.28234L18.4403 4.83531M16.2168 7.05886L20.6639 7.05884" stroke="#FF5235" stroke-width="0.76548" stroke-linecap="round"/>
</svg>
