<svg width="25" height="25" viewBox="0 0 25 25" fill="none" xmlns="http://www.w3.org/2000/svg">
<path fill-rule="evenodd" clip-rule="evenodd" d="M10.1669 2.55835C5.4364 2.55835 1.60156 6.39318 1.60156 11.1237C1.60156 11.5967 1.98505 11.9802 2.4581 11.9802H22.87C23.3431 11.9802 23.7266 11.5967 23.7266 11.1237C23.7266 6.39318 19.8917 2.55835 15.1612 2.55835H10.1669ZM12.4297 6.26147C12.7015 6.26147 12.9219 6.04111 12.9219 5.76929C12.9219 5.49746 12.7015 5.2771 12.4297 5.2771C12.1579 5.2771 11.9375 5.49746 11.9375 5.76929C11.9375 6.04111 12.1579 6.26147 12.4297 6.26147ZM9.03125 7.76147C9.30308 7.76147 9.52344 7.54111 9.52344 7.26929C9.52344 6.99746 9.30308 6.7771 9.03125 6.7771C8.75942 6.7771 8.53906 6.99746 8.53906 7.26929C8.53906 7.54111 8.75942 7.76147 9.03125 7.76147ZM16.3193 7.26929C16.3193 7.54111 16.099 7.76147 15.8271 7.76147C15.5553 7.76147 15.335 7.54111 15.335 7.26929C15.335 6.99746 15.5553 6.7771 15.8271 6.7771C16.099 6.7771 16.3193 6.99746 16.3193 7.26929Z" fill="white"/>
<path d="M23.4922 18.2618C23.4922 20.3325 21.8136 22.0111 19.7429 22.0111L5.11652 22.0111C3.04582 22.0111 1.36719 20.3325 1.36719 18.2618C1.36719 18.0547 1.53505 17.8868 1.74212 17.8868L23.1173 17.8868C23.3243 17.8868 23.4922 18.0547 23.4922 18.2618Z" fill="white"/>
<mask id="path-3-inside-1_437_9168" fill="white">
<path d="M13.4945 12.8708H2.8125C2.26022 12.8708 1.8125 13.3186 1.8125 13.8708V15.9958C1.8125 16.5481 2.26022 16.9958 2.8125 16.9958H22.0469C22.5992 16.9958 23.0469 16.5481 23.0469 15.9958V13.2512C23.0469 13.0901 22.8662 12.9951 22.7335 13.0864L19.3356 15.4236C19.2776 15.4635 19.2029 15.4699 19.1389 15.4406L13.5779 12.8891C13.5518 12.8771 13.5233 12.8708 13.4945 12.8708Z"/>
</mask>
<path d="M13.4945 12.8708H2.8125C2.26022 12.8708 1.8125 13.3186 1.8125 13.8708V15.9958C1.8125 16.5481 2.26022 16.9958 2.8125 16.9958H22.0469C22.5992 16.9958 23.0469 16.5481 23.0469 15.9958V13.2512C23.0469 13.0901 22.8662 12.9951 22.7335 13.0864L19.3356 15.4236C19.2776 15.4635 19.2029 15.4699 19.1389 15.4406L13.5779 12.8891C13.5518 12.8771 13.5233 12.8708 13.4945 12.8708Z" fill="white" stroke="white" stroke-width="2" mask="url(#path-3-inside-1_437_9168)"/>
</svg>
