<svg width="24" height="25" viewBox="0 0 24 25" fill="none" xmlns="http://www.w3.org/2000/svg">
<path fill-rule="evenodd" clip-rule="evenodd" d="M14.8547 9.77395C18.9108 11.742 21.9986 8.46037 21.9986 5.63583C21.9986 3.06387 19.9135 0.978882 17.3414 0.978882C14.9392 0.978882 12.9617 2.79764 12.7111 5.13322H3.35494H3.33975H3.08681H2.4803C2.07858 5.13322 1.85431 5.59696 2.10373 5.91187L2.4803 6.3873L2.63736 6.58559L2.64679 6.59749L9.34442 15.0535V21.7715H5.87271C5.60741 21.7715 5.39233 21.9866 5.39233 22.2519V22.7554C5.39233 23.0207 5.60741 23.2358 5.87271 23.2358L14.1922 23.2358C14.4575 23.2358 14.6725 23.0207 14.6725 22.7554V22.2519C14.6725 21.9866 14.4575 21.7715 14.1922 21.7715H10.8087V14.8889L14.8547 9.77395ZM6.51727 9.12396L6.61212 9.24553L4.51473 6.59749H15.5004L13.5019 9.12393L6.51727 9.12396Z" fill="#878A93"/>
</svg>
