<svg width="25" height="25" viewBox="0 0 25 25" fill="none" xmlns="http://www.w3.org/2000/svg">
<mask id="path-1-inside-1_442_19480" fill="white">
<path fill-rule="evenodd" clip-rule="evenodd" d="M12.129 23.3281C18.3404 23.3259 23.375 18.29 23.375 12.0781C23.375 5.86492 18.3382 0.828125 12.125 0.828125C5.9118 0.828125 0.875 5.86492 0.875 12.0781C0.875 18.2913 5.9118 23.3281 12.125 23.3281H12.129ZM12.1251 21.721C12.2474 21.721 12.4982 21.67 12.8729 21.3002C13.2546 20.9235 13.672 20.2988 14.0572 19.4C14.4489 18.4861 14.7746 17.3652 14.9997 16.0959H9.2506C9.47572 17.3652 9.8014 18.4861 10.1931 19.4C10.5783 20.2988 10.9957 20.9235 11.3773 21.3002C11.7521 21.67 12.0029 21.721 12.1251 21.721ZM9.02929 14.4888C8.95232 13.7206 8.91085 12.9136 8.91085 12.0781C8.91085 11.2426 8.95232 10.4357 9.02929 9.66745H15.221C15.298 10.4357 15.3394 11.2426 15.3394 12.0781C15.3394 12.9136 15.298 13.7206 15.221 14.4888H9.02929ZM16.63 16.0959C16.2811 18.2248 15.6629 20.043 14.8727 21.3238C17.5518 20.5289 19.7437 18.6012 20.8935 16.0959H16.63ZM21.4641 14.4888H16.8356C16.9083 13.7122 16.9466 12.9056 16.9466 12.0781C16.9466 11.2507 16.9083 10.4441 16.8356 9.66745H21.4641C21.6624 10.4379 21.7679 11.2457 21.7679 12.0781C21.7679 12.9105 21.6624 13.7183 21.4641 14.4888ZM7.41466 14.4888H2.78592C2.58761 13.7183 2.48214 12.9105 2.48214 12.0781C2.48214 11.2457 2.58762 10.4379 2.78593 9.66745H7.41466C7.342 10.4441 7.30371 11.2507 7.30371 12.0781C7.30371 12.9056 7.342 13.7122 7.41466 14.4888ZM3.35646 16.0959H7.62028C7.96924 18.2248 8.5874 20.0431 9.37761 21.3239C6.69842 20.529 4.50634 18.6013 3.35646 16.0959ZM9.25061 8.0603H14.9997C14.7746 6.79099 14.4489 5.67015 14.0572 4.75626C13.672 3.85744 13.2546 3.23273 12.8729 2.85609C12.4982 2.48625 12.2474 2.43527 12.1251 2.43527C12.0029 2.43527 11.7521 2.48625 11.3773 2.85609C10.9957 3.23273 10.5783 3.85744 10.1931 4.75626C9.8014 5.67015 9.47573 6.79099 9.25061 8.0603ZM16.63 8.0603H20.8935C19.7437 5.55501 17.5518 3.62738 14.8727 2.8324C15.6629 4.11327 16.281 5.93147 16.63 8.0603ZM9.37761 2.8323C8.58741 4.11317 7.96924 5.93142 7.62029 8.0603H3.35648C4.50636 5.55491 6.69843 3.62721 9.37761 2.8323Z"/>
</mask>
<path fill-rule="evenodd" clip-rule="evenodd" d="M12.129 23.3281C18.3404 23.3259 23.375 18.29 23.375 12.0781C23.375 5.86492 18.3382 0.828125 12.125 0.828125C5.9118 0.828125 0.875 5.86492 0.875 12.0781C0.875 18.2913 5.9118 23.3281 12.125 23.3281H12.129ZM12.1251 21.721C12.2474 21.721 12.4982 21.67 12.8729 21.3002C13.2546 20.9235 13.672 20.2988 14.0572 19.4C14.4489 18.4861 14.7746 17.3652 14.9997 16.0959H9.2506C9.47572 17.3652 9.8014 18.4861 10.1931 19.4C10.5783 20.2988 10.9957 20.9235 11.3773 21.3002C11.7521 21.67 12.0029 21.721 12.1251 21.721ZM9.02929 14.4888C8.95232 13.7206 8.91085 12.9136 8.91085 12.0781C8.91085 11.2426 8.95232 10.4357 9.02929 9.66745H15.221C15.298 10.4357 15.3394 11.2426 15.3394 12.0781C15.3394 12.9136 15.298 13.7206 15.221 14.4888H9.02929ZM16.63 16.0959C16.2811 18.2248 15.6629 20.043 14.8727 21.3238C17.5518 20.5289 19.7437 18.6012 20.8935 16.0959H16.63ZM21.4641 14.4888H16.8356C16.9083 13.7122 16.9466 12.9056 16.9466 12.0781C16.9466 11.2507 16.9083 10.4441 16.8356 9.66745H21.4641C21.6624 10.4379 21.7679 11.2457 21.7679 12.0781C21.7679 12.9105 21.6624 13.7183 21.4641 14.4888ZM7.41466 14.4888H2.78592C2.58761 13.7183 2.48214 12.9105 2.48214 12.0781C2.48214 11.2457 2.58762 10.4379 2.78593 9.66745H7.41466C7.342 10.4441 7.30371 11.2507 7.30371 12.0781C7.30371 12.9056 7.342 13.7122 7.41466 14.4888ZM3.35646 16.0959H7.62028C7.96924 18.2248 8.5874 20.0431 9.37761 21.3239C6.69842 20.529 4.50634 18.6013 3.35646 16.0959ZM9.25061 8.0603H14.9997C14.7746 6.79099 14.4489 5.67015 14.0572 4.75626C13.672 3.85744 13.2546 3.23273 12.8729 2.85609C12.4982 2.48625 12.2474 2.43527 12.1251 2.43527C12.0029 2.43527 11.7521 2.48625 11.3773 2.85609C10.9957 3.23273 10.5783 3.85744 10.1931 4.75626C9.8014 5.67015 9.47573 6.79099 9.25061 8.0603ZM16.63 8.0603H20.8935C19.7437 5.55501 17.5518 3.62738 14.8727 2.8324C15.6629 4.11327 16.281 5.93147 16.63 8.0603ZM9.37761 2.8323C8.58741 4.11317 7.96924 5.93142 7.62029 8.0603H3.35648C4.50636 5.55491 6.69843 3.62721 9.37761 2.8323Z" fill="#00CB92" stroke="#00CB92" stroke-width="1.875" stroke-linecap="round" mask="url(#path-1-inside-1_442_19480)"/>
</svg>
