<svg width="25" height="25" viewBox="0 0 25 25" fill="none" xmlns="http://www.w3.org/2000/svg">
<path fill-rule="evenodd" clip-rule="evenodd" d="M10.3632 2.42139C5.63269 2.42139 1.79785 6.25622 1.79785 10.9867C1.79785 11.4598 2.18134 11.8433 2.65439 11.8433H23.0663C23.5394 11.8433 23.9229 11.4598 23.9229 10.9867C23.9229 6.25622 20.088 2.42139 15.3575 2.42139H10.3632ZM12.626 6.12451C12.8978 6.12451 13.1182 5.90415 13.1182 5.63232C13.1182 5.3605 12.8978 5.14014 12.626 5.14014C12.3541 5.14014 12.1338 5.3605 12.1338 5.63232C12.1338 5.90415 12.3541 6.12451 12.626 6.12451ZM9.22754 7.62451C9.49937 7.62451 9.71973 7.40415 9.71973 7.13232C9.71973 6.8605 9.49937 6.64014 9.22754 6.64014C8.95571 6.64014 8.73535 6.8605 8.73535 7.13232C8.73535 7.40415 8.95571 7.62451 9.22754 7.62451ZM16.5156 7.13232C16.5156 7.40415 16.2953 7.62451 16.0234 7.62451C15.7516 7.62451 15.5312 7.40415 15.5312 7.13232C15.5312 6.8605 15.7516 6.64014 16.0234 6.64014C16.2953 6.64014 16.5156 6.8605 16.5156 7.13232Z" fill="#AD75F9"/>
<path d="M23.6885 18.1247C23.6885 20.1954 22.0098 21.874 19.9391 21.874L5.31281 21.874C3.24211 21.874 1.56348 20.1954 1.56348 18.1247C1.56348 17.9176 1.73134 17.7498 1.93841 17.7498L23.3135 17.7498C23.5206 17.7498 23.6885 17.9176 23.6885 18.1247Z" fill="#AD75F9"/>
<mask id="path-3-inside-1_442_19347" fill="white">
<path d="M13.6908 12.7339H3.00879C2.4565 12.7339 2.00879 13.1816 2.00879 13.7339V15.8589C2.00879 16.4112 2.4565 16.8589 3.00879 16.8589H22.2432C22.7954 16.8589 23.2432 16.4112 23.2432 15.8589V13.1142C23.2432 12.9531 23.0625 12.8581 22.9298 12.9494L19.5319 15.2866C19.4739 15.3265 19.3992 15.333 19.3352 15.3036L13.7742 12.7521C13.748 12.7401 13.7196 12.7339 13.6908 12.7339Z"/>
</mask>
<path d="M13.6908 12.7339H3.00879C2.4565 12.7339 2.00879 13.1816 2.00879 13.7339V15.8589C2.00879 16.4112 2.4565 16.8589 3.00879 16.8589H22.2432C22.7954 16.8589 23.2432 16.4112 23.2432 15.8589V13.1142C23.2432 12.9531 23.0625 12.8581 22.9298 12.9494L19.5319 15.2866C19.4739 15.3265 19.3992 15.333 19.3352 15.3036L13.7742 12.7521C13.748 12.7401 13.7196 12.7339 13.6908 12.7339Z" fill="#AD75F9" stroke="#AD75F9" stroke-width="2" mask="url(#path-3-inside-1_442_19347)"/>
</svg>
