<svg width="24" height="24" viewBox="0 0 24 24" fill="none" xmlns="http://www.w3.org/2000/svg">
<path d="M5.27201 17.283C5.35535 17.11 5.53043 17 5.72248 17H17.2775C17.4696 17 17.6446 17.11 17.728 17.283L19.6547 21.283C19.8146 21.615 19.5727 22 19.2042 22H3.79581C3.42734 22 3.18545 21.615 3.34534 21.283L5.27201 17.283Z" fill="#FFCEC6"/>
<path fill-rule="evenodd" clip-rule="evenodd" d="M11.8588 2C15.6468 2 18.7176 5.17666 18.7176 9.0953C18.7176 12.2252 16.2984 14.5952 14.1468 16.7031C13.2831 17.5492 12.4625 18.3531 11.8588 19.147C11.2551 18.3531 10.4345 17.5492 9.57081 16.7031C7.41919 14.5952 5 12.2252 5 9.0953C5 5.17666 8.07077 2 11.8588 2ZM11.8588 11.4308C13.2793 11.4308 14.4308 10.2793 14.4308 8.85879C14.4308 7.43829 13.2793 6.28674 11.8588 6.28674C10.4383 6.28674 9.28674 7.43829 9.28674 8.85879C9.28674 10.2793 10.4383 11.4308 11.8588 11.4308Z" fill="#FF5235"/>
<circle cx="17.5" cy="5.5" r="3.18198" transform="rotate(-45 17.5 5.5)" fill="#FFCEC6"/>
<path d="M17.5002 7.29998L17.5002 3.7M15.7002 5.50002L19.3002 5.5" stroke="#FF5235" stroke-width="0.76548" stroke-linecap="round"/>
</svg>
