<svg width="24" height="25" viewBox="0 0 24 25" fill="none" xmlns="http://www.w3.org/2000/svg">
<path fill-rule="evenodd" clip-rule="evenodd" d="M2.1582 2.75854V20.4384H16.4093V15.808C16.7037 15.8639 17.0075 15.8932 17.3182 15.8932C19.991 15.8932 22.1578 13.7264 22.1578 11.0535C22.1578 8.38065 19.991 6.21387 17.3182 6.21387C17.0075 6.21387 16.7037 6.24314 16.4093 6.29907V2.75854H2.1582ZM16.4093 13.4723V8.63477C16.692 8.52849 16.9983 8.47035 17.3182 8.47035C18.7448 8.47035 19.9013 9.62688 19.9013 11.0535C19.9013 12.4802 18.7448 13.6367 17.3182 13.6367C16.9983 13.6367 16.692 13.5786 16.4093 13.4723Z" fill="#6A92FF"/>
</svg>
