<svg width="24" height="25" viewBox="0 0 24 25" fill="none" xmlns="http://www.w3.org/2000/svg">
<path fill-rule="evenodd" clip-rule="evenodd" d="M9.73722 2.45105C5.00671 2.45105 1.17188 6.28588 1.17188 11.0164C1.17188 11.4894 1.55536 11.8729 2.02841 11.8729H22.4403C22.9134 11.8729 23.2969 11.4894 23.2969 11.0164C23.2969 6.28588 19.462 2.45105 14.7315 2.45105H9.73722ZM12 6.15417C12.2718 6.15417 12.4922 5.93382 12.4922 5.66199C12.4922 5.39016 12.2718 5.1698 12 5.1698C11.7282 5.1698 11.5078 5.39016 11.5078 5.66199C11.5078 5.93382 11.7282 6.15417 12 6.15417ZM8.60156 7.65417C8.87339 7.65417 9.09375 7.43382 9.09375 7.16199C9.09375 6.89016 8.87339 6.6698 8.60156 6.6698C8.32973 6.6698 8.10938 6.89016 8.10938 7.16199C8.10938 7.43382 8.32973 7.65417 8.60156 7.65417ZM15.8896 7.16199C15.8896 7.43382 15.6693 7.65417 15.3975 7.65417C15.1256 7.65417 14.9053 7.43382 14.9053 7.16199C14.9053 6.89016 15.1256 6.6698 15.3975 6.6698C15.6693 6.6698 15.8896 6.89016 15.8896 7.16199Z" fill="#878A93"/>
<path d="M23.0625 18.1545C23.0625 20.2252 21.3839 21.9038 19.3132 21.9038L4.68683 21.9038C2.61613 21.9038 0.9375 20.2252 0.9375 18.1545C0.9375 17.9474 1.10536 17.7795 1.31243 17.7795L22.6876 17.7795C22.8946 17.7795 23.0625 17.9474 23.0625 18.1545Z" fill="#878A93"/>
<mask id="path-3-inside-1_437_9165" fill="white">
<path d="M13.0648 12.7635H2.38281C1.83053 12.7635 1.38281 13.2113 1.38281 13.7635V15.8885C1.38281 16.4408 1.83053 16.8885 2.38281 16.8885H21.6172C22.1695 16.8885 22.6172 16.4408 22.6172 15.8885V13.1439C22.6172 12.9828 22.4365 12.8878 22.3038 12.9791L18.9059 15.3163C18.8479 15.3562 18.7732 15.3626 18.7092 15.3333L13.1482 12.7818C13.1221 12.7698 13.0936 12.7635 13.0648 12.7635Z"/>
</mask>
<path d="M13.0648 12.7635H2.38281C1.83053 12.7635 1.38281 13.2113 1.38281 13.7635V15.8885C1.38281 16.4408 1.83053 16.8885 2.38281 16.8885H21.6172C22.1695 16.8885 22.6172 16.4408 22.6172 15.8885V13.1439C22.6172 12.9828 22.4365 12.8878 22.3038 12.9791L18.9059 15.3163C18.8479 15.3562 18.7732 15.3626 18.7092 15.3333L13.1482 12.7818C13.1221 12.7698 13.0936 12.7635 13.0648 12.7635Z" fill="#878A93" stroke="#878A93" stroke-width="2" mask="url(#path-3-inside-1_437_9165)"/>
</svg>
