<svg width="25" height="25" viewBox="0 0 25 25" fill="none" xmlns="http://www.w3.org/2000/svg">
<path d="M22.0726 12.4958H2.60292C2.33217 12.4958 2.1149 12.7102 2.1378 12.9799C2.22585 14.0172 2.6664 16.5453 4.83563 18.824C7.53099 21.6553 11.6471 21.686 11.9853 21.6836C12.0019 21.6835 12.0132 21.6838 12.0298 21.6849C12.3661 21.7059 16.4532 21.8997 19.5075 19.1521C22.0082 16.9025 22.4605 14.0859 22.5393 12.9765C22.5584 12.7082 22.3416 12.4958 22.0726 12.4958Z" fill="white" stroke="white"/>
<rect x="7.92969" y="21.5427" width="9.1875" height="1.5" rx="0.75" fill="white"/>
<path d="M3.05469 12.8708C3.05469 12.8708 4.08596 3.68333 12.336 3.77708C20.586 3.87083 21.3359 12.8708 21.3359 12.8708" stroke="white"/>
</svg>
