<svg width="25" height="25" viewBox="0 0 25 25" fill="none" xmlns="http://www.w3.org/2000/svg">
<g clip-path="url(#clip0_437_9174)">
<path fill-rule="evenodd" clip-rule="evenodd" d="M12.8956 9.03577C13.7543 8.52048 13.8164 8.09752 13.8164 8.02167C13.8164 7.94582 13.7543 7.52286 12.8956 7.00757C12.0782 6.51703 10.815 6.14638 9.30873 6.14638C7.80249 6.14638 6.53929 6.51703 5.72184 7.00757C4.86314 7.52286 4.80106 7.94582 4.80106 8.02167C4.80106 8.09752 4.86314 8.52048 5.72184 9.03577C6.53929 9.5263 7.80249 9.89696 9.30873 9.89696C10.815 9.89696 12.0782 9.5263 12.8956 9.03577ZM9.30873 4.07178C12.6485 4.07178 15.4073 5.56433 15.8338 7.4985C15.8457 7.48028 15.8515 7.47058 15.8515 7.47058V7.58618C15.8776 7.72919 15.891 7.87449 15.891 8.02167C15.891 8.0911 15.888 8.16011 15.8821 8.22866L22.8714 5.12781C23.3879 4.89869 23.9922 5.13161 24.2214 5.64804C24.4505 6.16446 24.2176 6.76885 23.7011 6.99797L15.8515 10.4805V12.7122L23.0582 10.1035C23.5895 9.91117 24.176 10.1859 24.3683 10.7172C24.5606 11.2484 24.2858 11.835 23.7546 12.0272L15.8515 14.888V17.3898C15.8515 17.3898 15.8515 21.2148 9.40383 21.2148C6.04443 21.2148 4.38095 20.1764 3.55814 19.1817L2.0656 19.7077C1.52041 19.8999 0.924475 19.6022 0.750674 19.0509C0.584902 18.525 0.865935 17.9625 1.38594 17.7792L2.75575 17.2964V15.699L2.26435 15.9306C1.74224 16.1768 1.12 15.9422 0.890311 15.4126C0.670562 14.906 0.892823 14.3164 1.39234 14.0809L2.75575 13.4382V10.4474V8.39679C2.73637 8.27331 2.72646 8.14819 2.72646 8.02167C2.72646 5.8402 5.67344 4.07178 9.30873 4.07178ZM5.00215 16.8769C4.94742 16.8459 4.8899 16.82 4.83036 16.7995V14.7209L4.92793 14.6749L6.59696 14.0812L9.87158 12.9164L13.7768 11.5273V13.8241C13.7701 13.8408 13.7637 13.8578 13.7578 13.8749L5.00215 16.8769ZM9.12537 9.12379C10.0026 9.12379 10.7137 8.63035 10.7137 8.02166C10.7137 7.41297 10.0026 6.91953 9.12537 6.91953C8.24814 6.91953 7.537 7.41297 7.537 8.02166C7.537 8.63035 8.24814 9.12379 9.12537 9.12379Z" fill="white"/>
</g>
<defs>
<clipPath id="clip0_437_9174">
<rect width="24" height="24" fill="white" transform="translate(0.429688 0.2146)"/>
</clipPath>
</defs>
</svg>
