<svg width="24" height="25" viewBox="0 0 24 25" fill="none" xmlns="http://www.w3.org/2000/svg">
<path fill-rule="evenodd" clip-rule="evenodd" d="M2 3.26733V20.9472H16.2511V16.3168C16.5455 16.3727 16.8493 16.402 17.16 16.402C19.8328 16.402 21.9996 14.2352 21.9996 11.5623C21.9996 8.88944 19.8328 6.72266 17.16 6.72266C16.8493 6.72266 16.5455 6.75193 16.2511 6.80786V3.26733H2ZM16.2511 13.9811V9.14356C16.5338 9.03728 16.8401 8.97914 17.16 8.97914C18.5866 8.97914 19.7431 10.1357 19.7431 11.5623C19.7431 12.989 18.5866 14.1455 17.16 14.1455C16.8401 14.1455 16.5338 14.0873 16.2511 13.9811Z" fill="#878A93"/>
</svg>
