<svg width="25" height="25" viewBox="0 0 25 25" fill="none" xmlns="http://www.w3.org/2000/svg">
<g clip-path="url(#clip0_437_9162)">
<path fill-rule="evenodd" clip-rule="evenodd" d="M4.86796 21.0231C5.74019 21.9112 7.19096 21.8429 7.9759 20.8768L14.1986 13.2184C15.9092 14.3073 18.2454 14.0821 19.8014 12.5538C21.6033 10.7839 22.8632 6.77139 21.1519 5.02901C19.4405 3.28663 15.406 4.47423 13.604 6.24409C12.0481 7.77234 11.7809 10.1039 12.8388 11.8338L5.06999 17.9184C4.09006 18.6859 3.99576 20.1351 4.86796 21.0231Z" fill="#5A5C63"/>
<path d="M5.4407 10.3868C5.42303 10.4337 5.39139 10.4741 5.35006 10.5024C5.30872 10.5307 5.25967 10.5457 5.20956 10.5452C5.15944 10.5448 5.11068 10.5289 5.06985 10.4999C5.02903 10.4708 4.99812 10.4299 4.9813 10.3827L4.75332 9.74202C4.5744 9.23968 4.28814 8.78237 3.91447 8.40193C3.5408 8.02149 3.08871 7.72706 2.58967 7.53914L1.95321 7.29969C1.90631 7.28203 1.86596 7.25039 1.83763 7.20905C1.8093 7.16771 1.79435 7.11866 1.7948 7.06855C1.79525 7.01844 1.81108 6.96967 1.84015 6.92885C1.86922 6.88802 1.91012 6.85711 1.95733 6.8403L2.59799 6.61231C3.10033 6.43339 3.55764 6.14713 3.93808 5.77346C4.31852 5.3998 4.61295 4.9477 4.80087 4.44866L5.04033 3.8122C5.05799 3.7653 5.08963 3.72495 5.13097 3.69662C5.17231 3.66829 5.22135 3.65334 5.27146 3.65379C5.32158 3.65424 5.37035 3.67007 5.41117 3.69914C5.45199 3.72821 5.4829 3.76912 5.49972 3.81633L5.7277 4.45698C5.90663 4.95932 6.19289 5.41663 6.56655 5.79707C6.94022 6.17751 7.39231 6.47194 7.89136 6.65987L8.52782 6.89932C8.57472 6.91698 8.61506 6.94862 8.64339 6.98996C8.67172 7.0313 8.68668 7.08034 8.68623 7.13046C8.68578 7.18057 8.66995 7.22934 8.64088 7.27016C8.61181 7.31098 8.5709 7.34189 8.52369 7.35871L7.88303 7.58669C7.38069 7.76562 6.92338 8.05188 6.54294 8.42554C6.1625 8.79921 5.86807 9.2513 5.68015 9.75035L5.4407 10.3868Z" fill="#5A5C63"/>
</g>
<defs>
<clipPath id="clip0_437_9162">
<rect width="24" height="24" fill="white" transform="translate(0.107422 0.1073)"/>
</clipPath>
</defs>
</svg>
