<svg width="25" height="24" viewBox="0 0 25 24" fill="none" xmlns="http://www.w3.org/2000/svg">
<path fill-rule="evenodd" clip-rule="evenodd" d="M7.44678 5.6362C7.44678 5.6362 -0.397093 8.31962 0.0157426 15.2862C0.428578 22.2528 9.56295 22.9753 11.9368 22.9753C14.3106 22.9753 23.8574 22.9753 24.2182 15.6991C24.5791 8.42283 17.0968 5.6362 17.0968 5.6362C17.0968 5.6362 16.9682 3.3398 15.7035 3.00437C14.4388 2.66894 13.6139 3.99775 13.6139 3.99775C13.6139 3.99775 14.1819 1.35303 12.2206 1.35303C10.2592 1.35303 10.7757 3.93325 10.7757 3.93325C10.7757 3.93325 10.1435 2.70764 8.73689 3.00437C7.33028 3.30109 7.44678 5.6362 7.44678 5.6362ZM9.01294 8.01737C8.6536 7.73662 8.13472 7.80033 7.85397 8.15967L5.60628 11.0366C5.32554 11.3959 5.38925 11.9148 5.74859 12.1956C6.10792 12.4763 6.62681 12.4126 6.90756 12.0532L9.15525 9.17634C9.43599 8.817 9.37228 8.29811 9.01294 8.01737ZM11.29 9.05516C11.29 8.59916 11.6597 8.22949 12.1157 8.22949C12.5717 8.22949 12.9414 8.59916 12.9414 9.05516V12.706C12.9414 13.162 12.5717 13.5317 12.1157 13.5317C11.6597 13.5317 11.29 13.162 11.29 12.706V9.05516ZM15.3733 8.0173C15.014 8.29805 14.9502 8.81694 15.231 9.17627L17.4787 12.0532C17.7594 12.4125 18.2783 12.4762 18.6376 12.1955C18.997 11.9147 19.0607 11.3959 18.78 11.0365L16.5323 8.1596C16.2515 7.80027 15.7326 7.73656 15.3733 8.0173Z" fill="#FF5235"/>
</svg>
