<svg width="24" height="25" viewBox="0 0 24 25" fill="none" xmlns="http://www.w3.org/2000/svg">
<path d="M21.643 12.3885H2.17323C1.90248 12.3885 1.68521 12.6029 1.70811 12.8726C1.79616 13.9099 2.23671 16.438 4.40594 18.7167C7.10131 21.548 11.2174 21.5787 11.5556 21.5763C11.5722 21.5762 11.5835 21.5765 11.6001 21.5776C11.9364 21.5986 16.0235 21.7924 19.0778 19.0448C21.5785 16.7952 22.0308 13.9786 22.1096 12.8692C22.1287 12.6009 21.9119 12.3885 21.643 12.3885Z" fill="#878A93" stroke="#878A93"/>
<rect x="7.5" y="21.4354" width="9.1875" height="1.5" rx="0.75" fill="#878A93"/>
<path d="M2.625 12.7635C2.625 12.7635 3.65627 3.57603 11.9063 3.66978C20.1563 3.76353 20.9062 12.7635 20.9062 12.7635" stroke="#878A93"/>
</svg>
