<svg width="24" height="24" viewBox="0 0 24 24" fill="none" xmlns="http://www.w3.org/2000/svg">
<path d="M5.02201 17.283C5.10535 17.11 5.28043 17 5.47248 17H17.0275C17.2196 17 17.3946 17.11 17.478 17.283L19.4047 21.283C19.5646 21.615 19.3227 22 18.9542 22H3.54581C3.17734 22 2.93545 21.615 3.09534 21.283L5.02201 17.283Z" fill="#EAEBEC"/>
<path fill-rule="evenodd" clip-rule="evenodd" d="M11.6088 2C15.3968 2 18.4676 5.17666 18.4676 9.0953C18.4676 12.2252 16.0484 14.5952 13.8968 16.7031C13.0331 17.5492 12.2125 18.3531 11.6088 19.147C11.0051 18.3531 10.1845 17.5492 9.32081 16.7031C7.16919 14.5952 4.75 12.2252 4.75 9.0953C4.75 5.17666 7.82077 2 11.6088 2ZM11.6088 11.4308C13.0293 11.4308 14.1808 10.2793 14.1808 8.85879C14.1808 7.43829 13.0293 6.28674 11.6088 6.28674C10.1883 6.28674 9.03674 7.43829 9.03674 8.85879C9.03674 10.2793 10.1883 11.4308 11.6088 11.4308Z" fill="#989BA2"/>
<circle cx="17.25" cy="5.5" r="3.18198" transform="rotate(-45 17.25 5.5)" fill="#EAEBEC"/>
<path d="M17.2502 7.29998L17.2502 3.7M15.4502 5.50002L19.0502 5.5" stroke="#989BA2" stroke-width="0.76548" stroke-linecap="round"/>
</svg>
