<svg width="32" height="32" viewBox="0 0 32 32" fill="none" xmlns="http://www.w3.org/2000/svg">
<path d="M7.14412 23.4446C7.22746 23.2716 7.40254 23.1616 7.59459 23.1616H23.2107C23.4028 23.1616 23.5779 23.2716 23.6612 23.4446L26.3907 29.1113C26.5506 29.4433 26.3087 29.8283 25.9402 29.8283H4.86515C4.49668 29.8283 4.25478 29.4433 4.41468 29.1113L7.14412 23.4446Z" fill="#EAEBEC"/>
<path fill-rule="evenodd" clip-rule="evenodd" d="M15.5911 3.16162C20.7458 3.16162 24.9245 7.36086 24.9245 12.5409C24.9245 16.6784 21.6325 19.8113 18.7046 22.5977C17.5293 23.7162 16.4126 24.7789 15.5911 25.8283C14.7697 24.7789 13.653 23.7162 12.4777 22.5977C9.54981 19.8113 6.25781 16.6784 6.25781 12.5409C6.25781 7.36086 10.4365 3.16162 15.5911 3.16162ZM15.5911 15.6283C17.5241 15.6283 19.0911 14.1061 19.0911 12.2283C19.0911 10.3505 17.5241 8.82829 15.5911 8.82829C13.6581 8.82829 12.0911 10.3505 12.0911 12.2283C12.0911 14.1061 13.6581 15.6283 15.5911 15.6283Z" fill="#989BA2"/>
<circle cx="22.2731" cy="7.82812" r="4" transform="rotate(-45 22.2731 7.82812)" fill="#EAEBEC"/>
<path d="M22.273 10.2281L22.2301 5.4711M19.8731 7.82815L24.6301 7.8711" stroke="#989BA2" stroke-width="0.76548" stroke-linecap="round"/>
</svg>
