<svg width="25" height="25" viewBox="0 0 25 25" fill="none" xmlns="http://www.w3.org/2000/svg">
<g clip-path="url(#clip0_445_36294)">
<path fill-rule="evenodd" clip-rule="evenodd" d="M12.9659 8.84119C13.8246 8.3259 13.8867 7.90294 13.8867 7.82709C13.8867 7.75124 13.8246 7.32828 12.9659 6.81299C12.1485 6.32245 10.8853 5.9518 9.37904 5.9518C7.8728 5.9518 6.6096 6.32245 5.79215 6.81299C4.93345 7.32828 4.87137 7.75124 4.87137 7.82709C4.87137 7.90294 4.93345 8.3259 5.79215 8.84119C6.6096 9.33172 7.8728 9.70237 9.37904 9.70237C10.8853 9.70237 12.1485 9.33172 12.9659 8.84119ZM9.37904 3.8772C12.7188 3.8772 15.4776 5.36975 15.9041 7.30392C15.916 7.2857 15.9218 7.276 15.9218 7.276V7.3916C15.9479 7.53461 15.9613 7.67991 15.9613 7.82709C15.9613 7.89654 15.9583 7.96557 15.9524 8.03414L22.9417 4.93329C23.4582 4.70417 24.0625 4.93709 24.2917 5.45352C24.5208 5.96994 24.2879 6.57433 23.7714 6.80345L15.9218 10.286V12.5175L23.1285 9.90876C23.6598 9.71646 24.2463 9.99123 24.4386 10.5225C24.6309 11.0537 24.3562 11.6402 23.8249 11.8325L15.9218 14.6933V17.1952C15.9218 17.1952 15.9218 21.0203 9.47414 21.0203C6.11474 21.0203 4.45127 19.9819 3.62845 18.9872L2.13591 19.5132C1.59072 19.7053 0.994788 19.4076 0.820986 18.8563C0.655215 18.3304 0.936247 17.7679 1.45625 17.5846L2.82607 17.1019V15.5044L2.33467 15.736C1.81255 15.9822 1.19032 15.7476 0.960623 15.218C0.740874 14.7114 0.963135 14.1218 1.46265 13.8863L2.82607 13.2436V10.2529V8.20221C2.80668 8.07873 2.79677 7.95361 2.79677 7.82709C2.79677 5.64562 5.74375 3.8772 9.37904 3.8772ZM5.07233 16.6822C5.01764 16.6513 4.96017 16.6254 4.90067 16.6049V14.5263L4.99824 14.4803L6.66727 13.8866L9.94189 12.7219L13.8472 11.3327V13.6294C13.8404 13.6461 13.834 13.6631 13.8281 13.6802L5.07233 16.6822ZM9.19569 8.92921C10.0729 8.92921 10.7841 8.43577 10.7841 7.82708C10.7841 7.21839 10.0729 6.72495 9.19569 6.72495C8.31845 6.72495 7.60732 7.21839 7.60732 7.82708C7.60732 8.43577 8.31845 8.92921 9.19569 8.92921Z" fill="#FF7E84"/>
</g>
<defs>
<clipPath id="clip0_445_36294">
<rect width="24" height="24" fill="white" transform="translate(0.5 0.0200195)"/>
</clipPath>
</defs>
</svg>
