<svg width="25" height="25" viewBox="0 0 25 25" fill="none" xmlns="http://www.w3.org/2000/svg">
<path fill-rule="evenodd" clip-rule="evenodd" d="M4.94814 21.0878C5.82832 21.968 7.27841 21.8867 8.05465 20.9136L14.2083 13.1996C15.9286 14.2731 18.2627 14.027 19.8049 12.4847C21.5909 10.6987 22.8147 6.67503 21.0877 4.94809C19.3608 3.22115 15.3371 4.44494 13.5511 6.23092C12.009 7.77308 11.7627 10.1069 12.8361 11.8272L5.12228 17.9814C4.14929 18.7577 4.06801 20.2077 4.94814 21.0878Z" fill="#5A5C63"/>
<path d="M5.42545 10.4468C5.40821 10.4939 5.37694 10.5345 5.33585 10.5632C5.29477 10.5919 5.24586 10.6073 5.19575 10.6073C5.14563 10.6073 5.09672 10.5919 5.05564 10.5632C5.01456 10.5345 4.98328 10.4939 4.96604 10.4468L4.73232 9.80824C4.54888 9.30752 4.25853 8.8528 3.88146 8.47573C3.50439 8.09867 3.04967 7.80831 2.54896 7.62488L1.91037 7.39115C1.86332 7.37391 1.82269 7.34263 1.79399 7.30155C1.76529 7.26047 1.74989 7.21156 1.74989 7.16144C1.74989 7.11133 1.76529 7.06242 1.79399 7.02134C1.82269 6.98026 1.86332 6.94898 1.91037 6.93174L2.54896 6.69801C3.04967 6.51458 3.50439 6.22423 3.88146 5.84716C4.25853 5.47009 4.54888 5.01537 4.73232 4.51466L4.96604 3.87607C4.98328 3.82901 5.01456 3.78839 5.05564 3.75968C5.09672 3.73098 5.14563 3.71559 5.19575 3.71559C5.24586 3.71559 5.29477 3.73098 5.33585 3.75968C5.37694 3.78839 5.40821 3.82901 5.42545 3.87607L5.65918 4.51466C5.84261 5.01537 6.13297 5.47009 6.51004 5.84716C6.8871 6.22423 7.34182 6.51458 7.84254 6.69801L8.48112 6.93174C8.52818 6.94898 8.56881 6.98026 8.59751 7.02134C8.62621 7.06242 8.6416 7.11133 8.6416 7.16144C8.6416 7.21156 8.62621 7.26047 8.59751 7.30155C8.56881 7.34263 8.52818 7.37391 8.48112 7.39115L7.84254 7.62488C7.34182 7.80831 6.8871 8.09867 6.51004 8.47573C6.13297 8.8528 5.84261 9.30752 5.65918 9.80824L5.42545 10.4468Z" fill="#5A5C63"/>
</svg>
