<svg width="24" height="24" viewBox="0 0 24 24" fill="none" xmlns="http://www.w3.org/2000/svg">
<mask id="path-1-inside-1_442_19482" fill="white">
<path fill-rule="evenodd" clip-rule="evenodd" d="M12.004 23.25C18.2154 23.2478 23.25 18.2119 23.25 12C23.25 5.7868 18.2132 0.75 12 0.75C5.7868 0.75 0.75 5.7868 0.75 12C0.75 18.2132 5.7868 23.25 12 23.25H12.004ZM12.0001 21.6429C12.1224 21.6429 12.3732 21.5919 12.7479 21.222C13.1296 20.8454 13.547 20.2207 13.9322 19.3219C14.3239 18.408 14.6496 17.2871 14.8747 16.0178H9.1256C9.35072 17.2871 9.6764 18.408 10.0681 19.3219C10.4533 20.2207 10.8707 20.8454 11.2523 21.222C11.6271 21.5919 11.8779 21.6429 12.0001 21.6429ZM8.90429 14.4106C8.82732 13.6424 8.78585 12.8355 8.78585 12C8.78585 11.1645 8.82732 10.3575 8.90429 9.58932H15.096C15.173 10.3575 15.2144 11.1645 15.2144 12C15.2144 12.8355 15.173 13.6424 15.096 14.4106H8.90429ZM16.505 16.0178C16.1561 18.1466 15.5379 19.9649 14.7477 21.2457C17.4268 20.4507 19.6187 18.5231 20.7685 16.0178H16.505ZM21.3391 14.4106H16.7106C16.7833 13.634 16.8216 12.8275 16.8216 12C16.8216 11.1725 16.7833 10.3659 16.7106 9.58932H21.3391C21.5374 10.3598 21.6429 11.1676 21.6429 12C21.6429 12.8324 21.5374 13.6402 21.3391 14.4106ZM7.28966 14.4106H2.66092C2.46261 13.6402 2.35714 12.8324 2.35714 12C2.35714 11.1676 2.46262 10.3598 2.66093 9.58932H7.28966C7.217 10.3659 7.17871 11.1725 7.17871 12C7.17871 12.8275 7.217 13.634 7.28966 14.4106ZM3.23146 16.0178H7.49528C7.84424 18.1467 8.4624 19.9649 9.25261 21.2458C6.57342 20.4509 4.38134 18.5232 3.23146 16.0178ZM9.12561 7.98218H14.8747C14.6496 6.71287 14.3239 5.59203 13.9322 4.67813C13.547 3.77931 13.1296 3.15461 12.7479 2.77796C12.3732 2.40813 12.1224 2.35714 12.0001 2.35714C11.8779 2.35714 11.6271 2.40813 11.2523 2.77796C10.8707 3.15461 10.4533 3.77931 10.0681 4.67813C9.6764 5.59203 9.35073 6.71287 9.12561 7.98218ZM16.505 7.98218H20.7685C19.6187 5.47689 17.4268 3.54925 14.7477 2.75428C15.5379 4.03514 16.156 5.85335 16.505 7.98218ZM9.25261 2.75417C8.46241 4.03505 7.84424 5.85329 7.49529 7.98218H3.23148C4.38136 5.47678 6.57343 3.54909 9.25261 2.75417Z"/>
</mask>
<path fill-rule="evenodd" clip-rule="evenodd" d="M12.004 23.25C18.2154 23.2478 23.25 18.2119 23.25 12C23.25 5.7868 18.2132 0.75 12 0.75C5.7868 0.75 0.75 5.7868 0.75 12C0.75 18.2132 5.7868 23.25 12 23.25H12.004ZM12.0001 21.6429C12.1224 21.6429 12.3732 21.5919 12.7479 21.222C13.1296 20.8454 13.547 20.2207 13.9322 19.3219C14.3239 18.408 14.6496 17.2871 14.8747 16.0178H9.1256C9.35072 17.2871 9.6764 18.408 10.0681 19.3219C10.4533 20.2207 10.8707 20.8454 11.2523 21.222C11.6271 21.5919 11.8779 21.6429 12.0001 21.6429ZM8.90429 14.4106C8.82732 13.6424 8.78585 12.8355 8.78585 12C8.78585 11.1645 8.82732 10.3575 8.90429 9.58932H15.096C15.173 10.3575 15.2144 11.1645 15.2144 12C15.2144 12.8355 15.173 13.6424 15.096 14.4106H8.90429ZM16.505 16.0178C16.1561 18.1466 15.5379 19.9649 14.7477 21.2457C17.4268 20.4507 19.6187 18.5231 20.7685 16.0178H16.505ZM21.3391 14.4106H16.7106C16.7833 13.634 16.8216 12.8275 16.8216 12C16.8216 11.1725 16.7833 10.3659 16.7106 9.58932H21.3391C21.5374 10.3598 21.6429 11.1676 21.6429 12C21.6429 12.8324 21.5374 13.6402 21.3391 14.4106ZM7.28966 14.4106H2.66092C2.46261 13.6402 2.35714 12.8324 2.35714 12C2.35714 11.1676 2.46262 10.3598 2.66093 9.58932H7.28966C7.217 10.3659 7.17871 11.1725 7.17871 12C7.17871 12.8275 7.217 13.634 7.28966 14.4106ZM3.23146 16.0178H7.49528C7.84424 18.1467 8.4624 19.9649 9.25261 21.2458C6.57342 20.4509 4.38134 18.5232 3.23146 16.0178ZM9.12561 7.98218H14.8747C14.6496 6.71287 14.3239 5.59203 13.9322 4.67813C13.547 3.77931 13.1296 3.15461 12.7479 2.77796C12.3732 2.40813 12.1224 2.35714 12.0001 2.35714C11.8779 2.35714 11.6271 2.40813 11.2523 2.77796C10.8707 3.15461 10.4533 3.77931 10.0681 4.67813C9.6764 5.59203 9.35073 6.71287 9.12561 7.98218ZM16.505 7.98218H20.7685C19.6187 5.47689 17.4268 3.54925 14.7477 2.75428C15.5379 4.03514 16.156 5.85335 16.505 7.98218ZM9.25261 2.75417C8.46241 4.03505 7.84424 5.85329 7.49529 7.98218H3.23148C4.38136 5.47678 6.57343 3.54909 9.25261 2.75417Z" fill="#FF5235" stroke="#FF5235" stroke-width="1.875" stroke-linecap="round" mask="url(#path-1-inside-1_442_19482)"/>
</svg>
