<svg width="25" height="25" viewBox="0 0 25 25" fill="none" xmlns="http://www.w3.org/2000/svg">
<path fill-rule="evenodd" clip-rule="evenodd" d="M14.9797 9.74474C19.0357 11.7128 22.1236 8.43121 22.1236 5.60665C22.1236 3.03469 20.0385 0.949707 17.4664 0.949707C15.0642 0.949707 13.0868 2.7684 12.8361 5.10392H3.47994H3.46475H3.21181H2.6053C2.20358 5.10392 1.97931 5.56766 2.22873 5.88257L2.6053 6.35801L2.76236 6.55629L2.77179 6.5682L9.46942 15.0242V21.7424H5.99771C5.73241 21.7424 5.51733 21.9575 5.51733 22.2228V22.7263C5.51733 22.9916 5.73241 23.2067 5.99771 23.2067L14.3172 23.2067C14.5825 23.2067 14.7975 22.9916 14.7975 22.7263V22.2228C14.7975 21.9575 14.5825 21.7424 14.3172 21.7424H10.9337V14.8596L14.9797 9.74474ZM6.64227 9.09466L6.73711 9.21622L4.63973 6.5682H15.6254L13.6269 9.09463L6.64227 9.09466Z" fill="#00CB92"/>
</svg>
