<svg width="25" height="25" viewBox="0 0 25 25" fill="none" xmlns="http://www.w3.org/2000/svg">
<path fill-rule="evenodd" clip-rule="evenodd" d="M15.4797 9.68663C19.5357 11.6547 22.6236 8.3731 22.6236 5.54855C22.6236 2.97659 20.5385 0.891602 17.9664 0.891602C15.5642 0.891602 13.5868 2.71029 13.3361 5.04582H3.97994H3.96475H3.71181H3.1053C2.70358 5.04582 2.47931 5.50956 2.72873 5.82446L3.1053 6.2999L3.26236 6.49818L3.27179 6.51009L9.96942 14.9661V21.6843H6.49771C6.23241 21.6843 6.01733 21.8994 6.01733 22.1647V22.6682C6.01733 22.9335 6.23241 23.1486 6.49771 23.1486L14.8172 23.1486C15.0825 23.1486 15.2975 22.9335 15.2975 22.6682V22.1647C15.2975 21.8994 15.0825 21.6843 14.8172 21.6843H11.4337V14.8015L15.4797 9.68663ZM7.14227 9.03656L7.23712 9.15813L5.13973 6.51009H16.1254L14.1269 9.03653L7.14227 9.03656Z" fill="#FF7E35"/>
</svg>
