<svg width="25" height="25" viewBox="0 0 25 25" fill="none" xmlns="http://www.w3.org/2000/svg">
<mask id="path-1-inside-1_442_19477" fill="white">
<path fill-rule="evenodd" clip-rule="evenodd" d="M12.63 23.3276C18.8414 23.3255 23.876 18.2895 23.876 12.0776C23.876 5.86443 18.8392 0.827637 12.626 0.827637C6.41277 0.827637 1.37598 5.86443 1.37598 12.0776C1.37598 18.2908 6.41277 23.3276 12.626 23.3276H12.63ZM12.6261 21.7205C12.7483 21.7205 12.9992 21.6695 13.3739 21.2997C13.7556 20.923 14.173 20.2983 14.5582 19.3995C14.9499 18.4856 15.2755 17.3647 15.5007 16.0954H9.75158C9.9767 17.3647 10.3024 18.4856 10.694 19.3995C11.0793 20.2983 11.4967 20.923 11.8783 21.2997C12.253 21.6695 12.5039 21.7205 12.6261 21.7205ZM9.53026 14.4883C9.4533 13.7201 9.41183 12.9132 9.41183 12.0776C9.41183 11.2421 9.4533 10.4352 9.53027 9.66696H15.722C15.7989 10.4352 15.8404 11.2421 15.8404 12.0776C15.8404 12.9132 15.7989 13.7201 15.722 14.4883H9.53026ZM17.131 16.0954C16.782 18.2243 16.1639 20.0425 15.3737 21.3234C18.0527 20.5284 20.2447 18.6007 21.3945 16.0954H17.131ZM21.9651 14.4883H17.3366C17.4093 13.7117 17.4475 12.9051 17.4475 12.0776C17.4475 11.2502 17.4093 10.4436 17.3366 9.66696H21.965C22.1634 10.4375 22.2688 11.2452 22.2688 12.0776C22.2688 12.91 22.1634 13.7178 21.9651 14.4883ZM7.91564 14.4883H3.28689C3.08859 13.7178 2.98312 12.91 2.98312 12.0776C2.98312 11.2452 3.08859 10.4375 3.2869 9.66696H7.91564C7.84297 10.4436 7.80469 11.2502 7.80469 12.0776C7.80469 12.9051 7.84297 13.7117 7.91564 14.4883ZM3.85744 16.0954H8.12126C8.47021 18.2243 9.08838 20.0426 9.87858 21.3235C7.19939 20.5285 5.00732 18.6008 3.85744 16.0954ZM9.75159 8.05981H15.5006C15.2755 6.7905 14.9499 5.66966 14.5582 4.75577C14.173 3.85695 13.7556 3.23225 13.3739 2.8556C12.9992 2.48577 12.7483 2.43478 12.6261 2.43478C12.5039 2.43478 12.253 2.48577 11.8783 2.8556C11.4967 3.23225 11.0793 3.85695 10.694 4.75577C10.3024 5.66966 9.97671 6.7905 9.75159 8.05981ZM17.131 8.05981H21.3945C20.2447 5.55453 18.0527 3.62689 15.3737 2.83191C16.1639 4.11278 16.782 5.93098 17.131 8.05981ZM9.87858 2.83181C9.08838 4.11268 8.47022 5.93093 8.12126 8.05981H3.85746C5.00734 5.55442 7.19941 3.62672 9.87858 2.83181Z"/>
</mask>
<path fill-rule="evenodd" clip-rule="evenodd" d="M12.63 23.3276C18.8414 23.3255 23.876 18.2895 23.876 12.0776C23.876 5.86443 18.8392 0.827637 12.626 0.827637C6.41277 0.827637 1.37598 5.86443 1.37598 12.0776C1.37598 18.2908 6.41277 23.3276 12.626 23.3276H12.63ZM12.6261 21.7205C12.7483 21.7205 12.9992 21.6695 13.3739 21.2997C13.7556 20.923 14.173 20.2983 14.5582 19.3995C14.9499 18.4856 15.2755 17.3647 15.5007 16.0954H9.75158C9.9767 17.3647 10.3024 18.4856 10.694 19.3995C11.0793 20.2983 11.4967 20.923 11.8783 21.2997C12.253 21.6695 12.5039 21.7205 12.6261 21.7205ZM9.53026 14.4883C9.4533 13.7201 9.41183 12.9132 9.41183 12.0776C9.41183 11.2421 9.4533 10.4352 9.53027 9.66696H15.722C15.7989 10.4352 15.8404 11.2421 15.8404 12.0776C15.8404 12.9132 15.7989 13.7201 15.722 14.4883H9.53026ZM17.131 16.0954C16.782 18.2243 16.1639 20.0425 15.3737 21.3234C18.0527 20.5284 20.2447 18.6007 21.3945 16.0954H17.131ZM21.9651 14.4883H17.3366C17.4093 13.7117 17.4475 12.9051 17.4475 12.0776C17.4475 11.2502 17.4093 10.4436 17.3366 9.66696H21.965C22.1634 10.4375 22.2688 11.2452 22.2688 12.0776C22.2688 12.91 22.1634 13.7178 21.9651 14.4883ZM7.91564 14.4883H3.28689C3.08859 13.7178 2.98312 12.91 2.98312 12.0776C2.98312 11.2452 3.08859 10.4375 3.2869 9.66696H7.91564C7.84297 10.4436 7.80469 11.2502 7.80469 12.0776C7.80469 12.9051 7.84297 13.7117 7.91564 14.4883ZM3.85744 16.0954H8.12126C8.47021 18.2243 9.08838 20.0426 9.87858 21.3235C7.19939 20.5285 5.00732 18.6008 3.85744 16.0954ZM9.75159 8.05981H15.5006C15.2755 6.7905 14.9499 5.66966 14.5582 4.75577C14.173 3.85695 13.7556 3.23225 13.3739 2.8556C12.9992 2.48577 12.7483 2.43478 12.6261 2.43478C12.5039 2.43478 12.253 2.48577 11.8783 2.8556C11.4967 3.23225 11.0793 3.85695 10.694 4.75577C10.3024 5.66966 9.97671 6.7905 9.75159 8.05981ZM17.131 8.05981H21.3945C20.2447 5.55453 18.0527 3.62689 15.3737 2.83191C16.1639 4.11278 16.782 5.93098 17.131 8.05981ZM9.87858 2.83181C9.08838 4.11268 8.47022 5.93093 8.12126 8.05981H3.85746C5.00734 5.55442 7.19941 3.62672 9.87858 2.83181Z" fill="#AD75F9" stroke="#AD75F9" stroke-width="1.875" stroke-linecap="round" mask="url(#path-1-inside-1_442_19477)"/>
</svg>
