<svg width="25" height="25" viewBox="0 0 25 25" fill="none" xmlns="http://www.w3.org/2000/svg">
<path fill-rule="evenodd" clip-rule="evenodd" d="M4.23596 7.49074C4.30069 7.44371 4.3913 7.45806 4.43833 7.52279L6.49788 10.3575C6.61546 10.5194 6.84197 10.5552 7.00381 10.4376C7.16565 10.3201 7.20153 10.0936 7.08394 9.93171L5.0244 7.09699C5.00581 7.0714 4.99681 7.04177 4.98948 7.01765C4.97827 6.98074 4.97097 6.95672 4.93924 6.97978L5.58391 6.5114C5.64865 6.46436 5.73925 6.47871 5.78628 6.54345L7.84583 9.37817C7.96341 9.54001 8.18993 9.57589 8.35176 9.4583C8.5136 9.34072 8.54948 9.11421 8.4319 8.95237L6.37235 6.11765C6.32532 6.05291 6.33967 5.96231 6.4044 5.91527L6.94291 5.52403C7.00764 5.47699 7.09825 5.49134 7.14528 5.55608L9.20483 8.3908C9.32241 8.55264 9.54892 8.58851 9.71076 8.47093C9.8726 8.35335 9.90848 8.12684 9.7909 7.965L7.73135 5.13028C7.68432 5.06554 7.69867 4.97494 7.7634 4.9279L8.70567 4.24324C8.7704 4.1962 8.86102 4.21054 8.90805 4.27528L11.0414 7.21154C12.0172 8.55467 11.8982 10.3593 10.8529 11.5604L16.3961 17.7554C17.0423 18.4776 16.9226 19.6 16.1386 20.1696C15.3546 20.7392 14.2502 20.5063 13.763 19.6686L9.5847 12.484C8.11332 13.1142 6.35021 12.6693 5.36967 11.3196L3.24245 8.39159C3.19542 8.32686 3.20977 8.23626 3.2745 8.18922L4.23596 7.49074Z" fill="url(#paint0_linear_442_20906)"/>
<path fill-rule="evenodd" clip-rule="evenodd" d="M8.97799 20.0749C9.76197 20.6445 10.8665 20.4115 11.3536 19.5738L15.4682 12.498C16.997 13.1445 18.8523 12.646 19.9018 11.2015C21.1179 9.5278 21.5923 6.1158 19.974 4.93998C18.3556 3.76416 15.2572 5.26978 14.0412 6.94349C12.9917 8.38798 13.0909 10.3064 14.1782 11.5607L8.7204 17.6607C8.07428 18.3829 8.19404 19.5053 8.97799 20.0749Z" fill="white"/>
<defs>
<linearGradient id="paint0_linear_442_20906" x1="12.9647" y1="3.74823" x2="12.9647" y2="20.9982" gradientUnits="userSpaceOnUse">
<stop stop-color="white"/>
<stop offset="1" stop-color="white" stop-opacity="0.1"/>
</linearGradient>
</defs>
</svg>
