<svg width="24" height="24" viewBox="0 0 24 24" fill="none" xmlns="http://www.w3.org/2000/svg">
<path fill-rule="evenodd" clip-rule="evenodd" d="M12 21C16.9706 21 21 16.9706 21 12C21 7.02944 16.9706 3 12 3C7.02944 3 3 7.02944 3 12C3 16.9706 7.02944 21 12 21ZM14.0081 13.7296C13.9573 13.8566 13.8566 13.9573 13.7296 14.0081L8.58294 16.0667C8.17478 16.23 7.76974 15.825 7.93301 15.4168L9.99169 10.2702C10.0425 10.1432 10.1432 10.0425 10.2702 9.99169L15.4168 7.93304C15.825 7.76978 16.23 8.17482 16.0668 8.58298L14.0081 13.7296Z" fill="#FF5235"/>
</svg>
