<svg width="25" height="25" viewBox="0 0 25 25" fill="none" xmlns="http://www.w3.org/2000/svg">
<path d="M22.143 12.3013H2.67323C2.40248 12.3013 2.18521 12.5156 2.20811 12.7854C2.29616 13.8226 2.73671 16.3507 4.90594 18.6294C7.60131 21.4607 11.7174 21.4914 12.0556 21.489C12.0722 21.4889 12.0835 21.4892 12.1001 21.4903C12.4364 21.5113 16.5235 21.7051 19.5778 18.9575C22.0785 16.7079 22.5308 13.8913 22.6096 12.7819C22.6287 12.5136 22.4119 12.3013 22.143 12.3013Z" fill="#FF7E84" stroke="#FF7E84"/>
<rect x="8" y="21.3481" width="9.1875" height="1.5" rx="0.75" fill="#FF7E84"/>
<path d="M3.125 12.6762C3.125 12.6762 4.15627 3.48875 12.4063 3.5825C20.6563 3.67625 21.4062 12.6763 21.4062 12.6763" stroke="#FF7E84"/>
</svg>
