<svg width="24" height="24" viewBox="0 0 24 24" fill="none" xmlns="http://www.w3.org/2000/svg">
<path fill-rule="evenodd" clip-rule="evenodd" d="M11.75 21C16.7206 21 20.75 16.9706 20.75 12C20.75 7.02944 16.7206 3 11.75 3C6.77944 3 2.75 7.02944 2.75 12C2.75 16.9706 6.77944 21 11.75 21ZM13.7581 13.7296C13.7073 13.8566 13.6066 13.9573 13.4796 14.0081L8.33294 16.0667C7.92478 16.23 7.51974 15.825 7.68301 15.4168L9.74169 10.2702C9.79251 10.1432 9.89318 10.0425 10.0202 9.99169L15.1668 7.93304C15.575 7.76978 15.98 8.17482 15.8168 8.58298L13.7581 13.7296Z" fill="#989BA2"/>
</svg>
