<svg width="24" height="24" viewBox="0 0 24 24" fill="none" xmlns="http://www.w3.org/2000/svg">
<path fill-rule="evenodd" clip-rule="evenodd" d="M12 2C16.4183 2 20 5.70521 20 10.2759C20 13.9265 17.1783 16.6909 14.6687 19.1495C13.6613 20.1364 12.7041 21.0741 12 22C11.2959 21.0741 10.3387 20.1364 9.33133 19.1495C6.82171 16.6909 4 13.9265 4 10.2759C4 5.70521 7.58171 2 12 2ZM12 13C13.6569 13 15 11.6569 15 10C15 8.34315 13.6569 7 12 7C10.3431 7 9 8.34315 9 10C9 11.6569 10.3431 13 12 13Z" fill="#5A5C63"/>
</svg>
